<svg  width="2053" height="432" viewBox="0 0 2053 432" xmlns="http://www.w3.org/2000/svg">
  <g transform="matrix(5.31595, 0, 0, 5.31595, -448.344482, -755.835083)" style="">
    <title>logo</title>
    <path class="st1" d="M 145.318 153.578 C 145.318 154.268 144.758 154.838 144.058 154.838 C 143.368 154.838 142.798 154.278 142.798 153.578 C 142.798 152.888 143.358 152.318 144.058 152.318 C 144.758 152.318 145.318 152.878 145.318 153.578 Z" style="fill: rgb(239, 19, 133);"/>
    <path class="st11" d="M 96.414 149.054 C 96.414 149.054 100.714 155.224 96.814 166.344 C 90.884 183.254 101.364 195.314 111.824 201.384 C 122.274 207.454 141.284 210.684 152.984 203.994 C 152.984 203.994 161.104 199.254 151.784 195.744 C 142.464 192.234 112.214 179.944 103.574 145.684 C 103.564 145.684 99.134 142.334 96.414 149.054 Z" style="fill: rgb(244, 247, 41);"/>
    <path class="st12" d="M 96.414 149.054 C 96.414 149.054 100.714 155.224 96.814 166.344 C 90.884 183.254 101.364 195.314 111.824 201.384 C 122.274 207.454 141.284 210.684 152.984 203.994 C 152.984 203.994 161.104 199.254 151.784 195.744 C 142.464 192.234 112.214 179.944 103.574 145.684 C 103.574 145.684 99.134 142.334 96.414 149.054 Z" style="fill: none; stroke: rgb(0, 0, 0); stroke-miterlimit: 10; stroke-width: 2.5905px;"/>
    <path d="M 154.124 196.894 C 154.124 196.894 141.904 207.444 118.434 190.904 C 118.434 190.904 133.914 205.704 151.594 201.634 C 151.594 201.634 156.554 199.504 153.564 204.204 C 153.564 204.204 159.114 199.224 154.124 196.894 Z" style=""/>
    <path class="st13" d="M 97.974 145.204 C 97.974 145.204 104.154 154.754 101.424 170.564 C 98.694 186.374 112.924 211.534 155.624 200.894 L 152.974 203.984 C 141.284 210.674 122.274 207.454 111.814 201.374 C 101.364 195.304 90.874 183.244 96.804 166.334 C 99.234 159.394 98.484 154.394 96.594 150.414 L 97.974 145.204 Z" style="opacity: 0.15;"/>
    <path class="st14" d="M 116.444 165.744 C 114.644 163.184 112.984 160.394 111.504 157.374 C 112.994 157.114 114.484 156.974 115.964 156.944 C 119.964 163.924 129.654 177.744 146.214 184.094 C 146.384 185.984 146.374 187.854 146.184 189.694 C 146.154 189.684 146.124 189.674 146.104 189.654 C 143.294 188.354 140.044 186.674 136.644 184.544 C 129.834 180.274 122.404 174.214 116.444 165.744 Z" style="opacity: 0.19;"/>
    <path class="st1" d="M 125.764 212.094 C 125.764 211.864 130.944 211.934 130.944 212.094 L 130.944 216.4 C 130.944 217.83 129.784 218.99 128.354 218.99 C 126.924 218.99 125.764 217.83 125.764 216.4 L 125.764 212.094 Z" style="fill: rgb(239, 19, 133);"/>
    <path class="st1" d="M 105.135 218.495 C 105.135 219.925 106.295 221.085 107.725 221.085 C 109.155 221.085 110.315 219.925 110.315 218.495 L 110.244 209.504 C 110.244 208.074 109.084 206.914 107.654 206.914 C 106.224 206.914 105.064 208.074 105.064 209.504 L 105.135 218.495 Z" style="fill: rgb(239, 19, 133);"/>
    <path class="st1" d="M 120.664 209.844 L 120.664 214.115 C 120.664 215.545 119.504 216.705 118.074 216.705 C 116.644 216.705 115.484 215.545 115.484 214.115 L 115.484 209.304 C 117.234 209.294 118.944 209.554 120.664 209.844 Z" style="fill: rgb(239, 19, 133);"/>
    <path class="st1" d="M 115.712 219.762 C 115.712 221.112 116.802 222.202 118.152 222.202 C 119.502 222.202 120.592 221.112 120.592 219.762 C 120.592 218.412 119.502 217.322 118.152 217.322 C 116.802 217.312 115.712 218.412 115.712 219.762 Z" style="fill: rgb(239, 19, 133);"/>
    <path class="st1" d="M 143.914 165.154 C 143.914 167.374 142.114 169.184 139.894 169.184 C 137.674 169.184 135.864 167.384 135.864 165.154 C 135.864 162.934 137.664 161.124 139.894 161.124 C 142.104 161.134 143.914 162.934 143.914 165.154 Z" style="fill: rgb(239, 19, 133);"/>
    <path class="st1" d="M 154.724 162.564 C 154.724 164.094 153.484 165.334 151.954 165.334 C 150.424 165.334 149.184 164.094 149.184 162.564 C 149.184 161.034 150.424 159.794 151.954 159.794 C 153.494 159.804 154.724 161.034 154.724 162.564 Z" style="fill: rgb(239, 19, 133);"/>
    <path class="st15" d="M 102.294 174.214 C 102.294 174.214 100.564 179.824 104.454 184.134" style="fill: none; stroke: rgb(255, 255, 255); stroke-linecap: round; stroke-miterlimit: 10; stroke-width: 1.7252px;"/>
    <path class="st15" d="M 120.044 161.414 C 120.044 161.414 125.794 161.704 129.824 165.154" style="fill: none; stroke: rgb(255, 255, 255); stroke-linecap: round; stroke-miterlimit: 10; stroke-width: 1.7252px;"/>
    <path class="st1" d="M 136.644 184.544 C 140.044 186.674 143.294 188.354 146.104 189.654 C 146.134 189.664 146.164 189.674 146.184 189.694 C 146.534 186.274 146.294 182.734 145.374 179.204 C 141.454 164.104 126.604 154.744 111.504 157.374 C 112.984 160.394 114.644 163.184 116.444 165.744 C 122.404 174.214 129.834 180.274 136.644 184.544 Z M 87.784 194.164 C 90.704 205.394 99.664 213.444 110.274 215.754 L 110.274 212.054 C 110.274 210.624 111.434 209.464 112.864 209.464 C 114.294 209.464 115.454 210.624 115.454 212.054 L 120.634 214.134 C 120.634 212.704 121.794 211.544 123.224 211.544 C 124.654 211.544 125.814 212.704 125.814 214.134 L 125.814 214.954 C 128.674 214.024 131.304 212.694 133.664 211.044 C 131.634 210.924 129.604 210.704 127.614 210.364 C 121.064 209.264 114.904 207.134 110.104 204.354 C 106.414 202.214 102.714 199.384 99.574 195.834 C 96.434 192.294 93.854 187.994 92.554 183.004 C 91.474 178.864 91.314 174.264 92.374 169.384 C 87.434 176.324 85.484 185.294 87.784 194.164 Z" style="fill: rgb(239, 19, 133);"/>
  </g>
  <path d="M 415.47778657226564 300.7834029296875 Q 412.0535865722656 300.7834029296875 410.07808657226565 299.3347029296875 Q 408.10258657226564 297.8860029296875 407.9708865722656 295.2520029296875 Q 407.83918657226565 292.6180029296875 409.1561865722656 289.4572029296875 L 483.1715865722656 119.30080292968753 Q 485.0153865722656 115.34980292968751 487.6493865722656 113.63770292968752 Q 490.2833865722656 111.92560292968753 492.9173865722656 111.92560292968753 Q 496.0781865722656 111.92560292968753 498.5804865722656 113.63770292968752 Q 501.0827865722656 115.34980292968751 502.6631865722656 119.30080292968753 L 576.6785865722657 289.4572029296875 Q 578.2589865722656 292.6180029296875 578.1272865722656 295.2520029296875 Q 577.9955865722657 297.8860029296875 576.2834865722656 299.3347029296875 Q 574.5713865722656 300.7834029296875 571.1471865722656 300.7834029296875 Q 567.4595865722656 300.7834029296875 565.2206865722655 298.8079029296875 Q 562.9817865722656 296.8324029296875 561.4013865722657 293.4082029296875 L 541.1195865722656 245.73280292968752 L 549.8117865722656 249.68380292968752 L 435.7595865722656 249.68380292968752 L 444.7151865722656 245.73280292968752 L 424.43338657226565 293.4082029296875 Q 422.85298657226565 297.3592029296875 420.61408657226565 299.0713029296875 Q 418.37518657226565 300.7834029296875 415.47778657226564 300.7834029296875 Z M 492.6539865722656 133.5244029296875 L 447.8759865722656 238.8844029296875 L 441.8177865722656 235.7236029296875 L 543.7535865722656 235.7236029296875 L 538.2221865722656 238.8844029296875 L 493.1807865722656 133.5244029296875 Z M 645.9498310546875 301.3102029296875 Q 628.3020310546875 301.3102029296875 618.6879310546875 290.2474029296875 Q 609.0738310546875 279.1846029296875 609.0738310546875 258.9028029296875 L 609.0738310546875 120.09100292968753 Q 609.0738310546875 115.87660292968752 611.1810310546875 113.90110292968751 Q 613.2882310546875 111.92560292968753 617.2392310546875 111.92560292968753 Q 620.9268310546875 111.92560292968753 623.0340310546875 113.90110292968751 Q 625.1412310546875 115.87660292968752 625.1412310546875 120.09100292968753 L 625.1412310546875 257.0590029296875 Q 625.1412310546875 272.3362029296875 631.1994310546875 279.8431029296875 Q 637.2576310546875 287.3500029296875 648.8472310546875 287.3500029296875 Q 651.4812310546874 287.3500029296875 653.3250310546875 287.0866029296875 Q 655.1688310546875 286.8232029296875 657.0126310546875 286.8232029296875 Q 659.3832310546875 286.5598029296875 660.5685310546875 287.7451029296875 Q 661.7538310546875 288.9304029296875 661.7538310546875 292.6180029296875 Q 661.7538310546875 296.3056029296875 659.9100310546875 298.1494029296875 Q 658.0662310546875 299.9932029296875 653.8518310546875 300.7834029296875 Q 652.0080310546875 301.0468029296875 650.0325310546875 301.1785029296875 Q 648.0570310546875 301.3102029296875 645.9498310546875 301.3102029296875 Z M 738.4012310546875 348.7222029296875 Q 724.1776310546875 348.7222029296875 710.8759310546875 345.1663029296875 Q 697.5742310546875 341.6104029296875 686.7748310546875 333.7084029296875 Q 684.6676310546875 332.3914029296875 684.0091310546875 330.28420292968747 Q 683.3506310546875 328.1770029296875 683.8774310546875 326.2015029296875 Q 684.4042310546874 324.2260029296875 685.8529310546875 322.64560292968747 Q 687.3016310546875 321.0652029296875 689.2771310546875 320.8018029296875 Q 691.2526310546875 320.5384029296875 693.3598310546874 321.5920029296875 Q 704.9494310546875 329.2306029296875 715.6171310546874 332.2597029296875 Q 726.2848310546875 335.2888029296875 737.8744310546875 335.2888029296875 Q 757.1026310546874 335.2888029296875 767.1118310546875 324.6211029296875 Q 777.1210310546875 313.9534029296875 777.1210310546875 294.1984029296875 L 777.1210310546875 261.5368029296875 L 779.7550310546875 261.5368029296875 Q 775.8040310546875 277.8676029296875 762.8974310546874 287.0866029296875 Q 749.9908310546875 296.3056029296875 732.3430310546875 296.3056029296875 Q 714.6952310546875 296.3056029296875 701.7886310546875 288.2719029296875 Q 688.8820310546874 280.23820292968753 681.9019310546875 265.8829029296875 Q 674.9218310546875 251.5276029296875 674.9218310546875 232.5628029296875 Q 674.9218310546875 218.33920292968753 678.8728310546875 206.7496029296875 Q 682.8238310546875 195.1600029296875 690.3307310546875 186.73120292968753 Q 697.8376310546874 178.3024029296875 708.3736310546875 173.69290292968753 Q 718.9096310546875 169.0834029296875 732.3430310546875 169.0834029296875 Q 749.9908310546875 169.0834029296875 762.8974310546874 178.43410292968753 Q 775.8040310546875 187.78480292968752 779.4916310546874 203.58880292968752 L 776.8576310546875 205.16920292968751 L 776.8576310546875 178.0390029296875 Q 776.8576310546875 173.8246029296875 778.9648310546875 171.71740292968752 Q 781.0720310546875 169.61020292968752 784.7596310546875 169.61020292968752 Q 788.7106310546875 169.61020292968752 790.6861310546875 171.71740292968752 Q 792.6616310546875 173.8246029296875 792.6616310546875 178.0390029296875 L 792.6616310546875 291.8278029296875 Q 792.6616310546875 320.0116029296875 778.9648310546875 334.3669029296875 Q 765.2680310546875 348.7222029296875 738.4012310546875 348.7222029296875 Z M 734.1868310546874 282.6088029296875 Q 747.3568310546875 282.6088029296875 756.9709310546875 276.4189029296875 Q 766.5850310546875 270.2290029296875 771.8530310546874 259.0345029296875 Q 777.1210310546875 247.8400029296875 777.1210310546875 232.5628029296875 Q 777.1210310546875 209.64700292968752 765.5314310546875 196.2136029296875 Q 753.9418310546874 182.7802029296875 734.1868310546874 182.7802029296875 Q 721.0168310546875 182.7802029296875 711.2710310546875 188.8384029296875 Q 701.5252310546875 194.8966029296875 696.3889310546875 206.0911029296875 Q 691.2526310546875 217.2856029296875 691.2526310546875 232.5628029296875 Q 691.2526310546875 255.4786029296875 702.8422310546875 269.0437029296875 Q 714.4318310546874 282.6088029296875 734.1868310546874 282.6088029296875 Z M 885.9100310546875 301.3102029296875 Q 867.9988310546875 301.3102029296875 854.8288310546875 293.1448029296875 Q 841.6588310546875 284.9794029296875 834.4153310546875 270.2290029296875 Q 827.1718310546875 255.4786029296875 827.1718310546875 235.19680292968752 Q 827.1718310546875 220.18300292968752 831.2545310546875 208.06660292968752 Q 835.3372310546875 195.95020292968752 843.1075310546875 187.1263029296875 Q 850.8778310546875 178.3024029296875 861.8089310546875 173.69290292968753 Q 872.7400310546875 169.0834029296875 885.9100310546875 169.0834029296875 Q 904.0846310546875 169.0834029296875 917.2546310546875 177.2488029296875 Q 930.4246310546874 185.41420292968752 937.6681310546875 200.2963029296875 Q 944.9116310546875 215.1784029296875 944.9116310546875 235.19680292968752 Q 944.9116310546875 250.47400292968752 940.8289310546875 262.5904029296875 Q 936.7462310546875 274.7068029296875 928.9759310546875 283.3990029296875 Q 921.2056310546875 292.0912029296875 910.4062310546875 296.7007029296875 Q 899.6068310546875 301.3102029296875 885.9100310546875 301.3102029296875 Z M 885.9100310546875 287.8768029296875 Q 899.0800310546875 287.8768029296875 908.6941310546874 281.6869029296875 Q 918.3082310546874 275.4970029296875 923.4445310546874 263.64400292968753 Q 928.5808310546875 251.79100292968752 928.5808310546875 235.19680292968752 Q 928.5808310546875 210.1738029296875 917.1229310546875 196.4770029296875 Q 905.6650310546875 182.7802029296875 885.9100310546875 182.7802029296875 Q 873.0034310546876 182.7802029296875 863.3893310546875 188.97010292968753 Q 853.7752310546875 195.1600029296875 848.6389310546875 206.8813029296875 Q 843.5026310546875 218.60260292968752 843.5026310546875 235.19680292968752 Q 843.5026310546875 260.48320292968754 855.0922310546875 274.1800029296875 Q 866.6818310546874 287.8768029296875 885.9100310546875 287.8768029296875 Z" transform="matrix(1, 0, 0, 1, 0, 0)" style="fill: rgb(0, 0, 0); white-space: pre;"/>
  <path d="M 994.1813810546874 301.3102029296875 Q 986.8061810546875 301.3102029296875 982.8551810546875 297.0958029296875 Q 978.9041810546875 292.8814029296875 978.9041810546875 285.5062029296875 L 978.9041810546875 127.20280292968752 Q 978.9041810546875 119.56420292968753 983.1185810546875 115.48150292968754 Q 987.3329810546875 111.39880292968752 994.7081810546875 111.39880292968752 Q 1001.2931810546875 111.39880292968752 1005.1124810546875 113.90110292968751 Q 1008.9317810546875 116.40340292968753 1012.0925810546875 122.46160292968753 L 1077.1523810546876 242.83540292968752 L 1068.7235810546874 242.83540292968752 L 1133.7833810546874 122.46160292968753 Q 1136.9441810546875 116.40340292968753 1140.6317810546875 113.90110292968751 Q 1144.3193810546875 111.39880292968752 1150.9043810546875 111.39880292968752 Q 1158.2795810546875 111.39880292968752 1162.2305810546875 115.48150292968754 Q 1166.1815810546875 119.56420292968753 1166.1815810546875 127.20280292968752 L 1166.1815810546875 285.5062029296875 Q 1166.1815810546875 292.8814029296875 1162.3622810546874 297.0958029296875 Q 1158.5429810546875 301.3102029296875 1150.9043810546875 301.3102029296875 Q 1143.5291810546876 301.3102029296875 1139.5781810546875 297.0958029296875 Q 1135.6271810546875 292.8814029296875 1135.6271810546875 285.5062029296875 L 1135.6271810546875 163.55200292968752 L 1141.4219810546874 163.55200292968752 L 1086.1079810546876 264.4342029296875 Q 1083.4739810546876 268.9120029296875 1080.5765810546875 271.0192029296875 Q 1077.6791810546874 273.1264029296875 1072.6745810546875 273.1264029296875 Q 1067.6699810546875 273.1264029296875 1064.5091810546876 270.8875029296875 Q 1061.3483810546875 268.6486029296875 1058.9777810546875 264.4342029296875 L 1003.1369810546875 163.28860292968753 L 1009.4585810546874 163.28860292968753 L 1009.4585810546874 285.5062029296875 Q 1009.4585810546874 292.8814029296875 1005.6392810546874 297.0958029296875 Q 1001.8199810546874 301.3102029296875 994.1813810546874 301.3102029296875 Z M 1262.5797810546874 301.8370029296875 Q 1242.5613810546874 301.8370029296875 1227.8109810546875 293.6716029296875 Q 1213.0605810546874 285.5062029296875 1204.8951810546876 270.3607029296875 Q 1196.7297810546875 255.2152029296875 1196.7297810546875 234.6700029296875 Q 1196.7297810546875 219.1294029296875 1201.3392810546875 206.8813029296875 Q 1205.9487810546875 194.6332029296875 1214.6409810546875 185.80930292968753 Q 1223.3331810546874 176.9854029296875 1235.4495810546875 172.37590292968753 Q 1247.5659810546874 167.76640292968753 1262.5797810546874 167.76640292968753 Q 1282.5981810546875 167.76640292968753 1297.3485810546874 175.93180292968754 Q 1312.0989810546876 184.0972029296875 1320.2643810546874 199.11100292968752 Q 1328.4297810546875 214.12480292968752 1328.4297810546875 234.6700029296875 Q 1328.4297810546875 250.2106029296875 1323.8202810546875 262.5904029296875 Q 1319.2107810546875 274.9702029296875 1310.5185810546875 283.7941029296875 Q 1301.8263810546875 292.6180029296875 1289.7099810546874 297.2275029296875 Q 1277.5935810546875 301.8370029296875 1262.5797810546874 301.8370029296875 Z M 1262.5797810546874 276.8140029296875 Q 1272.3255810546875 276.8140029296875 1279.7007810546875 272.0728029296875 Q 1287.0759810546874 267.3316029296875 1291.1586810546876 257.9809029296875 Q 1295.2413810546875 248.6302029296875 1295.2413810546875 234.6700029296875 Q 1295.2413810546875 213.5980029296875 1286.2857810546875 203.1937029296875 Q 1277.3301810546875 192.78940292968753 1262.5797810546874 192.78940292968753 Q 1252.8339810546875 192.78940292968753 1245.4587810546875 197.3989029296875 Q 1238.0835810546876 202.00840292968752 1234.0008810546874 211.3591029296875 Q 1229.9181810546875 220.7098029296875 1229.9181810546875 234.6700029296875 Q 1229.9181810546875 255.4786029296875 1238.8737810546875 266.1463029296875 Q 1247.8293810546875 276.8140029296875 1262.5797810546874 276.8140029296875 Z M 1371.8911310546875 301.3102029296875 Q 1363.9891310546875 301.3102029296875 1359.7747310546874 296.9641029296875 Q 1355.5603310546876 292.6180029296875 1355.5603310546876 284.4526029296875 L 1355.5603310546876 184.8874029296875 Q 1355.5603310546876 176.7220029296875 1359.7747310546874 172.50760292968752 Q 1363.9891310546875 168.2932029296875 1371.6277310546875 168.2932029296875 Q 1379.2663310546875 168.2932029296875 1383.4807310546876 172.50760292968752 Q 1387.6951310546874 176.7220029296875 1387.6951310546874 184.8874029296875 L 1387.6951310546874 202.79860292968752 L 1384.7977310546876 196.2136029296875 Q 1390.5925310546875 182.25340292968752 1402.8406310546875 175.0099029296875 Q 1415.0887310546875 167.76640292968753 1430.6293310546876 167.76640292968753 Q 1446.1699310546874 167.76640292968753 1456.1791310546876 173.5612029296875 Q 1466.1883310546875 179.35600292968752 1471.1929310546875 191.0773029296875 Q 1476.1975310546875 202.79860292968752 1476.1975310546875 220.7098029296875 L 1476.1975310546875 284.4526029296875 Q 1476.1975310546875 292.6180029296875 1471.9831310546874 296.9641029296875 Q 1467.7687310546876 301.3102029296875 1459.8667310546875 301.3102029296875 Q 1451.9647310546875 301.3102029296875 1447.6186310546875 296.9641029296875 Q 1443.2725310546875 292.6180029296875 1443.2725310546875 284.4526029296875 L 1443.2725310546875 222.2902029296875 Q 1443.2725310546875 207.2764029296875 1437.6094310546875 200.42800292968752 Q 1431.9463310546876 193.5796029296875 1420.0933310546875 193.5796029296875 Q 1405.6063310546874 193.5796029296875 1397.0458310546876 202.66690292968752 Q 1388.4853310546875 211.7542029296875 1388.4853310546875 226.7680029296875 L 1388.4853310546875 284.4526029296875 Q 1388.4853310546875 301.3102029296875 1371.8911310546875 301.3102029296875 Z M 1525.9848810546875 301.3102029296875 Q 1518.0828810546875 301.3102029296875 1513.8684810546874 296.9641029296875 Q 1509.6540810546876 292.6180029296875 1509.6540810546876 284.4526029296875 L 1509.6540810546876 127.99300292968752 Q 1509.6540810546876 119.82760292968752 1513.8684810546874 115.61320292968753 Q 1518.0828810546875 111.39880292968752 1525.9848810546875 111.39880292968752 Q 1533.8868810546876 111.39880292968752 1538.2329810546876 115.61320292968753 Q 1542.5790810546875 119.82760292968752 1542.5790810546875 127.99300292968752 L 1542.5790810546875 225.1876029296875 L 1543.1058810546874 225.1876029296875 L 1586.5668810546874 179.35600292968752 Q 1591.8348810546875 174.08800292968752 1595.7858810546875 171.19060292968751 Q 1599.7368810546875 168.2932029296875 1606.5852810546876 168.2932029296875 Q 1613.4336810546874 168.2932029296875 1616.9895810546875 171.84910292968752 Q 1620.5454810546876 175.4050029296875 1620.5454810546876 180.4096029296875 Q 1620.5454810546876 185.41420292968752 1615.8042810546874 190.4188029296875 L 1569.9726810546874 238.8844029296875 L 1569.9726810546874 225.1876029296875 L 1620.2820810546875 279.4480029296875 Q 1625.0232810546875 284.4526029296875 1624.6281810546875 289.5889029296875 Q 1624.2330810546875 294.7252029296875 1620.2820810546875 298.0177029296875 Q 1616.3310810546875 301.3102029296875 1610.2728810546876 301.3102029296875 Q 1602.8976810546874 301.3102029296875 1598.5515810546874 298.4128029296875 Q 1594.2054810546874 295.5154029296875 1588.9374810546874 289.7206029296875 L 1543.1058810546874 241.7818029296875 L 1542.5790810546875 241.7818029296875 L 1542.5790810546875 284.4526029296875 Q 1542.5790810546875 301.3102029296875 1525.9848810546875 301.3102029296875 Z M 1711.6803560546875 301.8370029296875 Q 1689.8181560546875 301.8370029296875 1674.0141560546874 293.6716029296875 Q 1658.2101560546876 285.5062029296875 1649.6496560546875 270.4924029296875 Q 1641.0891560546875 255.4786029296875 1641.0891560546875 234.9334029296875 Q 1641.0891560546875 214.91500292968752 1649.3862560546875 199.9012029296875 Q 1657.6833560546875 184.8874029296875 1672.3020560546875 176.32690292968752 Q 1686.9207560546874 167.76640292968753 1705.6221560546876 167.76640292968753 Q 1719.3189560546875 167.76640292968753 1730.2500560546875 172.2442029296875 Q 1741.1811560546876 176.7220029296875 1748.9514560546875 185.15080292968753 Q 1756.7217560546874 193.5796029296875 1760.8044560546875 205.56430292968753 Q 1764.8871560546875 217.5490029296875 1764.8871560546875 232.5628029296875 Q 1764.8871560546875 237.3040029296875 1761.5946560546874 239.8063029296875 Q 1758.3021560546874 242.3086029296875 1752.2439560546875 242.3086029296875 L 1667.6925560546874 242.3086029296875 L 1667.6925560546874 223.3438029296875 L 1741.7079560546874 223.3438029296875 L 1737.4935560546876 227.2948029296875 Q 1737.4935560546876 215.1784029296875 1733.9376560546875 207.0130029296875 Q 1730.3817560546875 198.84760292968753 1723.6650560546875 194.50150292968752 Q 1716.9483560546876 190.1554029296875 1706.9391560546874 190.1554029296875 Q 1695.8763560546874 190.1554029296875 1688.1060560546875 195.29170292968752 Q 1680.3357560546874 200.42800292968752 1676.2530560546875 209.7787029296875 Q 1672.1703560546875 219.1294029296875 1672.1703560546875 232.03600292968753 L 1672.1703560546875 233.87980292968751 Q 1672.1703560546875 255.4786029296875 1682.3112560546874 266.1463029296875 Q 1692.4521560546875 276.8140029296875 1712.2071560546874 276.8140029296875 Q 1719.0555560546875 276.8140029296875 1727.6160560546875 275.1019029296875 Q 1736.1765560546876 273.3898029296875 1743.8151560546876 269.1754029296875 Q 1749.3465560546874 266.0146029296875 1753.5609560546875 266.4097029296875 Q 1757.7753560546876 266.8048029296875 1760.2776560546874 269.4388029296875 Q 1762.7799560546875 272.0728029296875 1763.3067560546874 275.8921029296875 Q 1763.8335560546875 279.7114029296875 1761.8580560546875 283.6624029296875 Q 1759.8825560546875 287.6134029296875 1755.1413560546875 290.5108029296875 Q 1745.9223560546875 296.3056029296875 1733.9376560546875 299.0713029296875 Q 1721.9529560546875 301.8370029296875 1711.6803560546875 301.8370029296875 Z M 1821.5188060546875 348.7222029296875 Q 1815.7240060546874 348.7222029296875 1812.0364060546874 345.6931029296875 Q 1808.3488060546874 342.6640029296875 1807.6903060546874 337.6594029296875 Q 1807.0318060546874 332.6548029296875 1809.4024060546874 327.1234029296875 L 1827.3136060546874 287.3500029296875 L 1827.3136060546874 301.0468029296875 L 1779.3748060546875 190.1554029296875 Q 1777.0042060546875 184.3606029296875 1777.7944060546874 179.35600292968752 Q 1778.5846060546876 174.3514029296875 1782.6673060546875 171.3223029296875 Q 1786.7500060546874 168.2932029296875 1793.8618060546876 168.2932029296875 Q 1799.9200060546875 168.2932029296875 1803.6076060546875 171.05890292968752 Q 1807.2952060546875 173.8246029296875 1810.1926060546875 181.4632029296875 L 1845.7516060546875 270.2290029296875 L 1837.8496060546875 270.2290029296875 L 1874.1988060546876 181.1998029296875 Q 1877.0962060546874 173.8246029296875 1881.0472060546874 171.05890292968752 Q 1884.9982060546874 168.2932029296875 1891.5832060546875 168.2932029296875 Q 1897.3780060546874 168.2932029296875 1900.8022060546875 171.3223029296875 Q 1904.2264060546875 174.3514029296875 1905.0166060546876 179.2243029296875 Q 1905.8068060546875 184.0972029296875 1903.1728060546875 189.89200292968752 L 1839.1666060546875 336.0790029296875 Q 1835.7424060546875 343.4542029296875 1831.7914060546875 346.0882029296875 Q 1827.8404060546875 348.7222029296875 1821.5188060546875 348.7222029296875 Z M 1971.9120560546876 301.8370029296875 Q 1960.5858560546876 301.8370029296875 1947.9426560546874 299.4664029296875 Q 1935.2994560546874 297.0958029296875 1925.2902560546875 291.3010029296875 Q 1921.0758560546874 288.6670029296875 1919.3637560546874 285.1111029296875 Q 1917.6516560546875 281.5552029296875 1918.0467560546874 277.9993029296875 Q 1918.4418560546876 274.4434029296875 1920.6807560546874 271.8094029296875 Q 1922.9196560546875 269.1754029296875 1926.4755560546876 268.3852029296875 Q 1930.0314560546874 267.5950029296875 1934.2458560546875 269.7022029296875 Q 1944.7818560546875 274.7068029296875 1954.0008560546876 276.6823029296875 Q 1963.2198560546874 278.6578029296875 1972.1754560546874 278.6578029296875 Q 1984.8186560546874 278.6578029296875 1991.0085560546875 274.3117029296875 Q 1997.1984560546875 269.9656029296875 1997.1984560546875 262.8538029296875 Q 1997.1984560546875 256.7956029296875 1993.1157560546876 253.50310292968751 Q 1989.0330560546874 250.2106029296875 1980.8676560546876 248.6302029296875 L 1954.5276560546874 243.62560292968752 Q 1938.1968560546875 240.4648029296875 1929.6363560546874 231.6409029296875 Q 1921.0758560546874 222.8170029296875 1921.0758560546874 208.85680292968752 Q 1921.0758560546874 196.2136029296875 1928.0559560546876 186.99460292968752 Q 1935.0360560546876 177.77560292968752 1947.4158560546875 172.7710029296875 Q 1959.7956560546875 167.76640292968753 1975.8630560546876 167.76640292968753 Q 1987.4526560546874 167.76640292968753 1997.5935560546875 170.26870292968752 Q 2007.7344560546876 172.7710029296875 2017.2168560546875 178.0390029296875 Q 2021.1678560546875 180.14620292968752 2022.6165560546874 183.57040292968753 Q 2024.0652560546876 186.99460292968752 2023.2750560546874 190.55050292968753 Q 2022.4848560546875 194.10640292968753 2020.1142560546875 196.87210292968751 Q 2017.7436560546876 199.6378029296875 2014.1877560546875 200.2963029296875 Q 2010.6318560546874 200.9548029296875 2006.1540560546875 198.84760292968753 Q 1997.9886560546875 194.6332029296875 1990.4817560546876 192.78940292968753 Q 1982.9748560546875 190.9456029296875 1976.1264560546874 190.9456029296875 Q 1963.2198560546874 190.9456029296875 1957.0299560546875 195.4234029296875 Q 1950.8400560546875 199.9012029296875 1950.8400560546875 207.2764029296875 Q 1950.8400560546875 212.8078029296875 1954.5276560546874 216.49540292968751 Q 1958.2152560546874 220.18300292968752 1965.8538560546874 221.50000292968753 L 1992.1938560546876 226.5046029296875 Q 2009.3148560546874 229.6654029296875 2018.1387560546875 238.0942029296875 Q 2026.9626560546874 246.5230029296875 2026.9626560546874 260.7466029296875 Q 2026.9626560546874 279.9748029296875 2011.9488560546874 290.9059029296875 Q 1996.9350560546875 301.8370029296875 1971.9120560546876 301.8370029296875 Z" transform="matrix(1, 0, 0, 1, 0, 0)" style="fill: rgb(239, 19, 133); white-space: pre; paint-order: stroke;"/>
</svg>