<?xml version="1.0" encoding="utf-8"?>
<svg viewBox="0 0 240 93" xmlns="http://www.w3.org/2000/svg">
  <rect x="2.347" y="2.934" width="85.094" height="85.094" style="stroke: rgb(0, 0, 0);" rx="14.085" ry="14.085"/>
  <path d="M 115.279 26.383 L 129.32 62.793 L 124.115 62.793 L 120.89 54.414 L 104.463 54.414 L 101.238 62.793 L 96.033 62.793 L 110.074 26.383 Z M 106.443 49.209 L 118.884 49.209 L 112.689 33.162 Z" style="fill: rgb(51, 51, 51); white-space: pre;"/>
  <path d="M 164.33 39.383 Q 164.33 47 157.83 48.066 L 164.685 62.793 L 158.922 62.793 L 152.168 48.244 L 140.767 48.244 L 140.767 62.793 L 135.562 62.793 L 135.562 26.383 L 155.494 26.383 Q 164.33 26.383 164.33 35.244 Z M 140.767 43.039 L 155.214 43.039 Q 157.297 43.039 158.211 42.125 Q 159.125 41.211 159.125 39.129 L 159.125 35.498 Q 159.125 33.416 158.211 32.502 Q 157.297 31.588 155.214 31.588 L 140.767 31.588 Z" style="fill: rgb(51, 51, 51); white-space: pre;"/>
  <path d="M 173.015 26.383 L 199.548 26.383 L 199.548 31.588 L 178.22 31.588 L 178.22 41.998 L 196.425 41.998 L 196.425 47.203 L 178.22 47.203 L 178.22 57.588 L 199.548 57.588 L 199.548 62.793 L 173.015 62.793 Z" style="fill: rgb(51, 51, 51); white-space: pre;"/>
  <path d="M 212.548 47.203 Q 211.482 47.203 210.53 46.784 Q 209.578 46.365 208.867 45.667 Q 208.156 44.969 207.75 44.017 Q 207.343 43.064 207.343 41.998 L 207.343 31.588 Q 207.343 30.522 207.75 29.569 Q 208.156 28.617 208.867 27.919 Q 209.578 27.221 210.53 26.802 Q 211.482 26.383 212.548 26.383 L 230.22 26.383 Q 231.287 26.383 232.239 26.802 Q 233.191 27.221 233.902 27.919 Q 234.613 28.617 235.019 29.569 Q 235.425 30.522 235.425 31.588 L 235.425 36.285 L 230.22 36.285 L 230.22 31.588 L 212.548 31.588 L 212.548 41.998 L 230.22 41.998 Q 231.287 41.998 232.239 42.404 Q 233.191 42.811 233.902 43.522 Q 234.613 44.232 235.019 45.185 Q 235.425 46.137 235.425 47.203 L 235.425 57.588 Q 235.425 58.654 235.019 59.606 Q 234.613 60.559 233.902 61.27 Q 233.191 61.98 232.239 62.387 Q 231.287 62.793 230.22 62.793 L 212.041 62.793 Q 210.974 62.793 210.022 62.387 Q 209.07 61.98 208.359 61.27 Q 207.648 60.559 207.242 59.606 Q 206.836 58.654 206.836 57.588 L 206.836 52.916 L 212.041 52.916 L 212.041 57.588 L 230.22 57.588 L 230.22 47.203 Z" style="fill: rgb(51, 51, 51); white-space: pre;"/>
</svg>