<?xml version="1.0" encoding="utf-8"?>
<svg viewBox="299.829 168.072 122.43 125.809" xmlns="http://www.w3.org/2000/svg">
  <g transform="matrix(2.001229, 0, 0, 2.001229, -65.640366, -162.438507)">
    <title>banana</title>
    <path class="st11" d="M 183.952 169.359 C 183.952 169.359 188.252 175.529 184.352 186.649 C 178.422 203.559 188.902 215.619 199.362 221.689 C 209.812 227.759 228.822 230.989 240.522 224.299 C 240.522 224.299 248.642 219.559 239.322 216.049 C 230.002 212.539 199.752 200.249 191.112 165.989 C 191.102 165.989 186.672 162.639 183.952 169.359 Z" style="fill: rgb(244, 247, 41);"/>
    <path class="st12" d="M 183.952 169.359 C 183.952 169.359 188.252 175.529 184.352 186.649 C 178.422 203.559 188.902 215.619 199.362 221.689 C 209.812 227.759 228.822 230.989 240.522 224.299 C 240.522 224.299 248.642 219.559 239.322 216.049 C 230.002 212.539 199.752 200.249 191.112 165.989 C 191.112 165.989 186.672 162.639 183.952 169.359 Z" style="fill: none; stroke: rgb(0, 0, 0); stroke-miterlimit: 10; stroke-width: 2.5905px;"/>
    <path d="M 241.662 217.199 C 241.662 217.199 229.442 227.749 205.972 211.209 C 205.972 211.209 221.452 226.009 239.132 221.939 C 239.132 221.939 244.092 219.809 241.102 224.509 C 241.102 224.509 246.652 219.529 241.662 217.199 Z" style=""/>
    <path class="st13" d="M 185.512 165.509 C 185.512 165.509 191.692 175.059 188.962 190.869 C 186.232 206.679 200.462 231.839 243.162 221.199 L 240.512 224.289 C 228.822 230.979 209.812 227.759 199.352 221.679 C 188.902 215.609 178.412 203.549 184.342 186.639 C 186.772 179.699 186.022 174.699 184.132 170.719 L 185.512 165.509 Z" style="opacity: 0.15;"/>
    <path class="st15" d="M 189.832 194.519 C 189.832 194.519 188.102 200.129 191.992 204.439" style="fill: none; stroke: rgb(255, 255, 255); stroke-linecap: round; stroke-miterlimit: 10; stroke-width: 1.7252px;"/>
  </g>
</svg>