<?xml version="1.0" encoding="utf-8"?>
<svg viewBox="285.883 120.713 150 62.15" xmlns="http://www.w3.org/2000/svg">
  <defs>
    <clipPath id="clip0_30_7941">
      <rect width="150" height="62.1501" fill="white"/>
    </clipPath>
  </defs>
  <g clip-path="url(#clip0_30_7941)" transform="matrix(1, 0, 0, 1, 285.883213, 120.713228)">
    <path d="M4.3673 23.0121H0V9.23828H13.6898V13.6896H4.3673V23.0121Z" style=""/>
    <path d="M13.6898 57.699H4.3673V48.3765H0V62.1503H13.6898V57.699Z" style=""/>
    <path d="M140.677 48.3765H136.226V57.699H126.988V62.1503H140.677V48.3765Z" style=""/>
    <path d="M27.2957 35.1902C29.2273 34.9383 29.9832 33.0906 29.9832 31.4108V28.3873C29.9832 25.3638 27.8836 23.6841 24.1882 23.6841H17.8892V47.7042H24.1042C27.7156 47.7042 30.0672 46.0245 30.0672 43.001V39.0536C30.1512 37.1219 29.3953 35.5262 27.2957 35.1902ZM21.9205 27.0435H24.1882C24.4373 27.0171 24.6892 27.0467 24.9254 27.1302C25.1616 27.2137 25.3761 27.349 25.5533 27.5261C25.7304 27.7033 25.8657 27.9178 25.9492 28.154C26.0327 28.3902 26.0623 28.6421 26.0359 28.8912V31.6628C26.0623 31.9119 26.0327 32.1638 25.9492 32.4C25.8657 32.6362 25.7304 32.8508 25.5533 33.0279C25.3761 33.2051 25.1616 33.3403 24.9254 33.4239C24.6892 33.5074 24.4373 33.537 24.1882 33.5105H21.9205V27.0435ZM26.1198 42.3291C26.1463 42.5782 26.1167 42.8301 26.0332 43.0663C25.9497 43.3025 25.8144 43.5171 25.6373 43.6942C25.4601 43.8714 25.2456 44.0066 25.0094 44.0901C24.7732 44.1736 24.5213 44.2033 24.2721 44.1768H21.9205V36.87H24.2721C24.5213 36.8435 24.7732 36.8731 25.0094 36.9566C25.2456 37.0401 25.4601 37.1754 25.6373 37.3526C25.8144 37.5297 25.9497 37.7442 26.0332 37.9804C26.1167 38.2166 26.1463 38.4685 26.1198 38.7177V42.3291Z" style=""/>
    <path d="M45.1008 23.6001H41.1534V42.1611C41.1534 43.8409 40.3975 44.3448 39.0537 44.3448C37.71 44.3448 36.9541 43.8409 36.9541 42.1611V23.6001H33.0067V42.833C33.0067 46.6124 35.3583 47.8722 38.9698 47.8722H39.1377C42.7492 47.8722 45.1008 46.5284 45.1008 42.833V23.6001Z" style=""/>
    <path d="M52.4916 23.6001H48.5443V47.6203H52.4916V23.6001Z" style=""/>
    <path d="M66.2654 44.0928H60.1344V23.6001H56.103V47.6203H66.2654V44.0928Z" style=""/>
    <path d="M74.4961 23.6001H68.3651V47.6203H74.4961C78.1075 47.6203 80.5431 46.1925 80.5431 42.5811V28.7233C80.5431 25.0279 78.1915 23.6001 74.4961 23.6001ZM76.5957 41.9092C76.6414 42.2064 76.6165 42.5102 76.5229 42.796C76.4293 43.0818 76.2698 43.3416 76.0571 43.5542C75.8445 43.7668 75.5847 43.9264 75.2989 44.02C75.0131 44.1136 74.7093 44.1385 74.4121 44.0928H72.4384V27.0436H74.4541C75.7979 27.0436 76.6377 27.5475 76.6377 29.2272L76.5957 41.9092Z" style=""/>
    <path d="M90.0756 23.3481H89.8236C86.2122 23.3481 83.7766 24.7759 83.7766 28.3873V42.833C83.7766 46.4444 86.2122 47.8722 89.8236 47.8722H90.0756C93.687 47.8722 96.1226 46.4444 96.1226 42.833V28.3873C96.0806 24.7759 93.645 23.3481 90.0756 23.3481ZM92.1753 42.2451C92.221 42.5424 92.196 42.8462 92.1025 43.132C92.0089 43.4178 91.8493 43.6775 91.6367 43.8902C91.424 44.1028 91.1643 44.2624 90.8785 44.3559C90.5927 44.4495 90.2889 44.4745 89.9916 44.4288C88.6478 44.4288 87.808 43.9249 87.808 42.2451V29.034C87.7623 28.7368 87.7872 28.433 87.8808 28.1472C87.9744 27.8614 88.1339 27.6017 88.3466 27.389C88.5592 27.1764 88.819 27.0168 89.1048 26.9232C89.3906 26.8296 89.6944 26.8047 89.9916 26.8504C91.3354 26.8504 92.1753 27.3543 92.1753 29.034V42.2451Z" style=""/>
    <path d="M109.854 23.6001H97.8443V27.1275H101.876V47.6203H105.823V27.1275H109.854V23.6001Z" style=""/>
    <path d="M123.208 32.167V28.1945C123.208 24.667 120.605 23.2393 117.329 23.2393H117.245C113.97 23.2393 111.366 24.583 111.366 28.1945V31.386C111.366 33.9055 112.71 34.9974 115.062 36.3412L117.833 37.9369C118.333 38.1323 118.757 38.4821 119.044 38.9352C119.331 39.3884 119.466 39.9214 119.429 40.4565V42.3042C119.468 42.5891 119.44 42.8791 119.349 43.1516C119.257 43.424 119.103 43.6716 118.9 43.8749C118.697 44.0782 118.449 44.2318 118.177 44.3235C117.904 44.4153 117.614 44.4428 117.329 44.4039C117.047 44.4282 116.764 44.3906 116.498 44.2936C116.232 44.1967 115.991 44.0428 115.791 43.8428C115.591 43.6428 115.437 43.4014 115.34 43.1356C115.243 42.8698 115.205 42.5861 115.23 42.3042V38.6928H111.282V42.8921C111.282 46.6715 113.55 47.9313 117.245 47.9313H117.329C120.941 47.9313 123.292 46.5875 123.292 42.8921V39.4487C123.292 36.8451 121.948 35.8372 119.597 34.4935L116.741 32.8977C115.649 32.2258 115.23 31.7219 115.23 30.4621V28.7824C115.23 28.2478 115.442 27.7351 115.82 27.3571C116.198 26.9791 116.711 26.7667 117.245 26.7667C117.78 26.7667 118.293 26.9791 118.671 27.3571C119.049 27.7351 119.261 28.2478 119.261 28.7824V32.1418L123.208 32.167Z" style=""/>
    <path d="M123.88 9.23828H16.7133V13.6896H123.88V9.23828Z" style=""/>
    <path d="M123.88 57.6987H16.7133V62.15H123.88V57.6987Z" style=""/>
    <path d="M4.45129 26.0356H0V45.3526H4.45129V26.0356Z" style=""/>
    <path d="M140.677 26.0356H136.226V45.3526H140.677V26.0356Z" style=""/>
    <path d="M150 9.23852H140.677V0H136.226V9.23852H126.988V13.6898H136.226V23.0123H140.677V13.6898H150V9.23852Z" style=""/>
  </g>
</svg>