<svg xmlns="http://www.w3.org/2000/svg" viewBox="0 0 96.69 33.53"><path d="M3.81,26a1.63,1.63,0,0,1,1.12.35,1.18,1.18,0,0,1,.4,1,1.61,1.61,0,0,1-.2.8,1.07,1.07,0,0,1-.67.46h0a.7.7,0,0,1,.36.14.8.8,0,0,1,.22.23,1,1,0,0,1,.11.31,2,2,0,0,1,.06.35v.74a2.21,2.21,0,0,0,.08.35,1.18,1.18,0,0,0,.16.29H4.71a.58.58,0,0,1-.1-.21,1.5,1.5,0,0,1,0-.3V30.1a2.2,2.2,0,0,0-.05-.37,3.4,3.4,0,0,0-.07-.34.59.59,0,0,0-.13-.29.52.52,0,0,0-.24-.2,1,1,0,0,0-.37-.13H2.13v2.14H1.46v-5ZM4,28.22a1.18,1.18,0,0,0,.37-.14.72.72,0,0,0,.25-.27,1,1,0,0,0-.11-1,.82.82,0,0,0-.68-.24H2.13v1.74H3.51Z" style="fill:#5484c2"/><path d="M7.84,27.46a2.47,2.47,0,0,1,.45-.83A2,2,0,0,1,9,26.05a2.54,2.54,0,0,1,2.09,0,2,2,0,0,1,.75.58,2.31,2.31,0,0,1,.45.83,3.37,3.37,0,0,1,.15,1,3.41,3.41,0,0,1-.15,1,2.53,2.53,0,0,1-.45.84,2.23,2.23,0,0,1-.75.57,2.62,2.62,0,0,1-2.09,0,2.13,2.13,0,0,1-.79-.6,2.73,2.73,0,0,1-.45-.84,3.41,3.41,0,0,1-.15-1A3.55,3.55,0,0,1,7.84,27.46Zm.61,1.73a2.1,2.1,0,0,0,.31.66,1.66,1.66,0,0,0,.54.48,2,2,0,0,0,1.57,0,1.56,1.56,0,0,0,.54-.48,2.1,2.1,0,0,0,.31-.66,3.12,3.12,0,0,0,.09-.74,3.08,3.08,0,0,0-.09-.75,2.22,2.22,0,0,0-.31-.66,1.44,1.44,0,0,0-.54-.47,1.8,1.8,0,0,0-1.57,0,1.52,1.52,0,0,0-.54.47,2.22,2.22,0,0,0-.31.66,3.08,3.08,0,0,0-.09.75A3.12,3.12,0,0,0,8.45,29.19Z" style="fill:#5484c2"/><path d="M16.82,26h.71a1.86,1.86,0,0,1,.34.06.52.52,0,0,1,.27.1,1.18,1.18,0,0,1,.42.41,1.07,1.07,0,0,1,.17.63,1.22,1.22,0,0,1-.19.69,1.07,1.07,0,0,1-.55.43h0a1.07,1.07,0,0,1,.71.42,1.21,1.21,0,0,1,.24.78,1.39,1.39,0,0,1-.1.53,1.24,1.24,0,0,1-.29.46,1.56,1.56,0,0,1-.47.32,1.65,1.65,0,0,1-.66.13H15v-5ZM17,28.1a1.37,1.37,0,0,0,.82-.2.78.78,0,0,0,.25-.6.76.76,0,0,0-.09-.42.53.53,0,0,0-.23-.24.8.8,0,0,0-.34-.11H15.67v1.59Zm.34,2.29a1,1,0,0,0,.69-.24.91.91,0,0,0,.25-.66.72.72,0,0,0-.1-.41.64.64,0,0,0-.24-.25.83.83,0,0,0-.34-.13,1.41,1.41,0,0,0-.41,0H15.67v1.73Z" style="fill:#5484c2"/><path d="M21.39,27.46a2.47,2.47,0,0,1,.45-.83,2,2,0,0,1,.75-.58,2.52,2.52,0,0,1,2.08,0,2,2,0,0,1,.75.58,2.31,2.31,0,0,1,.45.83,3.37,3.37,0,0,1,.15,1,3.41,3.41,0,0,1-.15,1,2.53,2.53,0,0,1-.45.84,2.23,2.23,0,0,1-.75.57,2.6,2.6,0,0,1-2.08,0,2.33,2.33,0,0,1-.75-.57,2.73,2.73,0,0,1-.45-.84,3.41,3.41,0,0,1-.15-1A3.37,3.37,0,0,1,21.39,27.46ZM22,29.19a1.82,1.82,0,0,0,.31.66,1.66,1.66,0,0,0,.54.48,1.93,1.93,0,0,0,1.56,0,1.56,1.56,0,0,0,.54-.48,1.82,1.82,0,0,0,.31-.66,2.83,2.83,0,0,0,0-1.49A2,2,0,0,0,25,27a1.44,1.44,0,0,0-.54-.47,1.78,1.78,0,0,0-1.56,0,1.52,1.52,0,0,0-.54.47,2,2,0,0,0-.31.66,2.83,2.83,0,0,0,0,1.49Z" style="fill:#5484c2"/><path d="M28,26.51V26h4v.56H30.35V31h-.66V26.51Z" style="fill:#5484c2"/><path d="M35,26v5h-.67V26Z" style="fill:#5484c2"/><path d="M40.83,26.66a1.45,1.45,0,0,0-.9-.27,1.58,1.58,0,0,0-.77.17,1.44,1.44,0,0,0-.53.45,2.14,2.14,0,0,0-.3.65,2.66,2.66,0,0,0-.1.75,3.21,3.21,0,0,0,.1.81,2.12,2.12,0,0,0,.3.67,1.65,1.65,0,0,0,.53.45,1.87,1.87,0,0,0,.77.16,1.7,1.7,0,0,0,.59-.1,1.9,1.9,0,0,0,.44-.3,1.7,1.7,0,0,0,.29-.46,1.94,1.94,0,0,0,.12-.58H42a2.28,2.28,0,0,1-.65,1.47,2.09,2.09,0,0,1-1.51.53,2.66,2.66,0,0,1-1-.2,2.16,2.16,0,0,1-.72-.55,2.44,2.44,0,0,1-.43-.83,3.4,3.4,0,0,1-.14-1,3.37,3.37,0,0,1,.15-1,2.35,2.35,0,0,1,.45-.84,1.85,1.85,0,0,1,.74-.56,2.2,2.2,0,0,1,1-.21,2.38,2.38,0,0,1,.75.1,2.12,2.12,0,0,1,.62.31,1.84,1.84,0,0,1,.45.51,1.72,1.72,0,0,1,.24.7h-.66A1.19,1.19,0,0,0,40.83,26.66Z" style="fill:#5484c2"/><path d="M47.08,26.63a1.36,1.36,0,0,0-.85-.24,1.41,1.41,0,0,0-.41,0,.93.93,0,0,0-.36.14.69.69,0,0,0-.25.26.72.72,0,0,0-.1.41.59.59,0,0,0,.14.38,1.05,1.05,0,0,0,.36.23,4.44,4.44,0,0,0,.52.15l.58.13a4,4,0,0,1,.59.17,2,2,0,0,1,.51.25,1.32,1.32,0,0,1,.37.41,1.18,1.18,0,0,1,.13.61,1.21,1.21,0,0,1-.18.69,1.52,1.52,0,0,1-.45.46,2.33,2.33,0,0,1-.63.26,4.06,4.06,0,0,1-.69.08,3.09,3.09,0,0,1-.8-.11,1.72,1.72,0,0,1-.65-.32,1.57,1.57,0,0,1-.45-.54,1.81,1.81,0,0,1-.17-.79h.63a1,1,0,0,0,.13.54,1.44,1.44,0,0,0,.32.38,1.62,1.62,0,0,0,.46.22,2.57,2.57,0,0,0,.55.06h.45a1.17,1.17,0,0,0,.41-.14,1,1,0,0,0,.3-.28.78.78,0,0,0,.11-.44.6.6,0,0,0-.14-.43,1,1,0,0,0-.36-.26,2,2,0,0,0-.52-.16l-.58-.13-.59-.16a2,2,0,0,1-.51-.23,1.3,1.3,0,0,1-.37-.37,1.16,1.16,0,0,1-.13-.57,1.32,1.32,0,0,1,.15-.65,1.22,1.22,0,0,1,.41-.46,1.78,1.78,0,0,1,.58-.26,2.52,2.52,0,0,1,.67-.09,2.19,2.19,0,0,1,.72.09,1.4,1.4,0,0,1,.57.29,1.18,1.18,0,0,1,.39.49,1.71,1.71,0,0,1,.16.71h-.63A1,1,0,0,0,47.08,26.63Z" style="fill:#5484c2"/><path d="M41.1,9.49h5.28S29.61-4.17,17,1.77C26.49.52,35.09,5.77,41.1,9.49Z" style="fill:#27345c;stroke:#27345c;stroke-linecap:round;stroke-linejoin:round;stroke-width:0.5400000214576721px"/><path d="M55.73,24.05H50.44S67.25,37.7,79.87,31.77C70.34,33,61.74,27.77,55.73,24.05Z" style="fill:#27345c;stroke:#27345c;stroke-linecap:round;stroke-linejoin:round;stroke-width:0.5400000214576721px"/><path d="M0,17H0a5.07,5.07,0,0,1,5-5.14h.1a5,5,0,0,1,3.45,1.23,1.05,1.05,0,0,1,.35.78,1,1,0,0,1-1,1,1.23,1.23,0,0,1-.67-.23,3.15,3.15,0,0,0-2.1-.84,3,3,0,0,0-2.9,3.09v0h0a3,3,0,0,0,2.8,3.18h.2a3.29,3.29,0,0,0,2.19-.88A.94.94,0,0,1,8.06,19a1,1,0,0,1,1,1,.9.9,0,0,1-.32.71,4.85,4.85,0,0,1-3.57,1.39A5,5,0,0,1,0,17.28Z" style="fill:#5d5d73"/><path d="M10.52,19.05h0c0-2.12,1.66-3.17,4.06-3.17a8.2,8.2,0,0,1,2.65.41v-.24c0-1.39-.86-2.14-2.44-2.14a5.84,5.84,0,0,0-2.18.39,2,2,0,0,1-.35.06.94.94,0,0,1-1-.86v-.07a1,1,0,0,1,.61-.9A8.39,8.39,0,0,1,15,12a4.42,4.42,0,0,1,3.26,1.09,4.11,4.11,0,0,1,1.06,3v4.84A1.07,1.07,0,0,1,18.3,22h0a1,1,0,0,1-1.1-.9v-.42A4,4,0,0,1,14,22.08C12.16,22.08,10.52,21,10.52,19.05Zm6.73-.71v-.67A6.15,6.15,0,0,0,15,17.28c-1.45,0-2.31.61-2.31,1.64h0c0,.94.84,1.49,1.92,1.49C16.13,20.45,17.25,19.59,17.25,18.34Z" style="fill:#5d5d73"/><path d="M22.11,13.07a1.1,1.1,0,0,1,1.08-1.14h.06a1.12,1.12,0,0,1,1.14,1.12v1a3.11,3.11,0,0,1,2.48-2.16,1,1,0,0,1,1.11.87A1,1,0,0,1,28,13a1.05,1.05,0,0,1-.89,1.08c-1.6.28-2.7,1.51-2.7,3.84v2.9A1.12,1.12,0,0,1,23.28,22h0a1.11,1.11,0,0,1-1.11-1.09v0Z" style="fill:#5d5d73"/><path d="M34,22.1a4.91,4.91,0,0,1-5-4.8V17h0a4.89,4.89,0,0,1,4.65-5.12h.16a4.63,4.63,0,0,1,4.67,4.62,1.62,1.62,0,0,1,0,.22,1,1,0,0,1-.94,1.05H31.18A2.75,2.75,0,0,0,34,20.27a3.6,3.6,0,0,0,2.33-.86.8.8,0,0,1,.57-.2.88.88,0,0,1,.9.88v0a1,1,0,0,1-.3.69A5.07,5.07,0,0,1,34,22.1Zm2.28-5.83a2.55,2.55,0,0,0-2.49-2.59,2.66,2.66,0,0,0-2.55,2.59Z" style="fill:#5d5d73"/><path d="M44.77,22H44.7a.88.88,0,0,1-.82-.62l-3.63-8.15a2.74,2.74,0,0,1-.09-.39.72.72,0,0,1,.73-.71h0a.72.72,0,0,1,.72.56l3.11,7.52,3.17-7.56a.67.67,0,0,1,.67-.52.71.71,0,0,1,.71.71.85.85,0,0,1-.08.35l-3.63,8.19A.87.87,0,0,1,44.77,22Z" style="fill:#5d5d73"/><path d="M50.66,19.09h0c0-2,1.67-3.11,4.11-3.11a9.79,9.79,0,0,1,3,.41v-.34c0-1.73-1.06-2.62-2.86-2.62a5.86,5.86,0,0,0-2.5.54,1.09,1.09,0,0,1-.26,0,.63.63,0,0,1-.63-.61.65.65,0,0,1,.39-.6,7.55,7.55,0,0,1,3.14-.65,4.18,4.18,0,0,1,3.11,1.06,3.73,3.73,0,0,1,1,2.81V21.3a.68.68,0,0,1-.65.71h0a.67.67,0,0,1-.69-.63v-.91a4.25,4.25,0,0,1-3.53,1.61C52.46,22.08,50.66,21.06,50.66,19.09Zm7.09-.75v-.93A10,10,0,0,0,54.92,17c-1.8,0-2.81.78-2.81,2h0c0,1.21,1.12,1.92,2.42,1.92C56.3,21,57.75,19.87,57.75,18.34Z" style="fill:#5d5d73"/><path d="M62.58,19.33V13.52h-.79a.67.67,0,0,1-.63-.64.64.64,0,0,1,.63-.63h.79V10a.71.71,0,0,1,.69-.73h0A.75.75,0,0,1,64,10v2.27h2.5a.64.64,0,1,1,0,1.27H64v5.62a1.43,1.43,0,0,0,1.18,1.63,1.62,1.62,0,0,0,.44,0,5.19,5.19,0,0,0,.88-.13.61.61,0,0,1,.61.62.63.63,0,0,1-.41.56,4,4,0,0,1-1.42.26,2.45,2.45,0,0,1-2.71-2.16A2.33,2.33,0,0,1,62.58,19.33Z" style="fill:#5d5d73"/><path d="M77.85,21.25a.71.71,0,1,1-1.42,0h0V20.2a3.65,3.65,0,0,1-3.3,1.88,3.52,3.52,0,0,1-3.69-3.32,3.11,3.11,0,0,1,0-.53V12.88a.69.69,0,0,1,.66-.72h0a.71.71,0,0,1,.73.71h0v5a2.58,2.58,0,0,0,2.66,2.9A2.86,2.86,0,0,0,76.43,18a1.21,1.21,0,0,0,0-.19v-4.9a.7.7,0,0,1,.68-.72h0a.71.71,0,0,1,.71.71h0Z" style="fill:#5d5d73"/><path d="M81.07,12.88a.71.71,0,0,1,.7-.72h0a.7.7,0,0,1,.72.68v1.85a4,4,0,0,1,3.32-2.57.68.68,0,0,1,.7.68v0a.71.71,0,0,1-.63.72C84,13.8,82.5,15.19,82.5,18v3.28a.72.72,0,0,1-.63.8.73.73,0,0,1-.8-.63.48.48,0,0,1,0-.17Z" style="fill:#5d5d73"/><path d="M92.41,22.1a4.78,4.78,0,0,1-4.8-4.76V17.1h0a4.75,4.75,0,0,1,4.47-5h.14c2.85,0,4.47,2.32,4.47,4.87a.67.67,0,0,1-.66.68H89a3.36,3.36,0,0,0,3.39,3.25,4,4,0,0,0,2.84-1.13.58.58,0,0,1,.41-.17.61.61,0,0,1,.41,1.08A4.89,4.89,0,0,1,92.41,22.1Zm2.84-5.57c-.15-1.75-1.16-3.27-3.07-3.27a3.31,3.31,0,0,0-3.13,3.27Z" style="fill:#5d5d73"/><path d="M.91,10.77A5.06,5.06,0,0,1,4.33,9.49a6.23,6.23,0,0,1,1.22.12A25.51,25.51,0,0,1,15.73,2.1C14.87,2.15,5.43,3,.91,10.77Z" style="fill:#5484c2;stroke:#5484c2;stroke-linecap:round;stroke-linejoin:round;stroke-width:0.5400000214576721px"/><path d="M93.17,24.05a6.16,6.16,0,0,1-1.28-.17,29.43,29.43,0,0,1-10.81,7.55,20.71,20.71,0,0,0,14.83-7.91h-.39A5.15,5.15,0,0,1,93.17,24.05Z" style="fill:#5484c2;stroke:#5484c2;stroke-linecap:round;stroke-linejoin:round;stroke-width:0.5400000214576721px"/></svg>