<?xml version="1.0" encoding="utf-8"?>
<svg viewBox="122.939 182.742 219.999 32.799" xmlns="http://www.w3.org/2000/svg">
  <path d="M 174.005 185.502 L 174.005 196.021 C 172.499 194.59 170.453 193.709 168.197 193.709 C 163.576 193.709 159.829 197.399 159.829 201.951 C 159.829 206.503 163.576 210.194 168.197 210.194 C 172.626 210.194 176.25 206.802 176.542 202.512 L 176.564 202.54 L 176.564 185.502 L 174.005 185.502 Z M 168.197 207.672 C 164.988 207.672 162.389 205.112 162.389 201.951 C 162.389 198.791 164.988 196.23 168.197 196.23 C 171.405 196.23 174.005 198.791 174.005 201.951 C 174.005 205.112 171.405 207.672 168.197 207.672 Z" style=""/>
  <path d="M 226.207 193.709 C 221.777 193.709 218.154 197.1 217.861 201.391 L 217.839 201.362 L 217.839 215.541 L 220.399 215.541 L 220.399 207.881 C 221.904 209.312 223.951 210.193 226.207 210.193 C 230.828 210.193 234.575 206.503 234.575 201.951 C 234.575 197.399 230.828 193.709 226.207 193.709 Z M 226.207 207.672 C 222.998 207.672 220.399 205.112 220.399 201.951 C 220.399 198.791 222.998 196.23 226.207 196.23 C 229.416 196.23 232.015 198.791 232.015 201.951 C 232.015 205.112 229.416 207.672 226.207 207.672 Z" style=""/>
  <path d="M 187.902 193.734 C 183.294 193.734 179.559 197.414 179.559 201.953 C 179.559 206.491 183.294 210.171 187.902 210.171 C 190.454 210.171 192.739 209.041 194.268 207.261 L 192.746 205.533 C 191.642 206.981 189.883 207.918 187.902 207.918 C 184.818 207.918 182.274 205.647 181.895 202.711 L 195.537 202.711 C 195.56 202.46 195.575 202.208 195.575 201.953 C 195.575 197.414 192.51 193.734 187.902 193.734 Z M 182.024 200.515 C 182.678 197.915 185.061 195.987 187.904 195.987 C 190.747 195.987 192.46 197.915 193.112 200.515 L 182.024 200.515 Z" style=""/>
  <path d="M 206.743 193.734 C 202.135 193.734 198.4 197.414 198.4 201.953 C 198.4 206.491 202.135 210.171 206.743 210.171 C 209.296 210.171 211.581 209.041 213.109 207.261 L 211.587 205.533 C 210.483 206.981 208.725 207.918 206.743 207.918 C 203.659 207.918 201.116 205.647 200.736 202.711 L 214.379 202.711 C 214.401 202.46 214.417 202.208 214.417 201.953 C 214.417 197.414 211.351 193.734 206.743 193.734 Z M 200.866 200.515 C 201.52 197.915 203.902 195.987 206.745 195.987 C 209.588 195.987 211.302 197.915 211.953 200.515 L 200.866 200.515 Z" style=""/>
  <path d="M 269.692 200.148 L 269.692 210.002 L 268.707 210.002 L 268.707 200.148 C 268.707 198.641 268.275 197.423 267.411 196.498 C 266.548 195.572 265.393 195.109 263.95 195.109 C 262.462 195.109 261.239 195.583 260.278 196.531 C 259.316 197.478 258.834 198.685 258.834 200.148 L 258.834 210.002 L 257.85 210.002 L 257.85 185.77 L 258.834 185.77 L 258.834 196.981 C 259.905 195.106 261.623 194.17 263.984 194.17 C 265.733 194.17 267.12 194.72 268.149 195.819 C 269.179 196.917 269.692 198.359 269.692 200.148 Z" style=""/>
  <path d="M 309.872 210.002 L 309.872 185.77 L 310.857 185.77 L 310.857 210.002 L 309.872 210.002 Z M 312.825 201.311 L 321.156 210.002 L 319.844 210.002 L 311.479 201.278 L 318.99 194.493 L 320.4 194.493 L 312.825 201.311 Z" style=""/>
  <path d="M 322.96 206.637 L 323.747 206.054 C 325.191 208.079 326.916 209.092 328.931 209.092 C 330.09 209.092 331.035 208.817 331.767 208.267 C 332.499 207.718 332.865 206.949 332.865 205.957 C 332.798 205.032 332.515 204.342 332.014 203.889 C 331.509 203.437 330.601 202.92 329.289 202.337 L 327.914 201.724 C 326.579 201.142 325.605 200.562 324.995 199.979 C 324.383 199.397 324.075 198.643 324.075 197.717 C 324.075 196.533 324.545 195.607 325.486 194.939 C 326.425 194.229 327.551 193.873 328.863 193.873 C 330.809 193.873 332.461 194.702 333.817 196.361 L 333.097 197.007 C 331.849 195.544 330.417 194.809 328.799 194.809 C 327.751 194.809 326.875 195.062 326.175 195.568 C 325.476 196.073 325.127 196.779 325.127 197.684 C 325.148 198.051 325.219 198.368 325.341 198.638 C 325.461 198.909 325.563 199.117 325.653 199.269 C 325.739 199.421 325.976 199.608 326.357 199.834 C 326.739 200.06 327.013 200.212 327.177 200.287 C 327.341 200.361 327.761 200.562 328.439 200.885 L 329.915 201.531 C 331.271 202.113 332.276 202.726 332.932 203.373 C 333.587 204.019 333.915 204.858 333.915 205.894 C 333.915 207.186 333.423 208.199 332.439 208.931 C 331.477 209.663 330.285 210.03 328.863 210.03 C 326.413 210.03 324.446 208.898 322.96 206.637 Z" style=""/>
  <path d="M 253.367 206.514 C 252.039 208.081 250.045 209.077 247.811 209.077 C 243.817 209.077 240.579 205.887 240.579 201.953 C 240.579 198.019 243.817 194.829 247.811 194.829 C 250.031 194.829 252.017 195.816 253.345 197.368 L 254.063 196.772 C 252.564 195.021 250.321 193.906 247.813 193.906 C 243.299 193.906 239.642 197.511 239.642 201.955 C 239.642 206.402 243.302 210.004 247.813 210.004 C 250.341 210.004 252.602 208.872 254.099 207.096 L 253.367 206.514 Z" style=""/>
  <path d="M 305.335 206.514 C 304.006 208.081 302.011 209.077 299.779 209.077 C 295.784 209.077 292.547 205.887 292.547 201.953 C 292.547 198.019 295.784 194.829 299.779 194.829 C 301.999 194.829 303.985 195.816 305.312 197.368 L 306.03 196.772 C 304.532 195.021 302.289 193.906 299.78 193.906 C 295.267 193.906 291.609 197.511 291.609 201.955 C 291.609 206.402 295.269 210.004 299.78 210.004 C 302.309 210.004 304.568 208.872 306.066 207.096 L 305.335 206.514 Z" style=""/>
  <path d="M 281.283 193.9 C 276.769 193.9 273.111 197.505 273.111 201.949 C 273.111 206.394 276.771 209.998 281.283 209.998 C 283.823 209.998 286.091 208.857 287.591 207.066 L 286.873 206.438 C 285.55 208.033 283.537 209.053 281.283 209.053 C 277.3 209.053 274.072 205.873 274.072 201.949 L 288.562 201.949 C 288.562 197.505 285.795 193.9 281.283 193.9 Z M 274.13 201.061 C 274.573 197.558 277.606 194.846 281.283 194.846 C 284.96 194.846 287.1 197.558 287.544 201.061 L 274.13 201.061 Z" style=""/>
  <path d="M 130.425 197.78 L 130.447 197.809 C 130.742 193.519 134.363 190.127 138.792 190.127 C 138.794 190.127 138.797 190.127 138.797 190.127 C 138.799 190.127 138.801 190.127 138.801 190.127 C 141.057 190.127 143.105 191.009 144.609 192.44 L 144.609 183.828 C 142.813 183.129 140.854 182.742 138.803 182.742 C 130.041 182.742 122.939 189.738 122.939 198.37 C 122.939 203.97 125.931 208.88 130.425 211.639 L 130.425 197.78 Z" style=""/>
  <path d="M 147.17 185.094 L 147.17 198.961 L 147.148 198.932 C 146.855 203.222 143.232 206.614 138.803 206.614 C 138.8 206.614 138.798 206.614 138.798 206.614 C 138.796 206.614 138.794 206.614 138.794 206.614 C 136.538 206.614 134.489 205.733 132.986 204.302 L 132.986 212.911 C 134.788 213.612 136.75 214.001 138.805 214.001 C 147.567 214.001 154.669 207.005 154.669 198.374 C 154.669 192.765 151.671 187.852 147.17 185.094 Z" style=""/>
  <path d="M 143.645 195.211 C 143.594 195.477 143.5 195.739 143.355 195.985 C 142.661 197.17 141.126 197.574 139.924 196.89 C 138.721 196.207 138.31 194.695 139.004 193.51 C 139.194 193.187 139.448 192.923 139.738 192.723 C 139.435 192.675 139.122 192.648 138.803 192.648 C 135.595 192.648 132.995 195.209 132.995 198.37 C 132.995 201.53 135.597 204.091 138.803 204.091 C 142.01 204.091 144.612 201.53 144.612 198.37 C 144.612 197.203 144.257 196.117 143.645 195.211 Z" style=""/>
  <path d="M 340.426 210.03 C 341.812 210.03 342.938 208.922 342.938 207.555 C 342.938 206.188 341.812 205.08 340.426 205.08 C 339.038 205.08 337.912 206.188 337.912 207.555 C 337.912 208.922 339.038 210.03 340.426 210.03 Z" style=""/>
</svg>