<?xml version="1.0" encoding="UTF-8"?> <svg xmlns="http://www.w3.org/2000/svg" width="62" height="62" viewBox="0 0 62 62" fill="none"><path fill-rule="evenodd" clip-rule="evenodd" d="M24 18C24 19.1046 23.1046 20 22 20C21.3538 20 20.7791 19.6935 20.4135 19.218H15.75V42.8062H20.3952C20.7598 42.3169 21.3429 42 22 42C23.1046 42 24 42.8954 24 44C24 45.1046 23.1046 46 22 46C21.1823 46 20.4792 45.5093 20.1692 44.8062H15.75C14.6454 44.8062 13.75 43.9108 13.75 42.8062V19.218C13.75 18.1134 14.6454 17.218 15.75 17.218H20.1587C20.4631 16.502 21.1729 16 22 16C23.1046 16 24 16.8954 24 18ZM45.4312 44.8068C46.5358 44.8068 47.4312 43.9114 47.4312 42.8068V19.2185C47.4312 18.114 46.5358 17.2185 45.4312 17.2185H40.8416C40.5372 16.5023 39.8273 16 39 16C37.8954 16 37 16.8954 37 18C37 19.1046 37.8954 20 39 20C39.646 20 40.2204 19.6938 40.5861 19.2185H45.4312V42.8068H40.6052C40.2407 42.3172 39.6574 42 39 42C37.8954 42 37 42.8954 37 44C37 45.1046 37.8954 46 39 46C39.8175 46 40.5204 45.5095 40.8306 44.8068H45.4312Z" fill="#24C2CE"></path><path d="M36.1348 26.7354C36.1348 30.1676 33.686 32.7436 30.9053 32.7436C28.1246 32.7436 25.6758 30.1676 25.6758 26.7354C25.6758 25.0528 26.2756 23.7641 27.19 22.8933C28.1119 22.0154 29.4136 21.5059 30.9053 21.5059C32.397 21.5059 33.6987 22.0154 34.6206 22.8933C35.535 23.7641 36.1348 25.0528 36.1348 26.7354Z" stroke="#24C2CE" stroke-width="2"></path><path fill-rule="evenodd" clip-rule="evenodd" d="M26.6341 31.4316L19.9062 34.7956V38.0251C19.9062 39.6819 21.2494 41.0251 22.9062 41.0251H38.7095C40.3664 41.0251 41.7095 39.6819 41.7095 38.0251V34.7956L34.9825 31.4321C34.4405 31.9828 33.8121 32.4278 33.1228 32.7383L39.7095 36.0316V38.0251C39.7095 38.5774 39.2618 39.0251 38.7095 39.0251H22.9062C22.354 39.0251 21.9062 38.5774 21.9062 38.0251V36.0316L28.4936 32.738C27.8044 32.4274 27.176 31.9824 26.6341 31.4316Z" fill="#24C2CE"></path></svg> 