<?xml version="1.0" encoding="utf-8"?>
<svg viewBox="27.876 191.897 135.933 139.854" xmlns="http://www.w3.org/2000/svg">
  <path class="st1" d="M 145.318 153.578 C 145.318 154.268 144.758 154.838 144.058 154.838 C 143.368 154.838 142.798 154.278 142.798 153.578 C 142.798 152.888 143.358 152.318 144.058 152.318 C 144.758 152.318 145.318 152.878 145.318 153.578 Z" style="fill: rgb(239, 19, 133);" transform="matrix(2.001229, 0, 0, 2.001229, -145.828735, -112.926231)"/>
  <path class="st1" d="M 143.914 165.154 C 143.914 167.374 142.114 169.184 139.894 169.184 C 137.674 169.184 135.864 167.384 135.864 165.154 C 135.864 162.934 137.664 161.124 139.894 161.124 C 142.104 161.134 143.914 162.934 143.914 165.154 Z" style="fill: rgb(239, 19, 133);" transform="matrix(2.001229, 0, 0, 2.001229, -145.828735, -112.926231)"/>
  <path class="st1" d="M 154.724 162.564 C 154.724 164.094 153.484 165.334 151.954 165.334 C 150.424 165.334 149.184 164.094 149.184 162.564 C 149.184 161.034 150.424 159.794 151.954 159.794 C 153.494 159.804 154.724 161.034 154.724 162.564 Z" style="fill: rgb(239, 19, 133);" transform="matrix(2.001229, 0, 0, 2.001229, -145.828735, -112.926231)"/>
  <path class="st1" d="M 115.712 219.762 C 115.712 221.112 116.802 222.202 118.152 222.202 C 119.502 222.202 120.592 221.112 120.592 219.762 C 120.592 218.412 119.502 217.322 118.152 217.322 C 116.802 217.312 115.712 218.412 115.712 219.762 Z" style="fill: rgb(239, 19, 133);" transform="matrix(2.001229, 0, 0, 2.001229, -145.828735, -112.926231)"/>
  <path class="st1" d="M 130.944 216.4 C 130.944 217.83 129.784 218.99 128.354 218.99 C 126.924 218.99 125.764 217.83 125.764 216.4 L 125.764 213.625 C 125.527 212.439 124.48 211.544 123.224 211.544 C 121.928 211.544 120.854 212.496 120.664 213.739 L 120.664 214.115 C 120.664 215.545 119.504 216.705 118.074 216.705 C 116.644 216.705 115.484 215.545 115.484 214.115 L 115.484 212.066 L 115.454 212.054 C 115.454 210.624 114.294 209.464 112.864 209.464 C 111.434 209.464 110.274 210.624 110.274 212.054 L 110.274 213.303 L 110.315 218.495 C 110.315 219.925 109.155 221.085 107.725 221.085 C 106.295 221.085 105.135 219.925 105.135 218.495 L 105.1 214.121 C 103.799 213.576 102.539 212.94 101.329 212.219 C 101.309 212.214 101.29 212.207 101.275 212.198 C 92.603 206.999 86.799 197.515 86.799 186.677 C 86.799 170.25 100.133 156.933 116.581 156.933 C 133.029 156.933 146.363 170.25 146.363 186.677 C 146.363 197.903 140.136 207.676 130.944 212.739 Z" style="fill: rgb(239, 19, 133);" transform="matrix(2.001229, 0, 0, 2.001229, -145.828735, -112.926231)"/>
</svg>