<?xml version="1.0" encoding="UTF-8"?>
<svg xmlns="http://www.w3.org/2000/svg" width="126" height="22" viewBox="0 0 126 22" fill="none">
  <g clip-path="url(#clip0_10060_6744)">
    <g clip-path="url(#clip1_10060_6744)">
      <path d="M102.24 5.53228H99.1456L104.457 11.3331L98.6899 17.6032H101.716L105.987 12.9448L110.203 17.6032H113.311L107.531 11.3195L112.842 5.53908H109.816L106.014 9.7078L102.233 5.53908L102.24 5.53228ZM85.9662 5.53228V17.6032H97.6495V15.4678H88.4075V12.4756H96.6906V10.3607H88.4075V7.67445H97.6495V5.53908H85.9662V5.53228ZM73.4872 17.6032H84.4428V15.4678H75.9558V5.53228H73.4872V17.6032ZM62.246 11.0679V7.64044H67.1899C68.618 7.64044 69.4613 8.25929 69.4613 9.35417C69.4613 10.4491 68.618 11.0679 67.1899 11.0679H62.246ZM62.246 13.1693H67.3191C70.0734 13.1693 71.8891 11.8432 71.8891 9.35417C71.8891 6.86518 70.0734 5.53908 67.3191 5.53908H59.7706V17.61H62.2392V13.1761L62.246 13.1693ZM50.3042 17.6032L54.677 7.88526V17.6032H57.098V5.53228H53.3849L49.3318 14.577L45.2787 5.53228H41.5112V17.6032H43.9118V7.88526L48.2981 17.6032H50.2974H50.3042ZM38.8998 5.53228H36.4312V17.6032H38.8998V5.53228ZM21.5312 14.9782C22.7077 16.6783 25.564 17.7868 28.4406 17.7868C31.8544 17.7868 34.493 16.4607 34.493 13.8221C34.493 11.1835 32.0721 10.7619 28.6446 10.3743C25.5844 10.0206 24.7819 9.81661 24.7819 8.94614C24.7819 8.13688 25.7544 7.45003 27.9101 7.45003C30.0659 7.45003 31.6776 8.13688 32.6025 9.33377L34.2482 7.75605C33.1533 6.30754 30.7324 5.35547 28.0461 5.35547C24.6187 5.35547 22.3813 6.91959 22.3813 9.20456C22.3813 11.4895 24.6527 12.1492 27.6109 12.4824C31.0044 12.8496 31.9972 12.9516 31.9972 14.0941C31.9972 15.0666 30.5691 15.6719 28.5494 15.6719C26.7676 15.6719 24.5847 15.1006 23.2042 13.2509L21.5381 14.985L21.5312 14.9782Z" fill="#1F3D4D"></path>
      <path d="M121.745 9.24544V6.61364H122.997C123.99 6.61364 124.54 7.13048 124.54 7.92614C124.54 8.7218 123.983 9.23864 123.003 9.23864H121.745V9.24544ZM120.446 10.3675H123.01C124.785 10.3675 125.873 9.41545 125.873 7.93294C125.873 6.45043 124.785 5.49835 123.01 5.49835H120.446V10.3675ZM116.869 10.4491C118.488 10.4491 119.481 9.78268 119.481 8.97342C119.481 8.40218 119.127 8.06215 118.542 7.87174C119.025 7.72212 119.365 7.3481 119.365 6.85166C119.365 6.02199 118.454 5.41675 116.958 5.41675C115.666 5.41675 114.618 5.96759 114.272 6.70885L115.414 7.23249C115.591 6.86526 116.121 6.53203 116.876 6.53203C117.509 6.53203 117.923 6.69525 117.923 6.96727C117.923 7.27329 117.502 7.3889 116.863 7.3889H115.985V8.40898H116.903C117.543 8.40898 118.046 8.51778 118.046 8.85101C118.046 9.18423 117.481 9.34745 116.89 9.34745C116.115 9.34745 115.502 9.01422 115.298 8.55859L114.102 9.10943C114.469 9.89149 115.394 10.4491 116.883 10.4491" fill="#1F3D4D"></path>
      <path d="M17.7035 10.0207L5.21094 2.63536L8.83561 0.5L17.7035 5.7296V10.0207Z" fill="#1F3D4D"></path>
      <path d="M12.5062 19.3442L0 11.952V16.2976L8.86788 21.5L12.5266 19.351L12.5062 19.3374V19.3442ZM17.7358 14.0602L3.52267 5.72957L3.54987 3.63501L0 5.72957V7.91934L14.2063 16.2432L14.1791 18.3445V18.3853L17.729 16.3044V14.0602H17.7358Z" fill="#1F3D4D"></path>
    </g>
  </g>
  <defs>
    <clipPath id="clip0_10060_6744">
      <rect width="125.864" height="21" fill="white" transform="translate(0 0.5)"></rect>
    </clipPath>
    <clipPath id="clip1_10060_6744">
      <rect width="125.864" height="21" fill="white" transform="translate(0 0.5)"></rect>
    </clipPath>
  </defs>
</svg>
