<?xml version="1.0" encoding="utf-8"?>
<svg viewBox="0 0 43 39" xmlns="http://www.w3.org/2000/svg">
  <path d="M 5.9040000438690186 4.7949981689453125 L 18.20400004386902 2.694998168945318 Q 18.20400004386902 5.5449981689453125 17.679000043869017 10.194998168945318 Q 17.15400004386902 14.84499816894531 15.654000043869019 19.71999816894531 Q 14.154000043869019 24.59499816894531 11.529000043869019 28.71999816894531 Q 8.904000043869019 32.84499816894531 4.7040000438690175 34.79499816894531 L 3.054000043869018 34.04499816894531 Q 4.854000043869018 27.444998168945318 5.5290000438690186 22.944998168945318 Q 6.2040000438690175 18.444998168945318 6.2790000438690186 14.319998168945318 Q 6.354000043869018 10.194998168945318 5.9040000438690186 4.7949981689453125 Z M 26.604000043869018 4.7949981689453125 L 39.05400004386902 2.694998168945318 Q 39.05400004386902 5.5449981689453125 38.52900004386902 10.194998168945318 Q 38.00400004386902 14.84499816894531 36.50400004386902 19.71999816894531 Q 35.00400004386902 24.59499816894531 32.37900004386902 28.71999816894531 Q 29.75400004386902 32.84499816894531 25.40400004386902 34.79499816894531 L 23.90400004386902 34.04499816894531 Q 25.554000043869017 27.444998168945318 26.304000043869017 22.944998168945318 Q 27.054000043869017 18.444998168945318 27.129000043869016 14.319998168945318 Q 27.204000043869016 10.194998168945318 26.604000043869018 4.7949981689453125 Z" transform="matrix(1, 0, 0, 1, 0, 0)" style="fill: rgb(206, 225, 0); white-space: pre;"/>
</svg>