<?xml version="1.0" encoding="utf-8"?>
<svg viewBox="41.992 32.094 100.259 89.659" xmlns="http://www.w3.org/2000/svg">
  <path class="st1" d="M 98.987 149.78 C 98.987 150.47 98.427 151.04 97.727 151.04 C 97.037 151.04 96.467 150.48 96.467 149.78 C 96.467 149.09 97.027 148.52 97.727 148.52 C 98.427 148.52 98.987 149.08 98.987 149.78 Z" style="fill: rgb(239, 19, 133);" transform="matrix(5.31595, 0, 0, 5.31595, -433.960907, -757.43103)"/>
  <path class="st1" d="M 97.583 161.356 C 97.583 163.576 95.783 165.386 93.563 165.386 C 91.343 165.386 89.533 163.586 89.533 161.356 C 89.533 159.136 91.333 157.326 93.563 157.326 C 95.773 157.336 97.583 159.136 97.583 161.356 Z" style="fill: rgb(239, 19, 133);" transform="matrix(5.31595, 0, 0, 5.31595, -433.960907, -757.43103)"/>
  <path class="st1" d="M 108.393 158.766 C 108.393 160.296 107.153 161.536 105.623 161.536 C 104.093 161.536 102.853 160.296 102.853 158.766 C 102.853 157.236 104.093 155.996 105.623 155.996 C 107.163 156.006 108.393 157.236 108.393 158.766 Z" style="fill: rgb(239, 19, 133);" transform="matrix(5.31595, 0, 0, 5.31595, -433.960907, -757.43103)"/>
</svg>