<?xml version="1.0" encoding="utf-8"?>
<svg viewBox="25.295 19.175 321.017 87.565" xmlns="http://www.w3.org/2000/svg">
  <defs>
    <style>.cls-1{fill:#ec1a6d;}.cls-2{fill:url(#linear-gradient);}.cls-3{fill:url(#linear-gradient-2);}</style>
  </defs>
  <path class="cls-1" d="M58.19,68.63,55.85,61c-.09-.18-.21-.28-.35-.28H36.79c-.14,0-.26.1-.35.28L34.1,68.63a.88.88,0,0,1-.92.7H26.09a.68.68,0,0,1-.71-1l15.38-47.9a.89.89,0,0,1,.92-.71h8.86a.89.89,0,0,1,.92.71l15.45,47.9a.77.77,0,0,1,.07.36q0,.63-.78.63H59.11A.88.88,0,0,1,58.19,68.63ZM38.92,54.31H53.3c.29,0,.38-.14.29-.42l-7.3-23.74c0-.19-.12-.29-.22-.29s-.16.1-.21.29L38.63,53.89C38.59,54.17,38.68,54.31,38.92,54.31ZM75,67.81a15,15,0,0,1-6.24-5.92,17.36,17.36,0,0,1-2.19-8.78V36a17.34,17.34,0,0,1,2.19-8.83A15.14,15.14,0,0,1,75,21.25a21.88,21.88,0,0,1,18.6,0,15.31,15.31,0,0,1,6.2,5.59,14.88,14.88,0,0,1,2.2,8v.57a.85.85,0,0,1-.85.85H94.67a.85.85,0,0,1-.85-.85V35a8.33,8.33,0,0,0-2.59-6.31,9.52,9.52,0,0,0-6.91-2.48,9.47,9.47,0,0,0-6.94,2.58,9.19,9.19,0,0,0-2.62,6.84V53.39a9,9,0,0,0,2.76,6.84,10.07,10.07,0,0,0,7.16,2.58,9.56,9.56,0,0,0,6.7-2.23,7.92,7.92,0,0,0,2.44-6.13V50.06a.32.32,0,0,0-.35-.36H84.75a.81.81,0,0,1-.6-.24.82.82,0,0,1-.25-.61V43.61a.85.85,0,0,1,.85-.85h16.37a.85.85,0,0,1,.85.85v9.07q0,8.15-4.78,12.69T84.32,69.9A20.1,20.1,0,0,1,75,67.81Zm60.08.82L132.71,61c-.1-.18-.22-.28-.36-.28H113.64c-.14,0-.26.1-.35.28L111,68.63a.88.88,0,0,1-.92.7h-7.09a.79.79,0,0,1-.63-.24.78.78,0,0,1-.08-.75l15.38-47.9a.89.89,0,0,1,.92-.71h8.86a.89.89,0,0,1,.92.71l15.45,47.9a.77.77,0,0,1,.07.36q0,.63-.78.63H136A.88.88,0,0,1,135.05,68.63ZM115.77,54.31h14.39c.28,0,.37-.14.28-.42l-7.3-23.74c0-.19-.12-.29-.21-.29s-.17.1-.21.29l-7.23,23.74C115.44,54.17,115.53,54.31,115.77,54.31Zm35.49,15h-1.73a2.16,2.16,0,0,1-2.15-2.15V21.91a2.16,2.16,0,0,1,2.15-2.16h32.14a24.81,24.81,0,1,1,0,49.61Zm4.66-9.2h25.75a15.6,15.6,0,1,0,0-31.2H155.92Z" style="fill: rgb(0, 0, 0);"/>
  <path class="cls-2" d="M234.75,69.36a24.81,24.81,0,1,1,0-49.61H322a24.81,24.81,0,0,1,0,49.61Zm0-40.4a15.6,15.6,0,1,0,0,31.2H322A15.6,15.6,0,0,0,322,29Z" style="fill: rgb(0, 0, 0);"/>
  <path class="cls-3" d="M241.67,103.71v1.84a1.16,1.16,0,0,1-1.16,1.15h-14.6a1.16,1.16,0,0,1-1.16-1.15V80.79a1.16,1.16,0,0,1,1.16-1.16h2a1.16,1.16,0,0,1,1.16,1.16v21.76h11.4A1.16,1.16,0,0,1,241.67,103.71Zm18.47-24.08h-1.39a1.49,1.49,0,0,0-1.48,1.49v24.1a1.48,1.48,0,0,0,1.48,1.48h1.39a1.49,1.49,0,0,0,1.49-1.48V81.12A1.49,1.49,0,0,0,260.14,79.63Zm37.9,0h-1.46a1.5,1.5,0,0,0-1.4,1l-7,19.34-7-19.33a1.5,1.5,0,0,0-1.4-1h-1.48a1.49,1.49,0,0,0-1.39,2l9,24.1a1.47,1.47,0,0,0,1.39,1H289a1.48,1.48,0,0,0,1.39-1l9-24.1a1.51,1.51,0,0,0-.17-1.37A1.5,1.5,0,0,0,298,79.63Zm32.33,4.16a1.49,1.49,0,0,0,1.49-1.49V81.12a1.49,1.49,0,0,0-1.49-1.49H316.21a1.49,1.49,0,0,0-1.49,1.49v24.1a1.49,1.49,0,0,0,1.49,1.48h14.16a1.49,1.49,0,0,0,1.49-1.48V104a1.49,1.49,0,0,0-1.49-1.48H319.09V94.92h10.64a1.49,1.49,0,0,0,1.49-1.48V92.29a1.49,1.49,0,0,0-1.49-1.49H319.09v-7Z" style="fill: rgb(0, 0, 0);"/>
</svg>