<?xml version="1.0" encoding="utf-8"?>
<svg viewBox="463.933 215 187.434 70" xmlns="http://www.w3.org/2000/svg">
  <path d="M36.1147 0H21.4013L0 15.1592V25.414H16.9962L0 37.4522V47.707H16.9962L0 59.7452V70H14.7134L36.1147 54.8408V44.586H19.1229L36.1147 32.5478V22.293H19.1229L36.1147 10.2548V0Z" transform="matrix(1, 0, 0, 1, 463.933021, 215.000003)" style=""/>
  <path d="M72.0469 18.9506C63.743 18.9506 58.0753 23.432 57.2845 30.0883H63.8748C64.3362 26.7272 67.1041 23.6956 72.0469 23.6956C77.6488 23.6956 80.219 27.584 80.219 32.1972V32.3291V32.9222L70.7289 33.9107C64.4021 34.5698 56.1641 36.1515 56.1641 44.3895C56.1641 50.914 61.4364 55.7249 68.0268 55.7249C74.8808 55.7249 77.7806 52.6934 80.219 47.7506V55H86.6776V32.395V32.2631C86.6776 25.6728 82.7893 18.9506 72.0469 18.9506ZM70.3993 51.4412C66.3133 51.4412 62.7545 48.9368 62.7545 44.3895C62.7545 39.249 68.2904 38.5899 73.1673 38.0627L80.219 37.3378V39.9739C80.219 46.3007 76.9238 51.4412 70.3993 51.4412ZM133.866 18.9506C127.539 18.9506 124.112 23.4979 122.662 27.7817C121.41 23.2343 117.653 18.9506 111.59 18.9506C105.791 18.9506 102.627 22.6412 101.045 26.859V19.6755H94.5866V55H101.045V34.1085C101.045 26.859 103.813 23.6956 108.954 23.6956C114.094 23.6956 116.862 26.859 116.862 33.9767V34.1085V55H123.321V34.1085C123.321 26.859 126.089 23.6956 131.229 23.6956C136.37 23.6956 139.138 26.859 139.138 33.9767V34.1085V55H145.597V33.1199V32.9881C145.597 24.816 141.576 18.9506 133.866 18.9506ZM172.408 18.9506C165.818 18.9506 161.6 23.4979 159.952 28.243V19.6755H153.494V67.9172H159.952V47.2892C162.127 52.3638 167.136 55.7249 172.408 55.7249C180.976 55.7249 187.434 48.2119 187.434 37.3378C187.434 26.4636 180.91 18.9506 172.408 18.9506ZM170.299 50.9799C163.577 50.9799 159.689 45.6416 159.689 37.3378C159.689 29.0339 163.577 23.6956 170.299 23.6956C177.021 23.6956 180.844 29.0339 180.844 37.3378C180.844 45.6416 177.021 50.9799 170.299 50.9799Z" transform="matrix(1, 0, 0, 1, 463.933021, 215.000003)" style=""/>
</svg>