<svg viewBox="0 0 120 31" fill="none" xmlns="http://www.w3.org/2000/svg">
<path fill-rule="evenodd" clip-rule="evenodd" d="M89.4609 0H119.462C119.759 0 120 0.240211 120 0.536526V30.4635C120 30.7598 119.759 31 119.462 31H89.4609C89.1638 31 88.923 30.7598 88.923 30.4635V0.536526C88.923 0.240211 89.1638 0 89.4609 0ZM96.9991 15.449C96.9991 11.3378 100.34 8.0051 104.462 8.0051C108.583 8.0051 111.924 11.3378 111.924 15.449C111.924 19.5601 108.583 22.8929 104.462 22.8929C100.34 22.8929 96.9991 19.5601 96.9991 15.449ZM104.462 4.71353C98.5178 4.71353 93.6994 9.51995 93.6994 15.449C93.6994 21.378 98.5178 26.1844 104.462 26.1844C110.405 26.1844 115.224 21.378 115.224 15.449C115.224 9.51996 110.405 4.71353 104.462 4.71353ZM101.821 18.1336C102.522 18.832 103.471 19.2244 104.462 19.2244V11.7756C103.471 11.7756 102.522 12.168 101.821 12.8664C101.121 13.5649 100.728 14.5122 100.728 15.5C100.728 16.4878 101.121 17.4351 101.821 18.1336Z" fill="#000000"/>
<path d="M11.5342 23.9922C10.7769 24.3494 9.26897 24.7361 7.45411 24.7361C2.92192 24.7361 0 21.8363 0 17.3614C0 13.0428 2.95822 9.68707 8.04312 9.68707C9.39436 9.68707 10.7373 9.98002 11.5738 10.3454L11.0706 12.4668C11.053 12.5411 11.0199 12.6109 10.9734 12.6716C10.927 12.7323 10.8682 12.7826 10.8009 12.8191C10.7336 12.8556 10.6594 12.8775 10.5831 12.8835C10.5067 12.8894 10.43 12.8792 10.3579 12.8536C9.64883 12.6225 8.90606 12.5112 8.16025 12.5244C5.37197 12.5244 3.72046 14.557 3.73201 17.2017C3.73201 20.1641 5.6805 21.8544 8.1718 21.8544C8.94866 21.8612 9.72149 21.7422 10.4602 21.5022C10.5338 21.479 10.6115 21.4717 10.6882 21.4809C10.7649 21.49 10.8387 21.5154 10.9047 21.5552C10.9708 21.5951 11.0275 21.6486 11.0712 21.7121C11.1149 21.7756 11.1445 21.8477 11.1581 21.9235L11.5342 23.9922Z" fill="#000000"/>
<path d="M15.5896 7.3945L18.8893 5.86227V24.4251H15.2283V7.90634C15.234 7.79573 15.271 7.68898 15.3349 7.59842C15.3988 7.50786 15.4871 7.43717 15.5896 7.3945Z" fill="#000000"/>
<path d="M31.3707 24.4251L31.1215 22.8188H31.0258C30.1498 23.9577 28.6368 24.751 26.7659 24.751C23.8324 24.751 22.2073 22.6608 22.2073 20.462C22.2073 16.8232 25.4575 14.9799 30.7866 15.0013V14.7627C30.7866 13.8147 30.4104 12.2397 27.8515 12.2496C26.6982 12.2599 25.5611 12.5222 24.5204 13.0182C24.45 13.0516 24.3733 13.0696 24.2953 13.0708C24.2174 13.0721 24.1401 13.0565 24.0687 13.0253C23.9973 12.9941 23.9335 12.9479 23.8817 12.8898C23.8298 12.8318 23.791 12.7633 23.7681 12.689L23.2401 10.9609C24.3323 10.3026 26.2099 9.68216 28.4801 9.68216C33.1179 9.68216 34.4411 12.5985 34.4411 15.7617V20.9541C34.4226 22.1163 34.4976 23.2782 34.6654 24.4284L31.3707 24.4251ZM30.8872 17.363C28.3085 17.3285 25.8403 17.8716 25.8403 20.0671C25.8403 21.4791 26.7692 22.144 27.9241 22.144C28.5512 22.1553 29.1657 21.9682 29.6797 21.6095C30.1936 21.2509 30.5805 20.7392 30.7849 20.1477C30.8578 19.8903 30.8923 19.6235 30.8872 19.3561V17.363Z" fill="#000000"/>
<path d="M38.0196 14.6409C38.0196 12.7088 37.98 11.2884 37.9008 10.0047H40.4961C40.6492 10.0062 40.796 10.066 40.9064 10.1719C41.0168 10.2777 41.0825 10.4216 41.09 10.5742L41.1973 12.745H41.2996C42.0123 10.7141 43.6985 9.67887 45.2592 9.67887C45.5474 9.66949 45.8356 9.69603 46.1172 9.75787V13.191C45.7644 13.1189 45.4048 13.0847 45.0448 13.0889C43.3041 13.0889 42.0948 14.1949 41.7681 15.8473C41.7041 16.2102 41.6732 16.5782 41.6757 16.9467V24.4251H38.0196V14.6409Z" fill="#000000"/>
<path d="M49.4631 24.4251V11.3823C49.464 11.2769 49.4957 11.174 49.5543 11.0863C49.6129 10.9986 49.6959 10.9298 49.7931 10.8885L53.1291 9.3349V24.4267L49.4631 24.4251Z" fill="#000000"/>
<path d="M70.3933 10.0047C70.5068 10.0045 70.6175 10.0398 70.7099 10.1057C70.8022 10.1715 70.8715 10.2645 70.9081 10.3717L74.287 19.8514C74.5131 19.0417 77.3179 10.0047 77.3179 10.0047H81.2165L77.5868 19.8449C75.6069 25.2282 74.2606 27.6212 72.558 29.1172C71.1209 30.3664 69.6328 30.8403 68.7253 30.9605L68.0357 28.3947C67.9989 28.2612 68.0145 28.1187 68.0796 27.9963C68.1446 27.8739 68.254 27.781 68.3855 27.7364C68.9628 27.5277 69.5093 27.2426 70.0106 26.8888C70.8589 26.2964 71.5484 25.5052 72.0185 24.5847C72.147 24.3936 72.2258 24.1736 72.2478 23.9445C72.2352 23.6967 72.1699 23.4543 72.0564 23.2335L66.7438 9.99319L70.3933 10.0047Z" fill="#000000"/>
<path d="M63.7196 22.1095C63.6866 21.9861 63.6108 21.8783 63.5057 21.8054C63.4006 21.7325 63.273 21.6991 63.1455 21.7112C62.906 21.7362 62.6653 21.7483 62.4245 21.7474C61.0271 21.7474 60.5552 20.8488 60.5552 19.0845V12.7137H64.0331V10.5412C64.0331 10.3972 63.9758 10.2591 63.8737 10.1572C63.7715 10.0554 63.6331 9.99814 63.4887 9.99814H60.5585V5.86722L57.3066 7.38298C57.2095 7.42449 57.1266 7.49326 57.068 7.58093C57.0094 7.66859 56.9777 7.77136 56.9766 7.87672V19.491C56.9766 21.382 57.3346 22.7085 58.12 23.5364C58.7981 24.2687 59.9183 24.7246 61.2547 24.7246C62.289 24.7123 63.3168 24.5606 64.3103 24.2737L63.7196 22.1095Z" fill="#000000"/>
<path d="M51.2862 7.79278C52.3915 7.79278 53.2875 6.89899 53.2875 5.79645C53.2875 4.6939 52.3915 3.80011 51.2862 3.80011C50.1809 3.80011 49.2849 4.6939 49.2849 5.79645C49.2849 6.89899 50.1809 7.79278 51.2862 7.79278Z" fill="#000000"/>
</svg>
