<?xml version="1.0" encoding="utf-8"?>
<svg viewBox="29.674 186.781 159 38" xmlns="http://www.w3.org/2000/svg">
  <path d="M 33.396 209.507 C 33.713 212.117 35.865 213.82 38.996 213.82 C 40.332 213.816 41.648 213.49 42.832 212.87 C 43.214 212.662 43.653 212.583 44.084 212.643 C 44.515 212.703 44.915 212.901 45.225 213.206 L 46.298 214.248 C 44.525 216.195 41.569 217.171 38.926 217.171 C 33.292 217.161 29.674 213.577 29.674 208.079 C 29.674 202.861 33.327 199.13 38.682 199.13 C 43.747 199.13 47.327 201.98 47.4 207.823 C 47.402 208.043 47.36 208.261 47.278 208.465 C 47.195 208.669 47.073 208.854 46.919 209.011 C 46.764 209.167 46.58 209.292 46.378 209.377 C 46.175 209.462 45.958 209.507 45.738 209.507 L 33.396 209.507 Z M 43.864 206.48 C 43.655 203.766 41.673 202.338 38.799 202.338 C 36.191 202.338 34.051 203.766 33.478 206.48 L 43.864 206.48 Z" style=""/>
  <path d="M 66.23 199.66 L 56.066 223.264 C 55.873 223.715 55.551 224.099 55.142 224.368 C 54.732 224.638 54.252 224.781 53.762 224.781 L 51.448 224.781 L 54.996 216.57 L 48.235 199.66 L 50.565 199.66 C 51.08 199.659 51.582 199.818 52.004 200.113 C 52.426 200.408 52.747 200.826 52.923 201.309 L 55.278 207.766 L 56.981 212.637 L 58.826 207.836 L 61.59 201.205 C 61.78 200.747 62.102 200.356 62.514 200.081 C 62.926 199.806 63.411 199.659 63.907 199.66 L 66.23 199.66 Z" style=""/>
  <path d="M 103.033 214.518 C 102.19 215.386 101.178 216.072 100.059 216.533 C 98.94 216.994 97.738 217.22 96.529 217.197 C 91.591 217.197 87.485 214.1 87.485 208.184 C 87.485 202.269 91.556 199.172 96.529 199.172 C 97.68 199.143 98.824 199.353 99.89 199.789 C 100.955 200.225 101.919 200.878 102.72 201.705 L 101.66 202.814 C 101.34 203.141 100.924 203.355 100.472 203.425 C 100.021 203.495 99.559 203.416 99.156 203.2 C 98.354 202.786 97.465 202.569 96.563 202.567 C 93.468 202.567 91.068 204.758 91.068 208.168 C 91.068 211.788 93.572 213.701 96.529 213.701 C 97.561 213.716 98.58 213.462 99.485 212.963 C 99.852 212.757 100.276 212.677 100.693 212.734 C 101.11 212.791 101.497 212.983 101.796 213.279 L 103.033 214.518 Z" style=""/>
  <path d="M 121.588 208.184 C 121.588 213.251 118.074 217.092 112.684 217.092 C 107.293 217.092 103.85 213.264 103.85 208.184 C 103.85 203.105 107.363 199.242 112.684 199.242 C 118.005 199.242 121.588 203.14 121.588 208.184 Z M 107.433 208.184 C 107.433 211.246 109.414 213.751 112.684 213.751 C 115.954 213.751 117.986 211.246 117.986 208.184 C 117.986 205.122 115.827 202.548 112.697 202.548 C 109.414 202.548 107.433 205.147 107.433 208.184 Z" style=""/>
  <path d="M 182.951 208.184 C 182.951 213.251 179.441 217.092 174.047 217.092 C 168.654 217.092 165.213 213.264 165.213 208.184 C 165.213 203.105 168.727 199.242 174.047 199.242 C 179.368 199.242 182.951 203.14 182.951 208.184 Z M 168.796 208.184 C 168.796 211.246 170.781 213.751 174.047 213.751 C 177.314 213.751 179.337 211.246 179.337 208.184 C 179.337 205.122 177.178 202.548 174.047 202.548 C 170.781 202.548 168.796 205.147 168.796 208.184 Z" style=""/>
  <path d="M 188.674 194.934 L 188.674 216.743 L 185.091 216.743 L 185.091 192.423 L 186.161 192.423 C 186.827 192.423 187.466 192.688 187.937 193.159 C 188.408 193.629 188.673 194.268 188.674 194.934 Z" style=""/>
  <path d="M 131.914 199.312 C 127.738 199.312 123.684 201.814 123.684 207.067 L 123.684 216.744 L 127.301 216.744 L 127.301 207.561 C 127.301 204.603 128.97 202.621 131.926 202.621 C 134.883 202.621 136.551 204.603 136.551 207.561 L 136.551 216.744 L 140.169 216.744 L 140.169 207.067 C 140.169 201.814 136.101 199.312 131.914 199.312 Z" style=""/>
  <path d="M 164.516 199.363 C 164.215 199.33 163.911 199.313 163.608 199.312 C 159.433 199.312 155.378 201.814 155.378 207.067 L 155.378 216.744 L 158.993 216.744 L 158.993 207.561 C 158.993 204.603 160.664 202.621 163.621 202.621 C 163.925 202.622 164.229 202.646 164.529 202.694 L 164.516 199.363 Z" style=""/>
  <path d="M 148.076 208.478 L 148.076 202.956 L 152.245 202.956 L 152.245 199.624 L 148.076 199.624 L 148.076 194.934 C 148.076 194.268 147.812 193.63 147.341 193.159 C 146.87 192.688 146.232 192.423 145.566 192.423 L 144.502 192.423 L 144.502 199.624 L 141.128 199.624 L 141.128 202.956 L 144.502 202.956 L 144.502 208.741 C 144.502 213.998 148.529 216.727 152.7 216.727 L 152.7 213.421 C 149.744 213.421 148.076 211.436 148.076 208.478 Z" style=""/>
  <path d="M 77.397 195.378 L 76.647 195.216 C 76.22 195.126 75.837 194.891 75.563 194.551 C 75.288 194.212 75.139 193.788 75.141 193.351 L 75.141 187.008 C 75.14 186.974 75.148 186.94 75.162 186.91 C 75.177 186.879 75.198 186.852 75.224 186.83 C 75.251 186.809 75.282 186.794 75.315 186.786 C 75.348 186.779 75.383 186.779 75.416 186.786 L 76.271 186.967 C 76.667 187.053 77.022 187.272 77.277 187.587 C 77.532 187.903 77.672 188.296 77.673 188.702 L 77.673 195.153 C 77.673 195.187 77.665 195.22 77.65 195.251 C 77.635 195.281 77.614 195.308 77.588 195.33 C 77.562 195.351 77.531 195.367 77.498 195.375 C 77.465 195.383 77.431 195.384 77.397 195.378 Z" style=""/>
  <path d="M 70.991 209.507 C 71.307 212.117 73.46 213.82 76.59 213.82 C 77.927 213.816 79.242 213.49 80.427 212.87 C 80.809 212.662 81.249 212.583 81.68 212.643 C 82.111 212.704 82.512 212.901 82.823 213.206 L 83.893 214.248 C 82.12 216.195 79.164 217.171 76.521 217.171 C 70.886 217.171 67.268 213.586 67.268 208.089 C 67.268 202.87 70.921 199.146 76.277 199.146 C 81.341 199.146 84.921 201.98 84.978 207.832 C 84.981 208.052 84.94 208.27 84.857 208.475 C 84.775 208.679 84.653 208.864 84.499 209.021 C 84.344 209.178 84.16 209.302 83.957 209.387 C 83.754 209.472 83.537 209.516 83.317 209.517 L 70.991 209.507 Z M 81.459 206.48 C 81.25 203.766 79.268 202.338 76.394 202.338 C 73.786 202.338 71.63 203.766 71.073 206.48 L 81.459 206.48 Z" style=""/>
  <path d="M 83.066 197.811 L 82.534 197.269 C 82.225 196.962 82.03 196.558 81.984 196.124 C 81.937 195.69 82.041 195.254 82.278 194.888 L 85.699 189.558 C 85.718 189.53 85.743 189.506 85.772 189.488 C 85.801 189.471 85.834 189.459 85.868 189.456 C 85.901 189.452 85.936 189.456 85.968 189.467 C 86 189.478 86.029 189.497 86.054 189.52 L 86.671 190.138 C 86.958 190.424 87.138 190.801 87.181 191.204 C 87.225 191.608 87.128 192.014 86.908 192.355 L 83.417 197.776 C 83.399 197.805 83.374 197.829 83.345 197.846 C 83.316 197.864 83.284 197.875 83.25 197.879 C 83.216 197.882 83.182 197.878 83.15 197.866 C 83.118 197.854 83.089 197.835 83.066 197.811 Z" style=""/>
  <path d="M 71.317 196.439 L 70.617 196.756 C 70.219 196.938 69.77 196.978 69.346 196.867 C 68.922 196.756 68.549 196.502 68.291 196.148 L 64.543 191.037 C 64.523 191.009 64.51 190.978 64.504 190.944 C 64.498 190.911 64.499 190.877 64.508 190.844 C 64.517 190.811 64.533 190.781 64.555 190.755 C 64.577 190.729 64.604 190.708 64.635 190.695 L 65.442 190.337 C 65.81 190.173 66.223 190.139 66.613 190.241 C 67.003 190.342 67.347 190.574 67.588 190.897 L 71.409 196.094 C 71.429 196.121 71.443 196.153 71.45 196.187 C 71.456 196.221 71.455 196.255 71.446 196.289 C 71.437 196.322 71.421 196.352 71.399 196.379 C 71.376 196.405 71.348 196.425 71.317 196.439 Z" style=""/>
</svg>