<?xml version="1.0" encoding="utf-8"?>
<svg viewBox="42.239 170.241 159 38" xmlns="http://www.w3.org/2000/svg">
  <defs>
    <clipPath id="clip0_387_1313">
      <rect width="159" height="38" fill="white" transform="translate(0 0.000976562)"/>
    </clipPath>
  </defs>
  <g clip-path="url(#clip0_387_1313)" transform="matrix(1, 0, 0, 1, 42.238854, 170.239596)">
    <path d="M3.72241 22.7278C4.03894 25.3371 6.19135 27.0408 9.32185 27.0408C10.6583 27.0363 11.974 26.7104 13.1582 26.0908C13.5403 25.8826 13.9792 25.8029 14.4101 25.8633C14.841 25.9238 15.241 26.1212 15.5512 26.4264L16.6242 27.4683C14.8516 29.4158 11.8952 30.3911 9.25221 30.3911C3.61795 30.3816 0 26.7969 0 21.2996C0 16.0809 3.65277 12.3506 9.00848 12.3506C14.073 12.3506 17.6529 15.2006 17.7258 21.0431C17.7278 21.263 17.6864 21.4812 17.6039 21.6851C17.5214 21.889 17.3995 22.0746 17.245 22.2311C17.0906 22.3877 16.9067 22.5122 16.7041 22.5974C16.5014 22.6826 16.2838 22.7269 16.064 22.7278H3.72241ZM14.1901 19.7004C13.9812 16.9866 11.9997 15.5584 9.1256 15.5584C6.51738 15.5584 4.37763 16.9866 3.80471 19.7004H14.1901Z" style=""/>
    <path d="M36.5563 12.8799L26.3925 36.4842C26.1991 36.935 25.8776 37.3191 25.468 37.5887C25.0583 37.8584 24.5785 38.0018 24.0882 38.0011H21.7743L25.3226 29.7899L18.5615 12.8799H20.8912C21.4059 12.8798 21.9082 13.0381 22.33 13.3332C22.7519 13.6283 23.0728 14.046 23.2494 14.5297L25.6043 20.9866L27.3073 25.8569L29.1527 21.0562L31.916 14.4252C32.1062 13.9673 32.4279 13.5762 32.8403 13.3011C33.2527 13.026 33.7373 12.8795 34.233 12.8799H36.5563Z" style=""/>
    <path d="M73.3595 27.7379C72.5166 28.6065 71.5043 29.2925 70.3853 29.7533C69.2664 30.2142 68.0647 30.44 66.8548 30.4169C61.9169 30.4169 57.8115 27.3199 57.8115 21.4046C57.8115 15.4893 61.8821 12.3923 66.8548 12.3923C68.0058 12.3634 69.1503 12.5737 70.2159 13.0097C71.2816 13.4457 72.2453 14.0981 73.0462 14.9256L71.9858 16.0339C71.6667 16.3611 71.25 16.5756 70.7984 16.6453C70.3468 16.715 69.8848 16.636 69.482 16.4203C68.6802 16.0068 67.7917 15.7898 66.8896 15.7869C63.794 15.7869 61.3947 17.9783 61.3947 21.3888C61.3947 25.0083 63.8984 26.9209 66.8548 26.9209C67.8876 26.9363 68.9066 26.682 69.8112 26.1831C70.1785 25.9776 70.6026 25.8974 71.0195 25.9546C71.4364 26.0117 71.8234 26.2031 72.1219 26.4998L73.3595 27.7379Z" style=""/>
    <path d="M91.9142 21.4046C91.9142 26.4712 88.4007 30.3124 83.0102 30.3124C77.6196 30.3124 74.1758 26.4839 74.1758 21.4046C74.1758 16.3252 77.6893 12.4619 83.0102 12.4619C88.3311 12.4619 91.9142 16.3601 91.9142 21.4046ZM77.7589 21.4046C77.7589 24.4667 79.7404 26.9716 83.0102 26.9716C86.2799 26.9716 88.3121 24.4667 88.3121 21.4046C88.3121 18.3424 86.1533 15.7679 83.0228 15.7679C79.7404 15.7679 77.7589 18.3677 77.7589 21.4046Z" style=""/>
    <path d="M153.277 21.4046C153.277 26.4712 149.767 30.3124 144.373 30.3124C138.98 30.3124 135.539 26.4839 135.539 21.4046C135.539 16.3252 139.053 12.4619 144.373 12.4619C149.694 12.4619 153.277 16.3601 153.277 21.4046ZM139.122 21.4046C139.122 24.4667 141.107 26.9716 144.373 26.9716C147.64 26.9716 149.663 24.4667 149.663 21.4046C149.663 18.3424 147.504 15.7679 144.373 15.7679C141.107 15.7679 139.122 18.3677 139.122 21.4046Z" style=""/>
    <path d="M159 8.15472V29.9636H155.417V5.64355H156.487C157.153 5.64355 157.792 5.90802 158.263 6.37887C158.734 6.84971 158.999 7.48843 159 8.15472Z" style=""/>
    <path d="M102.24 12.5322C98.0645 12.5322 94.0098 15.0339 94.0098 20.2874V29.9647H97.6277V20.7814C97.6277 17.8237 99.2958 15.8414 102.252 15.8414C105.209 15.8414 106.877 17.8237 106.877 20.7814V29.9647H110.495V20.2874C110.495 15.0339 106.427 12.5322 102.24 12.5322Z" style=""/>
    <path d="M134.842 12.5829C134.541 12.5501 134.237 12.5332 133.934 12.5322C129.759 12.5322 125.704 15.0339 125.704 20.2874V29.9647H129.319V20.7814C129.319 17.8237 130.99 15.8414 133.947 15.8414C134.251 15.8423 134.555 15.8667 134.855 15.9142L134.842 12.5829Z" style=""/>
    <path d="M118.402 21.6986V16.1759H122.571V12.8446H118.402V8.15472C118.402 7.48872 118.138 6.84999 117.667 6.37906C117.196 5.90812 116.558 5.64355 115.892 5.64355H114.828V12.8446H111.454V16.1759H114.828V21.9614C114.828 27.2181 118.855 29.9477 123.026 29.9477V26.6417C120.07 26.6417 118.402 24.6562 118.402 21.6986Z" style=""/>
    <path d="M47.7237 8.59793L46.9735 8.43643C46.5463 8.34616 46.1633 8.11141 45.8889 7.77169C45.6144 7.43198 45.4654 7.00804 45.4668 6.57126V0.22843C45.4664 0.194378 45.4738 0.160681 45.4883 0.129881C45.5028 0.0990822 45.5241 0.071986 45.5507 0.0506381C45.5772 0.0292902 45.6082 0.0142483 45.6414 0.0066478C45.6746 -0.000952682 45.709 -0.000913156 45.7422 0.0067634L46.5968 0.187263C46.9933 0.2732 47.3485 0.492134 47.6036 0.807759C47.8586 1.12338 47.9982 1.51674 47.9991 1.9226V8.3731C47.9988 8.40704 47.991 8.4405 47.9763 8.4711C47.9616 8.5017 47.9404 8.52869 47.9141 8.55015C47.8878 8.57161 47.8571 8.58702 47.8242 8.59528C47.7913 8.60353 47.757 8.60444 47.7237 8.59793Z" style=""/>
    <path d="M41.3171 22.7275C41.6337 25.3369 43.7861 27.0405 46.9166 27.0405C48.253 27.0361 49.5687 26.7102 50.7529 26.0905C51.1357 25.8827 51.575 25.8031 52.0063 25.8635C52.4376 25.9239 52.8381 26.1212 53.1491 26.4262L54.2189 27.468C52.4464 29.4155 49.49 30.3909 46.8469 30.3909C41.2127 30.3909 37.5947 26.8062 37.5947 21.3089C37.5947 16.0902 41.2475 12.3662 46.6032 12.3662C51.6677 12.3662 55.2477 15.2004 55.3046 21.0524C55.3072 21.2724 55.266 21.4908 55.1837 21.6949C55.1014 21.899 54.9794 22.0847 54.8249 22.2414C54.6703 22.398 54.4863 22.5225 54.2834 22.6075C54.0806 22.6926 53.8628 22.7366 53.6429 22.737L41.3171 22.7275ZM51.7848 19.7002C51.5759 16.9864 49.5944 15.5582 46.7203 15.5582C44.1121 15.5582 41.9565 16.9864 41.3994 19.7002H51.7848Z" style=""/>
    <path d="M53.392 11.0311L52.8602 10.4896C52.5508 10.1824 52.3564 9.77802 52.3098 9.34441C52.2631 8.9108 52.3669 8.47432 52.6039 8.10824L56.0256 2.77874C56.0443 2.75028 56.0691 2.72632 56.0982 2.70858C56.1273 2.69084 56.16 2.67975 56.1939 2.67612C56.2277 2.67249 56.262 2.6764 56.2942 2.68757C56.3264 2.69874 56.3557 2.7169 56.3801 2.74074L56.9973 3.35824C57.2844 3.64481 57.4645 4.02119 57.5077 4.42458C57.5509 4.82798 57.4546 5.234 57.2347 5.5749L53.7434 10.9962C53.7251 11.0249 53.7005 11.049 53.6716 11.0668C53.6426 11.0846 53.61 11.0956 53.5761 11.0989C53.5423 11.1023 53.5082 11.0979 53.4763 11.0862C53.4444 11.0744 53.4156 11.0556 53.392 11.0311Z" style=""/>
    <path d="M41.6433 9.65928L40.9437 9.97595C40.5454 10.1587 40.0961 10.198 39.6721 10.0872C39.248 9.9764 38.8754 9.72228 38.6172 9.36795L34.8695 4.25695C34.8496 4.22947 34.8361 4.1979 34.8299 4.16453C34.8238 4.13116 34.8252 4.09684 34.834 4.06407C34.8428 4.03131 34.8588 4.00091 34.8808 3.97512C34.9028 3.94932 34.9303 3.92876 34.9613 3.91495L35.7685 3.55712C36.1366 3.39299 36.5497 3.35907 36.9397 3.46093C37.3297 3.56279 37.6735 3.79438 37.9145 4.11762L41.7351 9.31412C41.7556 9.34166 41.7696 9.37349 41.7761 9.40721C41.7825 9.44094 41.7813 9.47569 41.7725 9.50888C41.7637 9.54207 41.7475 9.57283 41.7251 9.59887C41.7027 9.62492 41.6747 9.64557 41.6433 9.65928Z" style=""/>
  </g>
</svg>