<?xml version="1.0" encoding="UTF-8"?>
<svg width="275px" height="115px" viewBox="0 0 275 115" version="1.1" xmlns="http://www.w3.org/2000/svg" xmlns:xlink="http://www.w3.org/1999/xlink">
    <!-- Generator: Sketch 63.1 (92452) - https://sketch.com -->
    <title>Group Copy 9</title>
    <desc>Created with Sketch.</desc>
    <g id="Misc" stroke="none" stroke-width="1" fill="none" fill-rule="evenodd">
        <g id="Artboard" transform="translate(-899.000000, -697.000000)" fill="#000000" fill-rule="nonzero">
            <g id="Group-Copy-9" transform="translate(899.000000, 697.000000)">
                <path d="M7.16,114 L7.16,70.48 L7.32,70.48 L25.8,102.56 L30.52,102.56 L49,70.48 L49.16,70.48 L49.16,114 L56.12,114 L56.12,57.2 L49.16,57.2 L28.28,93.92 L28.12,93.92 L7.24,57.2 L0.2,57.2 L0.2,114 L7.16,114 Z M87.8,114 C105.88,114 117,102.4 117,85.68 C117,68.88 105.56,57.2 87.56,57.2 L70.52,57.2 L70.52,114 L87.8,114 Z M87.32,107.68 L77.48,107.68 L77.48,63.52 L87.64,63.52 C100.92,63.52 109.88,72.64 109.88,85.68 C109.88,98.48 101,107.68 87.32,107.68 Z" id="MD"></path>
                <g id="burst-copy-3" transform="translate(134.500000, 16.500000) rotate(-180.000000) translate(-134.500000, -16.500000) translate(92.000000, 0.000000)">
                    <path d="M16.2913949,2.56260741 C17.340243,1.27999925 19.2302617,1.09049928 20.5128699,2.13934737 C21.7461469,3.14785515 21.968784,4.93407247 21.0516635,6.2102159 L20.9361299,6.36082234 L5.79551182,24.8758774 C4.74666373,26.1584856 2.856645,26.3479856 1.57403685,25.2991375 C0.340759773,24.2906297 0.118122663,22.5044124 1.03524324,21.2282689 L1.15077681,21.0776625 L16.2913949,2.56260741 Z" id="Line"></path>
                    <path d="M79.4913949,2.56260741 C80.540243,1.27999925 82.4302617,1.09049928 83.7128699,2.13934737 C84.9461469,3.14785515 85.168784,4.93407247 84.2516635,6.2102159 L84.1361299,6.36082234 L68.9955118,24.8758774 C67.9466637,26.1584856 66.056645,26.3479856 64.7740368,25.2991375 C63.5407598,24.2906297 63.3181227,22.5044124 64.2352432,21.2282689 L64.3507768,21.0776625 L79.4913949,2.56260741 Z" id="Line" transform="translate(74.243453, 13.719242) scale(-1, 1) translate(-74.243453, -13.719242) "></path>
                    <path d="M41,0.487238292 C42.5976809,0.487238292 43.9036609,1.73615826 43.9949073,3.3109655 L44,3.48723829 L44,29.7981061 C44,31.4549603 42.6568542,32.7981061 41,32.7981061 C39.4023191,32.7981061 38.0963391,31.5491861 38.0050927,29.9743788 L38,29.7981061 L38,3.48723829 C38,1.83038404 39.3431458,0.487238292 41,0.487238292 Z" id="Line"></path>
                </g>
                <path d="M143.76,114 L143.76,94.16 C143.76,87.2 147.36,83.68 152.96,83.68 C157.92,83.68 160.56,86 160.56,93.2 L160.56,114 L171.04,114 L171.04,90.56 C171.04,78.64 165.04,74.32 156.64,74.32 C151.68,74.32 147.12,76.08 143.92,79.68 L143.76,79.68 L143.76,55.12 L133.28,55.12 L133.28,114 L143.76,114 Z M197.52,114.64 C202.56,114.64 206.56,112.72 209.2,109.28 L209.44,109.28 L209.44,114 L219.36,114 L219.36,74.96 L208.96,74.96 L208.96,79.36 L208.72,79.36 C205.92,76 201.92,74.32 197.28,74.32 C186.8,74.32 178.88,82.72 178.88,94.56 C178.88,106.64 186.72,114.64 197.52,114.64 Z M199.44,105.28 C193.6,105.28 189.44,100.96 189.44,94.64 C189.44,87.92 193.92,83.68 199.52,83.68 C205.2,83.68 209.36,88.4 209.36,94.64 C209.36,101.04 204.88,105.28 199.44,105.28 Z M235.36,69.44 C238.96,69.44 241.92,66.56 241.92,63.04 C241.92,59.52 238.96,56.64 235.36,56.64 C231.84,56.64 228.88,59.52 228.88,63.04 C228.88,66.56 231.84,69.44 235.36,69.44 Z M240.56,114 L240.56,74.96 L230.08,74.96 L230.08,114 L240.56,114 Z M262.08,114 L262.08,95.84 C262.08,90.08 265.6,85.68 272.08,85.68 C272.64,85.68 273.76,85.68 274.8,85.76 L274.8,74.4 C274.64,74.32 274.32,74.32 274,74.32 C269.36,74.32 265.12,76.56 262.16,80.72 L262.08,80.72 L262.08,74.96 L251.6,74.96 L251.6,114 L262.08,114 Z" id="hair"></path>
            </g>
        </g>
    </g>
</svg>