<svg xmlns="http://www.w3.org/2000/svg" fill="none" viewBox="0 0 133 50" class="undefined si-svg--light" width="133"><path fill="#000000" fill-rule="evenodd" d="M9.316.886c1.237 6.223 5.232 7.962 6.425 8.346a1.077 1.077 0 0 1 0 2.056c-1.193.388-5.185 2.124-6.425 8.363a1.08 1.08 0 0 1-.377.628 1.094 1.094 0 0 1-1.762-.628c-1.24-6.24-5.232-7.975-6.426-8.363a1.077 1.077 0 0 1 0-2.056c1.194-.37 5.185-2.11 6.426-8.346a1.08 1.08 0 0 1 .377-.628 1.094 1.094 0 0 1 1.762.628m96.37 13.373h4.811c.329 0 .595.265.595.591v23.863c0 .327-.266.591-.595.591h-4.811a.594.594 0 0 1-.596-.59V14.85c0-.326.267-.59.596-.59m-33.322 6.88a7.7 7.7 0 0 0-3.699.864 6.83 6.83 0 0 0-2.616 2.517q-1.88-3.381-6.257-3.381a6.95 6.95 0 0 0-2.756.478 6.9 6.9 0 0 0-2.338 1.525v-.831a.6.6 0 0 0-.206-.458.7.7 0 0 0-.494-.19h-4.327a.71.71 0 0 0-.645.397.6.6 0 0 0-.051.25v16.108a.6.6 0 0 0 .201.458c.134.125.311.193.495.19h4.327a.7.7 0 0 0 .495-.19.6.6 0 0 0 .205-.458V30.32q0-2.106.938-3.311c.622-.802 1.533-1.206 2.723-1.206.458-.014.912.086 1.32.292.408.205.758.509 1.017.884q.848 1.17.851 3.185v8.242a.6.6 0 0 0 .205.457.7.7 0 0 0 .494.19h4.328a.68.68 0 0 0 .49-.19.6.6 0 0 0 .206-.457v-8.086q0-2.106.938-3.311.938-1.204 2.727-1.206a2.7 2.7 0 0 1 2.3 1.176q.831 1.17.834 3.185v8.242a.6.6 0 0 0 .205.457.7.7 0 0 0 .494.19h4.372a.7.7 0 0 0 .645-.397.6.6 0 0 0 .05-.25v-8.273q0-4.216-1.89-6.61-1.89-2.393-5.58-2.383m18.317.675a8.2 8.2 0 0 1 3.026-.544q4.214.01 6.685 2.51 2.472 2.5 2.471 6.657-.003 4.13-2.464 6.597-2.462 2.467-6.692 2.467-3.39 0-5.353-2.1v10.232a.452.452 0 0 1-.447.444h-5.111a.45.45 0 0 1-.444-.444V22.084a.44.44 0 0 1 .273-.41.5.5 0 0 1 .171-.034h5.111a.45.45 0 0 1 .447.444v1.289a6.25 6.25 0 0 1 2.327-1.56m-2.697 8.563c0 2.554 1.98 4.377 4.792 4.377 2.8 0 4.781-1.823 4.781-4.377s-1.97-4.373-4.778-4.373-4.795 1.82-4.795 4.373m-44.863-17.36c-2.461 0-4.3 1.508-4.3 3.518s1.839 3.512 4.3 3.512 4.3-1.509 4.3-3.512-1.839-3.518-4.3-3.518m84.391 8.51h4.974a.513.513 0 0 1 .514.514v19.072c0 5.264-4.499 8.603-10.958 8.603-6.325 0-10.579-3.209-10.982-7.796a.23.23 0 0 1 .063-.183.24.24 0 0 1 .179-.077h5.346a.246.246 0 0 1 .246.204c.319 2.083 2.232 3.382 5.121 3.382 3.197 0 5.151-1.596 5.151-4.127v-4.487c-1.476 2.418-4.243 2.841-6.389 2.818a13 13 0 0 1-.82-.033h-.145c-3.84-.367-6.052-2.931-6.052-6.834V22.04a.513.513 0 0 1 .514-.514h5.078a.512.512 0 0 1 .517.514v9.057a3.6 3.6 0 0 0 1.574 2.995 3.65 3.65 0 0 0 3.379.387c1.362-.557 2.176-1.853 2.176-3.625V22.04a.513.513 0 0 1 .514-.514m-81.841.47a6.62 6.62 0 0 1-5.084 0 .34.34 0 0 0-.426.147.33.33 0 0 0-.042.157v16.215a.54.54 0 0 0 .545.537h4.933a.543.543 0 0 0 .541-.537V22.29a.33.33 0 0 0-.156-.269.34.34 0 0 0-.311-.025M24.002 23.84l4.9.571c5.383.624 8.268 3.272 8.271 6.794 0 5.098-4.415 8.453-11.627 8.453-7.657 0-12.371-3.783-13.114-8.967a.41.41 0 0 1 .237-.427.4.4 0 0 1 .17-.037h6.278a.41.41 0 0 1 .4.333c.541 2.761 2.72 4.284 6.14 4.284 3.056 0 4.933-1.229 4.933-3.252 0-1.439-1.557-2.08-3.027-2.277l-5.353-.724c-4.64-.675-7.421-3.92-7.421-6.634 0-4.497 3.675-7.344 9.832-7.344 5.74 0 9.667 2.474 10.34 6.48a.51.51 0 0 1-.261.537.5.5 0 0 1-.203.06h-5.784a.47.47 0 0 1-.454-.334c-.521-1.575-1.84-2.383-3.884-2.383-1.94 0-3.308.915-3.308 2.337 0 1.529 1.634 2.35 2.935 2.53" clip-rule="evenodd"></path></svg>
