<?xml version="1.0" encoding="utf-8"?>
<svg viewBox="103.886 96.759 46.226 44.043" xmlns="http://www.w3.org/2000/svg">
  <g>
    <g transform="matrix(0.086693, 0, 0, 0.086693, 103.929382, 91.974075)" style="">
      <title>cloud</title>
      <path d="M 453.421 292.832 C 453.421 234.997 406.361 187.944 348.533 187.944 C 346.246 187.944 343.937 188.028 341.607 188.185 C 335.986 114.19 273.984 55.697 198.559 55.697 C 119.464 55.697 55.109 120.045 55.109 199.151 C 55.109 199.621 55.113 200.086 55.127 200.557 C 21.396 218.757 0 254.172 0 292.832 C 0 350.665 47.046 397.725 104.885 397.725 L 259.824 398.262 L 260.37 377.545 L 104.885 375.305 C 59.413 375.305 22.414 338.303 22.414 292.832 C 22.414 260.372 41.607 230.827 71.303 217.553 L 78.398 214.382 L 77.794 204.694 C 77.672 202.855 77.529 201.022 77.529 199.151 C 77.529 132.411 131.827 78.11 198.567 78.11 C 265.316 78.11 319.622 132.406 319.603 199.224 C 319.571 199.747 319.538 200.256 319.533 200.77 L 319.401 214.461 L 332.845 211.883 C 338.158 210.862 343.439 210.352 348.546 210.352 C 394.025 210.352 431.018 247.347 431.018 292.831" style="stroke-linecap: square; stroke-linejoin: bevel; fill-rule: nonzero;"/>
      <path d="M 453.921 292.832 C 453.921 321.853 442.072 348.265 423.016 367.321 C 403.96 386.378 377.549 398.203 348.533 398.225 L 104.885 398.225 C 75.863 398.203 49.454 386.376 30.399 367.319 C 11.345 348.262 -0.5 321.851 -0.5 292.832 C -0.5 254.043 20.949 218.598 54.619 200.264 C 54.612 199.891 54.609 199.623 54.609 199.151 C 54.609 159.496 70.781 123.444 96.82 97.406 C 122.858 71.368 158.909 55.197 198.559 55.197 C 236.369 55.197 270.907 69.896 296.6 93.827 C 322.294 117.758 339.118 150.76 342.067 187.654 C 344.238 187.517 346.237 187.444 348.533 187.444 C 377.549 187.444 403.96 199.291 423.016 218.346 C 442.072 237.402 453.921 263.812 453.921 292.832 Z M 422.309 219.053 C 403.378 200.124 377.345 188.444 348.533 188.444 C 346.255 188.444 343.963 188.527 341.641 188.684 L 341.146 188.717 L 341.108 188.223 C 338.325 151.32 321.487 118.373 295.919 94.559 C 270.35 70.744 236.174 56.197 198.559 56.197 C 159.114 56.197 123.44 72.2 97.527 98.113 C 71.614 124.025 55.609 159.7 55.609 199.151 C 55.609 199.619 55.613 200.076 55.627 200.542 L 55.636 200.851 L 55.364 200.997 C 21.729 219.106 0.5 254.301 0.5 292.832 C 0.5 321.646 12.178 347.681 31.106 366.612 C 50.035 385.544 76.068 397.247 104.885 397.225 L 348.533 397.225 C 377.345 397.247 403.378 385.545 422.309 366.614 C 441.24 347.684 452.921 321.649 452.921 292.832 C 452.921 264.017 441.24 237.983 422.309 219.053 Z M 348.533 375.805 L 104.885 375.805 C 82.047 375.783 61.241 366.471 46.244 351.474 C 31.247 336.476 21.914 315.67 21.914 292.832 C 21.914 276.528 26.756 260.886 35.303 247.725 C 43.85 234.565 56.188 223.774 71.099 217.097 L 77.877 214.067 L 77.295 204.726 C 77.173 202.89 77.029 201.041 77.029 199.151 C 77.029 165.679 90.687 135.23 112.667 113.249 C 134.647 91.269 165.095 77.61 198.567 77.61 C 232.044 77.61 262.496 91.268 284.477 113.257 C 306.457 135.246 320.09 165.743 320.102 199.255 C 320.07 199.778 320.037 200.275 320.033 200.775 L 319.907 213.855 L 332.751 211.392 C 338.087 210.368 343.415 209.852 348.546 209.852 C 371.388 209.852 392.194 219.184 407.19 234.181 C 422.186 249.179 431.518 269.987 431.518 292.831 C 431.518 315.669 422.183 336.476 407.183 351.474 C 392.184 366.471 371.374 375.783 348.533 375.805 Z M 406.476 350.766 C 421.35 335.895 430.518 315.465 430.518 292.831 C 430.518 270.191 421.353 249.76 406.483 234.889 C 391.613 220.017 371.183 210.852 348.546 210.852 C 343.463 210.852 338.229 211.356 332.939 212.374 L 318.895 215.067 L 319.033 200.765 C 319.039 200.237 319.071 199.726 319.103 199.208 C 319.13 165.908 305.624 135.827 283.769 113.964 C 261.915 92.1 231.839 78.61 198.567 78.61 C 165.299 78.61 135.228 92.102 113.374 113.957 C 91.52 135.811 78.029 165.883 78.029 199.151 C 78.029 201.003 78.171 202.819 78.293 204.661 L 78.897 214.351 L 78.919 214.697 L 71.507 218.009 C 56.722 224.606 44.615 235.224 36.142 248.27 C 27.669 261.316 22.914 276.676 22.914 292.832 C 22.914 315.465 32.08 335.895 46.951 350.767 C 61.822 365.638 82.251 374.827 104.885 374.805 L 348.533 374.805 C 371.17 374.827 391.603 365.638 406.476 350.766 Z" style="fill: none;"/>
      <path d="M 453.921 292.832 C 453.921 321.853 442.072 348.265 423.016 367.321 C 403.96 386.378 377.549 398.203 348.533 398.225 L 104.885 398.225 C 75.863 398.203 49.454 386.376 30.399 367.319 C 11.345 348.262 -0.5 321.851 -0.5 292.832 C -0.5 254.043 20.949 218.598 54.619 200.264 C 54.612 199.891 54.609 199.623 54.609 199.151 C 54.609 159.496 70.781 123.444 96.82 97.406 C 122.858 71.368 158.909 55.197 198.559 55.197 C 236.369 55.197 270.907 69.896 296.6 93.827 C 322.294 117.758 339.118 150.76 342.067 187.654 C 344.238 187.517 346.237 187.444 348.533 187.444 C 377.549 187.444 403.96 199.291 423.016 218.346 C 442.072 237.402 453.921 263.812 453.921 292.832 Z M 422.309 219.053 C 403.378 200.124 377.345 188.444 348.533 188.444 C 346.255 188.444 343.963 188.527 341.641 188.684 L 341.146 188.717 L 341.108 188.223 C 338.325 151.32 321.487 118.373 295.919 94.559 C 270.35 70.744 236.174 56.197 198.559 56.197 C 159.114 56.197 123.44 72.2 97.527 98.113 C 71.614 124.025 55.609 159.7 55.609 199.151 C 55.609 199.619 55.613 200.076 55.627 200.542 L 55.636 200.851 L 55.364 200.997 C 21.729 219.106 0.5 254.301 0.5 292.832 C 0.5 321.646 12.178 347.681 31.106 366.612 C 50.035 385.544 76.068 397.247 104.885 397.225 L 348.533 397.225 C 377.345 397.247 403.378 385.545 422.309 366.614 C 441.24 347.684 452.921 321.649 452.921 292.832 C 452.921 264.017 441.24 237.983 422.309 219.053 Z M 348.533 375.805 L 104.885 375.805 C 82.047 375.783 61.241 366.471 46.244 351.474 C 31.247 336.476 21.914 315.67 21.914 292.832 C 21.914 276.528 26.756 260.886 35.303 247.725 C 43.85 234.565 56.188 223.774 71.099 217.097 L 77.877 214.067 L 77.295 204.726 C 77.173 202.89 77.029 201.041 77.029 199.151 C 77.029 165.679 90.687 135.23 112.667 113.249 C 134.647 91.269 165.095 77.61 198.567 77.61 C 232.044 77.61 262.496 91.268 284.477 113.257 C 306.457 135.246 320.09 165.743 320.102 199.255 C 320.07 199.778 320.037 200.275 320.033 200.775 L 319.907 213.855 L 332.751 211.392 C 338.087 210.368 343.415 209.852 348.546 209.852 C 371.388 209.852 392.194 219.184 407.19 234.181 C 422.186 249.179 431.518 269.987 431.518 292.831 C 431.518 315.669 422.183 336.476 407.183 351.474 C 392.184 366.471 371.374 375.783 348.533 375.805 Z M 406.476 350.766 C 421.35 335.895 430.518 315.465 430.518 292.831 C 430.518 270.191 421.353 249.76 406.483 234.889 C 391.613 220.017 371.183 210.852 348.546 210.852 C 343.463 210.852 338.229 211.356 332.939 212.374 L 318.895 215.067 L 319.033 200.765 C 319.039 200.237 319.071 199.726 319.103 199.208 C 319.13 165.908 305.624 135.827 283.769 113.964 C 261.915 92.1 231.839 78.61 198.567 78.61 C 165.299 78.61 135.228 92.102 113.374 113.957 C 91.52 135.811 78.029 165.883 78.029 199.151 C 78.029 201.003 78.171 202.819 78.293 204.661 L 78.897 214.351 L 78.919 214.697 L 71.507 218.009 C 56.722 224.606 44.615 235.224 36.142 248.27 C 27.669 261.316 22.914 276.676 22.914 292.832 C 22.914 315.465 32.08 335.895 46.951 350.767 C 61.822 365.638 82.251 374.827 104.885 374.805 L 348.533 374.805 C 371.17 374.827 391.603 365.638 406.476 350.766 Z" style="fill: none;"/>
      <path d="M 453.921 292.832 C 453.921 321.853 442.072 348.265 423.016 367.321 C 403.96 386.378 377.549 398.203 348.533 398.225 L 104.885 398.225 C 75.863 398.203 49.454 386.376 30.399 367.319 C 11.345 348.262 -0.5 321.851 -0.5 292.832 C -0.5 254.043 20.949 218.598 54.619 200.264 C 54.612 199.891 54.609 199.623 54.609 199.151 C 54.609 159.496 70.781 123.444 96.82 97.406 C 122.858 71.368 158.909 55.197 198.559 55.197 C 236.369 55.197 270.907 69.896 296.6 93.827 C 322.294 117.758 339.118 150.76 342.067 187.654 C 344.238 187.517 346.237 187.444 348.533 187.444 C 377.549 187.444 403.96 199.291 423.016 218.346 C 442.072 237.402 453.921 263.812 453.921 292.832 Z M 422.309 219.053 C 403.378 200.124 377.345 188.444 348.533 188.444 C 346.255 188.444 343.963 188.527 341.641 188.684 L 341.146 188.717 L 341.108 188.223 C 338.325 151.32 321.487 118.373 295.919 94.559 C 270.35 70.744 236.174 56.197 198.559 56.197 C 159.114 56.197 123.44 72.2 97.527 98.113 C 71.614 124.025 55.609 159.7 55.609 199.151 C 55.609 199.619 55.613 200.076 55.627 200.542 L 55.636 200.851 L 55.364 200.997 C 21.729 219.106 0.5 254.301 0.5 292.832 C 0.5 321.646 12.178 347.681 31.106 366.612 C 50.035 385.544 76.068 397.247 104.885 397.225 L 348.533 397.225 C 377.345 397.247 403.378 385.545 422.309 366.614 C 441.24 347.684 452.921 321.649 452.921 292.832 C 452.921 264.017 441.24 237.983 422.309 219.053 Z M 348.533 375.805 L 104.885 375.805 C 82.047 375.783 61.241 366.471 46.244 351.474 C 31.247 336.476 21.914 315.67 21.914 292.832 C 21.914 276.528 26.756 260.886 35.303 247.725 C 43.85 234.565 56.188 223.774 71.099 217.097 L 77.877 214.067 L 77.295 204.726 C 77.173 202.89 77.029 201.041 77.029 199.151 C 77.029 165.679 90.687 135.23 112.667 113.249 C 134.647 91.269 165.095 77.61 198.567 77.61 C 232.044 77.61 262.496 91.268 284.477 113.257 C 306.457 135.246 320.09 165.743 320.102 199.255 C 320.07 199.778 320.037 200.275 320.033 200.775 L 319.907 213.855 L 332.751 211.392 C 338.087 210.368 343.415 209.852 348.546 209.852 C 371.388 209.852 392.194 219.184 407.19 234.181 C 422.186 249.179 431.518 269.987 431.518 292.831 C 431.518 315.669 422.183 336.476 407.183 351.474 C 392.184 366.471 371.374 375.783 348.533 375.805 Z M 406.476 350.766 C 421.35 335.895 430.518 315.465 430.518 292.831 C 430.518 270.191 421.353 249.76 406.483 234.889 C 391.613 220.017 371.183 210.852 348.546 210.852 C 343.463 210.852 338.229 211.356 332.939 212.374 L 318.895 215.067 L 319.033 200.765 C 319.039 200.237 319.071 199.726 319.103 199.208 C 319.13 165.908 305.624 135.827 283.769 113.964 C 261.915 92.1 231.839 78.61 198.567 78.61 C 165.299 78.61 135.228 92.102 113.374 113.957 C 91.52 135.811 78.029 165.883 78.029 199.151 C 78.029 201.003 78.171 202.819 78.293 204.661 L 78.897 214.351 L 78.919 214.697 L 71.507 218.009 C 56.722 224.606 44.615 235.224 36.142 248.27 C 27.669 261.316 22.914 276.676 22.914 292.832 C 22.914 315.465 32.08 335.895 46.951 350.767 C 61.822 365.638 82.251 374.827 104.885 374.805 L 348.533 374.805 C 371.17 374.827 391.603 365.638 406.476 350.766 Z" style="fill: none;"/>
    </g>
    <g transform="matrix(0.044199, 0, 0, 0.044199, 127.482468, 118.172714)" style="">
      <title>chip</title>
      <path d="M 145.067 256 C 131.909 256 119.467 268.442 119.467 281.6 L 119.467 366.933 C 119.467 380.091 131.909 392.533 145.067 392.533 L 162.134 392.533 C 175.292 392.533 187.734 380.091 187.734 366.933 C 187.734 363.102 192.436 358.4 196.259 358.4 L 230.4 358.4 C 234.223 358.4 238.933 363.102 238.933 366.933 C 238.933 380.091 251.375 392.533 264.533 392.533 L 342.912 392.533 C 346.445 402.449 355.823 409.6 366.933 409.6 C 381.047 409.6 392.533 398.114 392.533 384 C 392.533 369.886 381.047 358.4 366.933 358.4 C 355.823 358.4 346.444 365.551 342.912 375.467 L 264.533 375.467 C 260.71 375.467 256 370.765 256 366.934 C 256 353.776 243.558 341.334 230.4 341.334 L 196.258 341.334 C 183.1 341.334 170.667 353.776 170.667 366.934 C 170.667 370.765 165.957 375.467 162.134 375.467 L 145.067 375.467 C 141.244 375.467 136.534 370.765 136.534 366.934 L 136.534 281.6 C 136.534 277.769 141.244 273.067 145.067 273.067 C 158.225 273.067 170.667 260.625 170.667 247.467 C 170.667 234.309 158.225 221.867 145.067 221.867 C 141.244 221.867 136.534 217.165 136.534 213.334 L 136.534 145.067 C 136.534 141.236 141.244 136.534 145.067 136.534 L 366.934 136.534 C 370.757 136.534 375.467 141.236 375.467 145.067 L 375.467 281.6 C 375.467 285.431 370.757 290.133 366.934 290.133 L 339.755 290.133 C 337.186 282.905 331.503 277.214 324.267 274.636 L 324.267 220.296 C 334.174 216.755 341.334 207.377 341.334 196.266 C 341.334 182.152 329.848 170.666 315.734 170.666 C 301.62 170.666 290.134 182.152 290.134 196.266 C 290.134 207.376 297.293 216.755 307.201 220.287 L 307.201 274.636 C 299.965 277.213 294.282 282.905 291.713 290.133 L 230.4 290.133 C 226.577 290.133 221.867 285.431 221.867 281.6 L 221.867 254.43 C 231.774 250.889 238.934 241.511 238.934 230.4 C 238.934 216.286 227.448 204.8 213.334 204.8 C 199.22 204.8 187.734 216.286 187.734 230.4 C 187.734 241.51 194.893 250.889 204.801 254.421 L 204.801 281.6 C 204.801 294.758 217.243 307.2 230.401 307.2 L 291.713 307.2 C 295.246 317.116 304.624 324.267 315.734 324.267 C 326.844 324.267 336.223 317.116 339.755 307.2 L 366.934 307.2 C 380.092 307.2 392.534 294.758 392.534 281.6 L 392.534 145.067 C 392.534 131.909 380.092 119.467 366.934 119.467 L 145.067 119.467 C 131.909 119.467 119.467 131.909 119.467 145.067 L 119.467 213.334 C 119.467 226.492 131.909 238.934 145.067 238.934 C 148.89 238.934 153.6 243.636 153.6 247.467 C 153.6 251.298 148.89 256 145.067 256 Z M 366.933 375.467 C 371.643 375.467 375.466 379.298 375.466 384 C 375.466 388.702 371.643 392.533 366.933 392.533 C 362.223 392.533 358.4 388.702 358.4 384 C 358.4 379.298 362.223 375.467 366.933 375.467 Z M 213.333 238.933 C 208.623 238.933 204.8 235.102 204.8 230.4 C 204.8 225.698 208.623 221.867 213.333 221.867 C 218.043 221.867 221.866 225.698 221.866 230.4 C 221.867 235.102 218.044 238.933 213.333 238.933 Z M 315.733 187.733 C 320.443 187.733 324.266 191.564 324.266 196.266 C 324.266 200.968 320.443 204.799 315.733 204.799 C 311.023 204.799 307.2 200.968 307.2 196.266 C 307.2 191.565 311.023 187.733 315.733 187.733 Z M 315.733 307.2 C 311.023 307.2 307.2 303.369 307.2 298.667 C 307.2 293.965 311.023 290.134 315.733 290.134 C 320.443 290.134 324.266 293.965 324.266 298.667 C 324.266 303.369 320.444 307.2 315.733 307.2 Z"/>
      <path d="M 503.467 187.733 C 508.186 187.733 512 183.91 512 179.2 C 512 174.49 508.186 170.667 503.467 170.667 L 477.867 170.667 L 477.867 136.534 L 503.467 136.534 C 508.186 136.534 512 132.711 512 128.001 C 512 123.291 508.186 119.468 503.467 119.468 L 477.867 119.468 L 477.867 76.8 C 477.867 54.869 457.131 34.133 435.2 34.133 L 392.533 34.133 L 392.533 8.533 C 392.533 3.823 388.719 0 384 0 C 379.281 0 375.467 3.823 375.467 8.533 L 375.467 34.133 L 341.334 34.133 L 341.334 8.533 C 341.334 3.823 337.52 0 332.801 0 C 328.082 0 324.268 3.823 324.268 8.533 L 324.268 34.133 L 290.135 34.133 L 290.135 8.533 C 290.135 3.823 286.321 0 281.602 0 C 276.883 0 273.069 3.823 273.069 8.533 L 273.069 34.133 L 238.936 34.133 L 238.936 8.533 C 238.936 3.823 235.122 0 230.403 0 C 225.684 0 221.87 3.823 221.87 8.533 L 221.87 34.133 L 187.737 34.133 L 187.737 8.533 C 187.737 3.823 183.923 0 179.204 0 C 174.485 0 170.671 3.823 170.671 8.533 L 170.671 34.133 L 136.538 34.133 L 136.538 8.533 C 136.533 3.823 132.719 0 128 0 C 123.281 0 119.467 3.823 119.467 8.533 L 119.467 34.133 L 76.8 34.133 C 54.869 34.133 34.133 54.869 34.133 76.8 L 34.133 119.467 L 8.533 119.467 C 3.814 119.467 0 123.29 0 128 C 0 132.71 3.814 136.533 8.533 136.533 L 34.133 136.533 L 34.133 170.666 L 8.533 170.666 C 3.814 170.667 0 174.49 0 179.2 C 0 183.91 3.814 187.733 8.533 187.733 L 34.133 187.733 L 34.133 221.866 L 8.533 221.866 C 3.814 221.867 0 225.69 0 230.4 C 0 235.11 3.814 238.933 8.533 238.933 L 34.133 238.933 L 34.133 273.066 L 8.533 273.066 C 3.814 273.067 0 276.89 0 281.6 C 0 286.31 3.814 290.133 8.533 290.133 L 34.133 290.133 L 34.133 324.266 L 8.533 324.266 C 3.814 324.267 0 328.09 0 332.8 C 0 337.51 3.814 341.333 8.533 341.333 L 34.133 341.333 L 34.133 375.466 L 8.533 375.466 C 3.814 375.467 0 379.29 0 384 C 0 388.71 3.814 392.533 8.533 392.533 L 34.133 392.533 L 34.133 401.066 C 34.133 405.776 39.048 400.605 43.767 400.605 C 48.486 400.605 51.199 405.776 51.199 401.066 L 51.199 76.8 C 51.199 64.358 64.357 51.2 76.799 51.2 L 435.199 51.2 C 447.641 51.2 460.799 64.358 460.799 76.8 L 460.799 435.2 C 460.799 447.642 447.641 460.8 435.199 460.8 L 76.8 460.8 C 64.358 460.8 51.2 447.642 51.2 435.2 C 51.2 431.779 51.2 398.108 51.2 398.108 C 51.2 398.108 46.125 394.133 42.85 394.216 C 37.079 394.362 34.149 398.096 34.149 398.096 C 34.149 398.096 34.134 432.776 34.134 435.2 C 34.134 457.131 54.87 477.867 76.801 477.867 L 119.468 477.867 L 119.468 503.467 C 119.468 508.177 123.282 512 128.001 512 C 132.72 512 136.534 508.177 136.534 503.467 L 136.534 477.867 L 170.667 477.867 L 170.667 503.467 C 170.667 508.177 174.481 512 179.2 512 C 183.919 512 187.733 508.177 187.733 503.467 L 187.733 477.867 L 221.866 477.867 L 221.866 503.467 C 221.866 508.177 225.68 512 230.399 512 C 235.118 512 238.932 508.177 238.932 503.467 L 238.932 477.867 L 273.065 477.867 L 273.065 503.467 C 273.065 508.177 276.879 512 281.598 512 C 286.317 512 290.131 508.177 290.131 503.467 L 290.131 477.867 L 324.264 477.867 L 324.264 503.467 C 324.264 508.177 328.078 512 332.797 512 C 337.516 512 341.33 508.177 341.33 503.467 L 341.33 477.867 L 375.463 477.867 L 375.463 503.467 C 375.463 508.177 379.277 512 383.996 512 C 388.715 512 392.529 508.177 392.529 503.467 L 392.529 477.867 L 435.2 477.867 C 457.131 477.867 477.867 457.131 477.867 435.2 L 477.867 392.533 L 503.467 392.533 C 508.186 392.533 512 388.71 512 384 C 512 379.29 508.186 375.467 503.467 375.467 L 477.867 375.467 L 477.867 341.334 L 503.467 341.334 C 508.186 341.334 512 337.511 512 332.801 C 512 328.091 508.186 324.268 503.467 324.268 L 477.867 324.268 L 477.867 290.135 L 503.467 290.135 C 508.186 290.135 512 286.312 512 281.602 C 512 276.892 508.186 273.069 503.467 273.069 L 477.867 273.069 L 477.867 238.936 L 503.467 238.936 C 508.186 238.936 512 235.113 512 230.403 C 512 225.693 508.186 221.87 503.467 221.87 L 477.867 221.87 L 477.867 187.737 L 503.467 187.737 L 503.467 187.733 Z"/>
      <path d="M 94.123 102.4 C 98.833 102.4 102.656 98.577 102.656 93.867 C 102.656 89.157 98.833 85.334 94.123 85.334 L 94.029 85.334 C 89.327 85.334 85.547 89.157 85.547 93.867 C 85.547 98.577 89.412 102.4 94.123 102.4 Z"/>
      <path d="M 94.123 426.667 C 98.833 426.667 102.656 422.844 102.656 418.134 C 102.656 413.424 98.833 409.601 94.123 409.601 L 94.029 409.601 C 89.327 409.601 85.547 413.424 85.547 418.134 C 85.547 422.844 89.412 426.667 94.123 426.667 Z"/>
      <path d="M 418.389 426.667 C 423.099 426.667 426.922 422.844 426.922 418.134 C 426.922 413.424 423.099 409.601 418.389 409.601 L 418.295 409.601 C 413.593 409.601 409.813 413.424 409.813 418.134 C 409.813 422.844 413.67 426.667 418.389 426.667 Z"/>
      <path d="M 418.389 102.4 C 423.099 102.4 426.922 98.577 426.922 93.867 C 426.922 89.157 423.099 85.334 418.389 85.334 L 418.295 85.334 C 413.593 85.334 409.813 89.157 409.813 93.867 C 409.813 98.577 413.67 102.4 418.389 102.4 Z"/>
    </g>
  </g>
</svg>