<?xml version="1.0" encoding="utf-8"?>
<svg viewBox="95.212 155.843 44 44" xmlns="http://www.w3.org/2000/svg">
  <path d="M 115.612 193.493 L 104.612 187.043 C 104.145 186.776 103.787 186.41 103.537 185.943 C 103.287 185.476 103.162 184.976 103.162 184.443 L 103.162 171.593 C 103.162 171.06 103.287 170.56 103.537 170.093 C 103.787 169.626 104.145 169.26 104.612 168.993 L 115.662 162.443 C 116.128 162.176 116.645 162.043 117.212 162.043 C 117.778 162.043 118.295 162.176 118.762 162.443 L 129.812 168.993 C 130.278 169.26 130.637 169.626 130.887 170.093 C 131.137 170.56 131.262 171.06 131.262 171.593 L 131.262 184.443 C 131.262 184.976 131.128 185.476 130.862 185.943 C 130.595 186.41 130.228 186.776 129.762 187.043 L 118.612 193.493 C 118.145 193.76 117.645 193.893 117.112 193.893 C 116.578 193.893 116.078 193.76 115.612 193.493 Z M 115.712 190.043 L 115.712 178.843 L 106.212 173.393 L 106.212 184.343 L 115.712 190.043 Z M 118.712 190.043 L 128.262 184.343 L 128.262 173.393 L 118.712 178.843 L 118.712 190.043 Z M 95.212 165.293 L 95.212 161.443 C 95.212 159.91 95.762 158.593 96.862 157.493 C 97.962 156.393 99.278 155.843 100.812 155.843 L 104.662 155.843 L 104.662 158.843 L 100.812 158.843 C 100.078 158.843 99.462 159.093 98.962 159.593 C 98.462 160.093 98.212 160.71 98.212 161.443 L 98.212 165.293 L 95.212 165.293 Z M 100.812 199.843 C 99.278 199.843 97.962 199.293 96.862 198.193 C 95.762 197.093 95.212 195.776 95.212 194.243 L 95.212 190.393 L 98.212 190.393 L 98.212 194.243 C 98.212 194.976 98.462 195.593 98.962 196.093 C 99.462 196.593 100.078 196.843 100.812 196.843 L 104.662 196.843 L 104.662 199.843 L 100.812 199.843 Z M 129.762 199.643 L 129.762 196.643 L 133.612 196.643 C 134.345 196.643 134.962 196.393 135.462 195.893 C 135.962 195.393 136.212 194.776 136.212 194.043 L 136.212 190.193 L 139.212 190.193 L 139.212 194.043 C 139.212 195.576 138.662 196.893 137.562 197.993 C 136.462 199.093 135.145 199.643 133.612 199.643 L 129.762 199.643 Z M 136.212 165.293 L 136.212 161.443 C 136.212 160.71 135.962 160.093 135.462 159.593 C 134.962 159.093 134.345 158.843 133.612 158.843 L 129.762 158.843 L 129.762 155.843 L 133.612 155.843 C 135.145 155.843 136.462 156.393 137.562 157.493 C 138.662 158.593 139.212 159.91 139.212 161.443 L 139.212 165.293 L 136.212 165.293 Z M 117.212 176.143 L 126.712 170.643 L 117.212 165.193 L 107.712 170.643 L 117.212 176.143 Z M 117.262 178.843 Z M 117.212 176.143 Z M 118.712 178.843 Z M 115.712 178.843 Z"/>
</svg>