<?xml version="1.0" encoding="utf-8"?>
<svg viewBox="137.852 137.853 96.691 32.989" xmlns="http://www.w3.org/2000/svg">
  <path d="M 141.663 163.58 C 142.066 163.554 142.466 163.678 142.783 163.93 C 143.069 164.18 143.218 164.552 143.183 164.93 C 143.186 165.21 143.118 165.485 142.983 165.73 C 142.828 165.966 142.588 166.131 142.313 166.19 C 142.443 166.202 142.568 166.251 142.673 166.33 C 142.761 166.391 142.835 166.469 142.893 166.56 C 142.946 166.657 142.983 166.761 143.003 166.87 C 143.033 166.985 143.053 167.102 143.063 167.22 L 143.063 167.96 C 143.08 168.079 143.106 168.196 143.143 168.31 C 143.182 168.414 143.236 168.511 143.303 168.6 L 142.563 168.6 C 142.515 168.538 142.481 168.466 142.463 168.39 C 142.453 168.29 142.453 168.19 142.463 168.09 L 142.463 167.68 C 142.456 167.556 142.44 167.432 142.413 167.31 C 142.395 167.196 142.372 167.082 142.343 166.97 C 142.327 166.863 142.282 166.763 142.213 166.68 C 142.155 166.59 142.071 166.521 141.973 166.48 C 141.859 166.413 141.733 166.369 141.603 166.35 L 139.983 166.35 L 139.983 168.49 L 139.313 168.49 L 139.313 163.49 L 141.663 163.58 Z M 141.853 165.8 C 141.983 165.775 142.108 165.727 142.223 165.66 C 142.328 165.593 142.414 165.5 142.473 165.39 C 142.618 165.061 142.576 164.679 142.363 164.39 C 142.185 164.209 141.934 164.121 141.683 164.15 L 139.983 164.15 L 139.983 165.89 L 141.363 165.89 L 141.853 165.8 Z" style=""/>
  <path d="M 145.693 165.04 C 145.788 164.737 145.941 164.455 146.143 164.21 C 146.331 163.964 146.574 163.766 146.853 163.63 C 147.517 163.33 148.278 163.33 148.943 163.63 C 149.235 163.76 149.493 163.959 149.693 164.21 C 149.898 164.453 150.051 164.735 150.143 165.04 C 150.243 165.364 150.293 165.701 150.293 166.04 C 150.293 166.379 150.242 166.716 150.143 167.04 C 150.047 167.346 149.894 167.631 149.693 167.88 C 149.486 168.121 149.23 168.316 148.943 168.45 C 148.276 168.74 147.519 168.74 146.853 168.45 C 146.546 168.315 146.275 168.109 146.063 167.85 C 145.864 167.599 145.712 167.314 145.613 167.01 C 145.513 166.686 145.463 166.349 145.463 166.01 C 145.493 165.678 145.571 165.351 145.693 165.04 Z M 146.303 166.77 C 146.367 167.006 146.472 167.23 146.613 167.43 C 146.755 167.628 146.94 167.792 147.153 167.91 C 147.654 168.124 148.221 168.124 148.723 167.91 C 148.938 167.795 149.123 167.63 149.263 167.43 C 149.404 167.23 149.509 167.006 149.573 166.77 C 149.632 166.528 149.662 166.279 149.663 166.03 C 149.663 165.777 149.633 165.525 149.573 165.28 C 149.506 165.044 149.402 164.821 149.263 164.62 C 149.125 164.42 148.939 164.259 148.723 164.15 C 148.227 163.91 147.648 163.91 147.153 164.15 C 146.938 164.261 146.753 164.423 146.613 164.62 C 146.474 164.821 146.369 165.044 146.303 165.28 C 146.242 165.525 146.212 165.777 146.213 166.03 C 146.213 166.279 146.243 166.528 146.303 166.77 Z" style=""/>
  <path d="M 154.673 163.58 L 155.383 163.58 C 155.498 163.589 155.611 163.61 155.723 163.64 C 155.82 163.647 155.914 163.682 155.993 163.74 C 156.165 163.839 156.309 163.98 156.413 164.15 C 156.533 164.337 156.593 164.557 156.583 164.78 C 156.59 165.024 156.523 165.264 156.393 165.47 C 156.262 165.671 156.069 165.822 155.843 165.9 C 156.126 165.94 156.382 166.091 156.553 166.32 C 156.72 166.544 156.805 166.82 156.793 167.1 C 156.794 167.282 156.76 167.462 156.693 167.63 C 156.631 167.803 156.532 167.96 156.403 168.09 C 156.267 168.225 156.108 168.333 155.933 168.41 C 155.724 168.498 155.499 168.542 155.273 168.54 L 152.853 168.54 L 152.853 163.54 L 154.673 163.58 Z M 154.853 165.68 C 155.14 165.701 155.427 165.631 155.673 165.48 C 155.839 165.326 155.931 165.107 155.923 164.88 C 155.934 164.734 155.902 164.588 155.833 164.46 C 155.784 164.357 155.703 164.273 155.603 164.22 C 155.499 164.158 155.383 164.121 155.263 164.11 L 153.523 164.11 L 153.523 165.7 L 154.853 165.68 Z M 155.193 167.97 C 155.445 167.98 155.691 167.894 155.883 167.73 C 156.051 167.553 156.141 167.315 156.133 167.07 C 156.141 166.926 156.106 166.784 156.033 166.66 C 155.977 166.556 155.894 166.47 155.793 166.41 C 155.69 166.342 155.574 166.298 155.453 166.28 C 155.317 166.26 155.179 166.26 155.043 166.28 L 153.523 166.28 L 153.523 168.01 L 155.193 167.97 Z" style=""/>
  <path d="M 159.243 165.04 C 159.338 164.737 159.491 164.455 159.693 164.21 C 159.892 163.959 160.15 163.76 160.443 163.63 C 161.104 163.331 161.862 163.331 162.523 163.63 C 162.815 163.76 163.073 163.959 163.273 164.21 C 163.478 164.453 163.631 164.735 163.723 165.04 C 163.823 165.364 163.873 165.701 163.873 166.04 C 163.873 166.379 163.822 166.716 163.723 167.04 C 163.627 167.346 163.474 167.631 163.273 167.88 C 163.066 168.121 162.81 168.316 162.523 168.45 C 161.859 168.739 161.106 168.739 160.443 168.45 C 160.156 168.313 159.901 168.119 159.693 167.88 C 159.494 167.629 159.342 167.344 159.243 167.04 C 159.143 166.716 159.093 166.379 159.093 166.04 C 159.092 165.701 159.143 165.364 159.243 165.04 Z M 159.853 166.77 C 159.91 167.009 160.016 167.233 160.163 167.43 C 160.305 167.628 160.49 167.792 160.703 167.91 C 161.199 168.13 161.766 168.13 162.263 167.91 C 162.478 167.795 162.663 167.63 162.803 167.43 C 162.949 167.233 163.055 167.009 163.113 166.77 C 163.246 166.282 163.246 165.768 163.113 165.28 C 163.071 165.032 162.982 164.795 162.853 164.58 C 162.715 164.38 162.529 164.219 162.313 164.11 C 161.82 163.87 161.245 163.87 160.753 164.11 C 160.538 164.221 160.353 164.383 160.213 164.58 C 160.07 164.779 159.965 165.003 159.903 165.24 C 159.769 165.728 159.769 166.242 159.903 166.73 L 159.853 166.77 Z" style=""/>
  <path d="M 165.853 164.09 L 165.853 163.58 L 169.853 163.58 L 169.853 164.14 L 168.203 164.14 L 168.203 168.58 L 167.543 168.58 L 167.543 164.09 L 165.853 164.09 Z" style=""/>
  <path d="M 172.853 163.58 L 172.853 168.58 L 172.183 168.58 L 172.183 163.58 L 172.853 163.58 Z" style=""/>
  <path d="M 178.683 164.24 C 178.421 164.053 178.104 163.958 177.783 163.97 C 177.516 163.961 177.251 164.019 177.013 164.14 C 176.802 164.245 176.62 164.399 176.483 164.59 C 176.347 164.788 176.245 165.008 176.183 165.24 C 176.114 165.484 176.08 165.737 176.083 165.99 C 176.081 166.263 176.115 166.535 176.183 166.8 C 176.243 167.039 176.344 167.266 176.483 167.47 C 176.625 167.656 176.806 167.809 177.013 167.92 C 177.255 168.027 177.517 168.082 177.783 168.08 C 177.984 168.082 178.183 168.048 178.373 167.98 C 178.533 167.901 178.681 167.8 178.813 167.68 C 178.933 167.543 179.031 167.388 179.103 167.22 C 179.172 167.034 179.212 166.838 179.223 166.64 L 179.853 166.64 C 179.822 167.193 179.59 167.715 179.203 168.11 C 178.789 168.48 178.246 168.671 177.693 168.64 C 177.349 168.639 177.01 168.571 176.693 168.44 C 176.416 168.31 176.171 168.122 175.973 167.89 C 175.777 167.644 175.631 167.362 175.543 167.06 C 175.446 166.736 175.399 166.398 175.403 166.06 C 175.402 165.721 175.453 165.384 175.553 165.06 C 175.644 164.752 175.797 164.466 176.003 164.22 C 176.198 163.974 176.452 163.781 176.743 163.66 C 177.055 163.513 177.397 163.441 177.743 163.45 C 177.996 163.443 178.25 163.477 178.493 163.55 C 178.715 163.619 178.924 163.723 179.113 163.86 C 179.293 164.001 179.446 164.174 179.563 164.37 C 179.692 164.583 179.774 164.822 179.803 165.07 L 179.143 165.07 C 179.111 164.742 178.944 164.441 178.683 164.24 Z" style=""/>
  <path d="M 184.933 164.21 C 184.684 164.038 184.385 163.953 184.083 163.97 C 183.947 163.95 183.809 163.95 183.673 163.97 C 183.544 163.991 183.421 164.039 183.313 164.11 C 183.208 164.173 183.121 164.263 183.063 164.37 C 182.989 164.494 182.954 164.636 182.963 164.78 C 182.963 164.919 183.013 165.054 183.103 165.16 C 183.206 165.261 183.328 165.339 183.463 165.39 C 183.633 165.451 183.806 165.501 183.983 165.54 L 184.563 165.67 C 184.763 165.712 184.961 165.768 185.153 165.84 C 185.334 165.899 185.505 165.983 185.663 166.09 C 185.813 166.199 185.94 166.339 186.033 166.5 C 186.13 166.688 186.175 166.899 186.163 167.11 C 186.173 167.353 186.111 167.593 185.983 167.8 C 185.867 167.984 185.714 168.141 185.533 168.26 C 185.336 168.377 185.124 168.465 184.903 168.52 C 184.675 168.566 184.444 168.593 184.213 168.6 C 183.942 168.599 183.673 168.562 183.413 168.49 C 183.176 168.431 182.954 168.322 182.763 168.17 C 182.574 168.026 182.42 167.842 182.313 167.63 C 182.197 167.383 182.139 167.113 182.143 166.84 L 182.773 166.84 C 182.764 167.029 182.809 167.216 182.903 167.38 C 182.986 167.524 183.095 167.653 183.223 167.76 C 183.363 167.857 183.519 167.931 183.683 167.98 C 183.863 168.02 184.048 168.04 184.233 168.04 L 184.683 168.04 C 184.827 168.019 184.966 167.972 185.093 167.9 C 185.211 167.828 185.313 167.733 185.393 167.62 C 185.472 167.488 185.51 167.334 185.503 167.18 C 185.514 167.024 185.464 166.87 185.363 166.75 C 185.264 166.637 185.141 166.549 185.003 166.49 C 184.837 166.413 184.662 166.359 184.483 166.33 L 183.903 166.2 L 183.313 166.04 C 183.133 165.988 182.961 165.91 182.803 165.81 C 182.655 165.713 182.53 165.587 182.433 165.44 C 182.341 165.264 182.297 165.068 182.303 164.87 C 182.296 164.644 182.348 164.42 182.453 164.22 C 182.548 164.034 182.689 163.876 182.863 163.76 C 183.039 163.639 183.235 163.551 183.443 163.5 C 183.661 163.44 183.886 163.41 184.113 163.41 C 184.356 163.4 184.599 163.43 184.833 163.5 C 185.042 163.551 185.237 163.651 185.403 163.79 C 185.574 163.915 185.709 164.085 185.793 164.28 C 185.896 164.502 185.951 164.745 185.953 164.99 L 185.323 164.99 C 185.319 164.684 185.175 164.397 184.933 164.21 Z" style=""/>
  <path d="M 178.953 147.07 L 184.233 147.07 C 184.233 147.07 167.463 133.41 154.853 139.35 C 164.343 138.1 172.943 143.35 178.953 147.07 Z" style="stroke-linecap: round; stroke-linejoin: round; stroke-width: 0.54px; stroke: rgb(0, 0, 0);"/>
  <path d="M 193.583 161.63 L 188.293 161.63 C 188.293 161.63 205.103 175.28 217.723 169.35 C 208.193 170.58 199.593 165.35 193.583 161.63 Z" style="stroke-linecap: round; stroke-linejoin: round; stroke-width: 0.54px; stroke: rgb(0, 0, 0);"/>
  <path d="M 137.853 154.58 C 137.814 151.78 140.052 149.478 142.853 149.44 L 142.953 149.44 C 144.217 149.399 145.45 149.838 146.403 150.67 C 146.625 150.869 146.752 151.152 146.753 151.45 C 146.753 152.002 146.305 152.45 145.753 152.45 C 145.512 152.441 145.279 152.361 145.083 152.22 C 144.511 151.69 143.762 151.39 142.983 151.38 C 141.329 151.434 140.032 152.817 140.083 154.47 C 139.98 156.121 141.232 157.543 142.883 157.65 L 143.083 157.65 C 143.896 157.638 144.677 157.324 145.273 156.77 C 145.455 156.631 145.683 156.563 145.913 156.58 C 146.465 156.58 146.913 157.028 146.913 157.58 C 146.919 157.853 146.801 158.114 146.593 158.29 C 145.644 159.224 144.353 159.726 143.023 159.68 C 140.264 159.776 137.95 157.618 137.853 154.86 L 137.853 154.58 Z" style=""/>
  <path d="M 148.373 156.63 C 148.373 154.51 150.033 153.46 152.433 153.46 C 153.332 153.45 154.228 153.589 155.083 153.87 L 155.083 153.63 C 155.083 152.24 154.223 151.49 152.643 151.49 C 151.898 151.48 151.158 151.612 150.463 151.88 C 150.348 151.91 150.231 151.93 150.113 151.94 C 149.6 151.975 149.155 151.592 149.113 151.08 L 149.113 151.01 C 149.121 150.616 149.36 150.264 149.723 150.11 C 150.723 149.736 151.785 149.556 152.853 149.58 C 154.042 149.489 155.217 149.882 156.113 150.67 C 156.854 151.487 157.236 152.568 157.173 153.67 L 157.173 158.51 C 157.173 159.082 156.724 159.553 156.153 159.58 C 155.599 159.638 155.105 159.234 155.053 158.68 L 155.053 158.26 C 154.257 159.192 153.077 159.708 151.853 159.66 C 150.013 159.66 148.373 158.58 148.373 156.63 Z M 155.103 155.92 L 155.103 155.25 C 154.383 154.981 153.62 154.848 152.853 154.86 C 151.403 154.86 150.543 155.47 150.543 156.5 C 150.543 157.44 151.383 157.99 152.463 157.99 C 153.983 158.03 155.103 157.17 155.103 155.92 Z" style=""/>
  <path d="M 159.963 150.65 C 159.94 150.035 160.427 149.521 161.043 149.51 L 161.103 149.51 C 161.729 149.499 162.243 150.004 162.243 150.63 L 162.243 151.63 C 162.59 150.496 163.552 149.658 164.723 149.47 C 165.269 149.405 165.765 149.794 165.833 150.34 C 165.849 150.419 165.856 150.5 165.853 150.58 C 165.874 151.114 165.491 151.579 164.963 151.66 C 163.363 151.94 162.263 153.17 162.263 155.5 L 162.263 158.4 C 162.297 159.046 161.779 159.587 161.133 159.58 C 160.527 159.58 160.033 159.095 160.023 158.49 L 159.963 150.65 Z" style=""/>
  <path d="M 171.853 159.68 C 169.148 159.73 166.913 157.584 166.853 154.88 L 166.853 154.58 C 166.722 151.882 168.804 149.589 171.503 149.46 L 171.663 149.46 C 174.231 149.438 176.327 151.511 176.333 154.08 C 176.338 154.153 176.338 154.227 176.333 154.3 C 176.361 154.849 175.941 155.318 175.393 155.35 L 169.033 155.35 C 169.164 156.798 170.4 157.893 171.853 157.85 C 172.707 157.849 173.533 157.544 174.183 156.99 C 174.339 156.851 174.544 156.78 174.753 156.79 C 175.246 156.779 175.653 157.176 175.653 157.67 C 175.646 157.93 175.539 158.178 175.353 158.36 C 174.397 159.23 173.145 159.702 171.853 159.68 Z M 174.133 153.85 C 174.155 152.449 173.043 151.293 171.643 151.26 C 170.243 151.318 169.128 152.45 169.093 153.85 L 174.133 153.85 Z" style=""/>
  <path d="M 182.623 159.58 L 182.553 159.58 C 182.174 159.571 181.844 159.321 181.733 158.96 L 178.103 150.81 C 178.063 150.682 178.033 150.552 178.013 150.42 C 178.018 150.022 178.345 149.704 178.743 149.71 C 179.085 149.702 179.386 149.936 179.463 150.27 L 182.573 157.79 L 185.743 150.23 C 185.814 149.919 186.094 149.702 186.413 149.71 C 186.805 149.71 187.123 150.028 187.123 150.42 C 187.121 150.541 187.094 150.66 187.043 150.77 L 183.413 158.96 C 183.307 159.313 182.991 159.562 182.623 159.58 Z" style=""/>
  <path d="M 188.513 156.67 C 188.513 154.67 190.183 153.56 192.623 153.56 C 193.638 153.54 194.65 153.679 195.623 153.97 L 195.623 153.63 C 195.623 151.9 194.563 151.01 192.763 151.01 C 191.9 151.004 191.046 151.188 190.263 151.55 C 190.176 151.56 190.089 151.56 190.003 151.55 C 189.662 151.55 189.383 151.28 189.373 150.94 C 189.371 150.68 189.524 150.444 189.763 150.34 C 190.751 149.901 191.821 149.679 192.903 149.69 C 194.04 149.604 195.164 149.987 196.013 150.75 C 196.722 151.507 197.085 152.525 197.013 153.56 L 197.013 158.88 C 197.03 159.256 196.738 159.574 196.363 159.59 C 196 159.602 195.694 159.322 195.673 158.96 L 195.673 158.05 C 194.824 159.124 193.51 159.723 192.143 159.66 C 190.313 159.66 188.513 158.64 188.513 156.67 Z M 195.603 155.92 L 195.603 154.99 C 194.684 154.719 193.731 154.58 192.773 154.58 C 190.973 154.58 189.963 155.36 189.963 156.58 C 189.963 157.79 191.083 158.5 192.383 158.5 C 194.153 158.58 195.603 157.45 195.603 155.92 Z" style=""/>
  <path d="M 200.433 156.91 L 200.433 151.1 L 199.643 151.1 C 199.3 151.08 199.027 150.803 199.013 150.46 C 199.018 150.114 199.297 149.835 199.643 149.83 L 200.433 149.83 L 200.433 147.58 C 200.421 147.188 200.73 146.861 201.123 146.85 C 201.521 146.861 201.842 147.181 201.853 147.58 L 201.853 149.85 L 204.353 149.85 C 204.841 149.789 205.213 150.279 205.022 150.733 C 204.911 150.998 204.637 151.156 204.353 151.12 L 201.853 151.12 L 201.853 156.74 C 201.732 157.515 202.259 158.242 203.033 158.37 C 203.179 158.39 203.327 158.39 203.473 158.37 C 203.769 158.352 204.063 158.308 204.353 158.24 C 204.693 158.24 204.968 158.519 204.963 158.86 C 204.95 159.112 204.789 159.332 204.553 159.42 C 204.099 159.592 203.618 159.68 203.133 159.68 C 201.788 159.832 200.574 158.865 200.423 157.52 C 200.399 157.317 200.403 157.112 200.433 156.91 Z" style=""/>
  <path d="M 215.703 158.83 C 215.703 159.377 215.111 159.718 214.638 159.445 C 214.418 159.318 214.283 159.084 214.283 158.83 L 214.283 157.78 C 213.621 158.975 212.348 159.7 210.983 159.66 C 209.049 159.757 207.4 158.273 207.293 156.34 C 207.277 156.164 207.277 155.986 207.293 155.81 L 207.293 150.46 C 207.276 150.079 207.571 149.756 207.953 149.74 C 208.352 149.729 208.683 150.05 208.683 150.45 L 208.683 155.45 C 208.484 157.031 209.751 158.412 211.343 158.35 C 212.919 158.395 214.234 157.156 214.283 155.58 C 214.288 155.517 214.288 155.453 214.283 155.39 L 214.283 150.49 C 214.271 150.103 214.576 149.781 214.963 149.77 C 215.355 149.77 215.673 150.088 215.673 150.48 L 215.703 158.83 Z" style=""/>
  <path d="M 218.923 150.46 C 218.917 150.068 219.23 149.746 219.623 149.74 C 220.009 149.729 220.332 150.033 220.343 150.42 L 220.343 152.27 C 220.875 150.855 222.159 149.86 223.663 149.7 C 224.046 149.689 224.363 149.997 224.363 150.38 C 224.37 150.747 224.097 151.059 223.733 151.1 C 221.853 151.38 220.353 152.77 220.353 155.58 L 220.353 158.86 C 220.4 159.255 220.117 159.613 219.723 159.66 C 219.329 159.701 218.975 159.422 218.923 159.03 C 218.912 158.974 218.912 158.916 218.923 158.86 L 218.923 150.46 Z" style=""/>
  <path d="M 230.263 159.68 C 227.623 159.691 225.474 157.56 225.463 154.92 L 225.463 154.68 C 225.32 152.066 227.319 149.83 229.933 149.68 L 230.073 149.68 C 232.923 149.68 234.543 152 234.543 154.55 C 234.548 154.92 234.253 155.225 233.883 155.23 L 226.853 155.23 C 226.912 157.054 228.417 158.497 230.243 158.48 C 231.301 158.494 232.323 158.088 233.083 157.35 C 233.191 157.241 233.339 157.18 233.493 157.18 C 233.962 157.163 234.273 157.661 234.053 158.076 C 234.015 158.146 233.964 158.209 233.903 158.26 C 232.939 159.219 231.621 159.733 230.263 159.68 Z M 233.103 154.11 C 232.953 152.36 231.943 150.84 230.033 150.84 C 228.29 150.935 226.921 152.365 226.903 154.11 L 233.103 154.11 Z" style=""/>
  <path d="M 138.763 148.35 C 139.704 147.513 140.923 147.056 142.183 147.07 C 142.592 147.07 143.001 147.11 143.403 147.19 C 146.112 143.872 149.613 141.289 153.583 139.68 C 152.723 139.73 143.283 140.58 138.763 148.35 Z" style="stroke-linecap: round; stroke-linejoin: round; stroke-width: 0.54px; stroke: rgb(0, 0, 0);"/>
  <path d="M 231.023 161.63 C 230.591 161.618 230.162 161.561 229.743 161.46 C 226.757 164.762 223.061 167.343 218.933 169.01 C 224.772 168.588 230.159 165.714 233.763 161.1 L 233.373 161.1 C 232.642 161.46 231.837 161.642 231.023 161.63 Z" style="stroke-linecap: round; stroke-linejoin: round; stroke-width: 0.54px; stroke: rgb(0, 0, 0);"/>
</svg>