<?xml version="1.0" encoding="utf-8"?>
<svg viewBox="82.995 169.457 219.999 32.799" xmlns="http://www.w3.org/2000/svg">
  <path d="M 134.061 172.217 L 134.061 182.736 C 132.555 181.305 130.509 180.424 128.253 180.424 C 123.632 180.424 119.885 184.114 119.885 188.666 C 119.885 193.218 123.632 196.909 128.253 196.909 C 132.682 196.909 136.306 193.517 136.598 189.227 L 136.62 189.255 L 136.62 172.217 L 134.061 172.217 Z M 128.253 194.387 C 125.044 194.387 122.445 191.827 122.445 188.666 C 122.445 185.506 125.044 182.945 128.253 182.945 C 131.461 182.945 134.061 185.506 134.061 188.666 C 134.061 191.827 131.461 194.387 128.253 194.387 Z" style=""/>
  <path d="M 186.263 180.424 C 181.833 180.424 178.21 183.815 177.917 188.106 L 177.895 188.077 L 177.895 202.256 L 180.455 202.256 L 180.455 194.596 C 181.96 196.027 184.007 196.908 186.263 196.908 C 190.884 196.908 194.631 193.218 194.631 188.666 C 194.631 184.114 190.884 180.424 186.263 180.424 Z M 186.263 194.387 C 183.054 194.387 180.455 191.827 180.455 188.666 C 180.455 185.506 183.054 182.945 186.263 182.945 C 189.472 182.945 192.071 185.506 192.071 188.666 C 192.071 191.827 189.472 194.387 186.263 194.387 Z" style=""/>
  <path d="M 147.958 180.449 C 143.35 180.449 139.615 184.129 139.615 188.668 C 139.615 193.206 143.35 196.886 147.958 196.886 C 150.51 196.886 152.795 195.756 154.324 193.976 L 152.802 192.248 C 151.698 193.696 149.939 194.633 147.958 194.633 C 144.874 194.633 142.33 192.362 141.951 189.426 L 155.593 189.426 C 155.616 189.175 155.631 188.923 155.631 188.668 C 155.631 184.129 152.566 180.449 147.958 180.449 Z M 142.08 187.23 C 142.734 184.63 145.117 182.702 147.96 182.702 C 150.803 182.702 152.516 184.63 153.168 187.23 L 142.08 187.23 Z" style=""/>
  <path d="M 166.799 180.449 C 162.191 180.449 158.456 184.129 158.456 188.668 C 158.456 193.206 162.191 196.886 166.799 196.886 C 169.352 196.886 171.637 195.756 173.165 193.976 L 171.643 192.248 C 170.539 193.696 168.781 194.633 166.799 194.633 C 163.715 194.633 161.172 192.362 160.792 189.426 L 174.435 189.426 C 174.457 189.175 174.473 188.923 174.473 188.668 C 174.473 184.129 171.407 180.449 166.799 180.449 Z M 160.922 187.23 C 161.576 184.63 163.958 182.702 166.801 182.702 C 169.644 182.702 171.358 184.63 172.009 187.23 L 160.922 187.23 Z" style=""/>
  <path d="M 229.748 186.863 L 229.748 196.717 L 228.763 196.717 L 228.763 186.863 C 228.763 185.356 228.331 184.138 227.467 183.213 C 226.604 182.287 225.449 181.824 224.006 181.824 C 222.518 181.824 221.295 182.298 220.334 183.246 C 219.372 184.193 218.89 185.4 218.89 186.863 L 218.89 196.717 L 217.906 196.717 L 217.906 172.485 L 218.89 172.485 L 218.89 183.696 C 219.961 181.821 221.679 180.885 224.04 180.885 C 225.789 180.885 227.176 181.435 228.205 182.534 C 229.235 183.632 229.748 185.074 229.748 186.863 Z" style=""/>
  <path d="M 269.928 196.717 L 269.928 172.485 L 270.913 172.485 L 270.913 196.717 L 269.928 196.717 Z M 272.881 188.026 L 281.212 196.717 L 279.9 196.717 L 271.535 187.993 L 279.046 181.208 L 280.456 181.208 L 272.881 188.026 Z" style=""/>
  <path d="M 283.016 193.352 L 283.803 192.769 C 285.247 194.794 286.972 195.807 288.987 195.807 C 290.146 195.807 291.091 195.532 291.823 194.982 C 292.555 194.433 292.921 193.664 292.921 192.672 C 292.854 191.747 292.571 191.057 292.07 190.604 C 291.565 190.152 290.657 189.635 289.345 189.052 L 287.97 188.439 C 286.635 187.857 285.661 187.277 285.051 186.694 C 284.439 186.112 284.131 185.358 284.131 184.432 C 284.131 183.248 284.601 182.322 285.542 181.654 C 286.481 180.944 287.607 180.588 288.919 180.588 C 290.865 180.588 292.517 181.417 293.873 183.076 L 293.153 183.722 C 291.905 182.259 290.473 181.524 288.855 181.524 C 287.807 181.524 286.931 181.777 286.231 182.283 C 285.532 182.788 285.183 183.494 285.183 184.399 C 285.204 184.766 285.275 185.083 285.397 185.353 C 285.517 185.624 285.619 185.832 285.709 185.984 C 285.795 186.136 286.032 186.323 286.413 186.549 C 286.795 186.775 287.069 186.927 287.233 187.002 C 287.397 187.076 287.817 187.277 288.495 187.6 L 289.971 188.246 C 291.327 188.828 292.332 189.441 292.988 190.088 C 293.643 190.734 293.971 191.573 293.971 192.609 C 293.971 193.901 293.479 194.914 292.495 195.646 C 291.533 196.378 290.341 196.745 288.919 196.745 C 286.469 196.745 284.502 195.613 283.016 193.352 Z" style=""/>
  <path d="M 213.423 193.229 C 212.095 194.796 210.101 195.792 207.867 195.792 C 203.873 195.792 200.635 192.602 200.635 188.668 C 200.635 184.734 203.873 181.544 207.867 181.544 C 210.087 181.544 212.073 182.531 213.401 184.083 L 214.119 183.487 C 212.62 181.736 210.377 180.621 207.869 180.621 C 203.355 180.621 199.698 184.226 199.698 188.67 C 199.698 193.117 203.358 196.719 207.869 196.719 C 210.397 196.719 212.658 195.587 214.155 193.811 L 213.423 193.229 Z" style=""/>
  <path d="M 265.391 193.229 C 264.062 194.796 262.067 195.792 259.835 195.792 C 255.84 195.792 252.603 192.602 252.603 188.668 C 252.603 184.734 255.84 181.544 259.835 181.544 C 262.055 181.544 264.041 182.531 265.368 184.083 L 266.086 183.487 C 264.588 181.736 262.345 180.621 259.836 180.621 C 255.323 180.621 251.665 184.226 251.665 188.67 C 251.665 193.117 255.325 196.719 259.836 196.719 C 262.365 196.719 264.624 195.587 266.122 193.811 L 265.391 193.229 Z" style=""/>
  <path d="M 241.339 180.615 C 236.825 180.615 233.167 184.22 233.167 188.664 C 233.167 193.109 236.827 196.713 241.339 196.713 C 243.879 196.713 246.147 195.572 247.647 193.781 L 246.929 193.153 C 245.606 194.748 243.593 195.768 241.339 195.768 C 237.356 195.768 234.128 192.588 234.128 188.664 L 248.618 188.664 C 248.618 184.22 245.851 180.615 241.339 180.615 Z M 234.186 187.776 C 234.629 184.273 237.662 181.561 241.339 181.561 C 245.016 181.561 247.156 184.273 247.6 187.776 L 234.186 187.776 Z" style=""/>
  <path d="M 90.481 184.495 L 90.503 184.524 C 90.798 180.234 94.419 176.842 98.848 176.842 C 98.85 176.842 98.853 176.842 98.853 176.842 C 98.855 176.842 98.857 176.842 98.857 176.842 C 101.113 176.842 103.161 177.724 104.665 179.155 L 104.665 170.543 C 102.869 169.844 100.91 169.457 98.859 169.457 C 90.097 169.457 82.995 176.453 82.995 185.085 C 82.995 190.685 85.987 195.595 90.481 198.354 L 90.481 184.495 Z" style=""/>
  <path d="M 107.226 171.809 L 107.226 185.676 L 107.204 185.647 C 106.911 189.937 103.288 193.329 98.859 193.329 C 98.856 193.329 98.854 193.329 98.854 193.329 C 98.852 193.329 98.85 193.329 98.85 193.329 C 96.594 193.329 94.545 192.448 93.042 191.017 L 93.042 199.626 C 94.844 200.327 96.806 200.716 98.861 200.716 C 107.623 200.716 114.725 193.72 114.725 185.089 C 114.725 179.48 111.727 174.567 107.226 171.809 Z" style=""/>
  <path d="M 103.701 181.926 C 103.65 182.192 103.556 182.454 103.411 182.7 C 102.717 183.885 101.182 184.289 99.98 183.605 C 98.777 182.922 98.366 181.41 99.06 180.225 C 99.25 179.902 99.504 179.638 99.794 179.438 C 99.491 179.39 99.178 179.363 98.859 179.363 C 95.651 179.363 93.051 181.924 93.051 185.085 C 93.051 188.245 95.653 190.806 98.859 190.806 C 102.066 190.806 104.668 188.245 104.668 185.085 C 104.668 183.918 104.313 182.832 103.701 181.926 Z" style=""/>
  <path d="M 300.482 196.745 C 301.868 196.745 302.994 195.637 302.994 194.27 C 302.994 192.903 301.868 191.795 300.482 191.795 C 299.094 191.795 297.968 192.903 297.968 194.27 C 297.968 195.637 299.094 196.745 300.482 196.745 Z" style=""/>
</svg>