<?xml version="1.0" encoding="utf-8"?>
<svg viewBox="77.83 200.029 338.928 158.341" xmlns="http://www.w3.org/2000/svg">
  <path d="M 171.358 255.757 L 191.638 255.757 L 191.638 325.697 L 171.358 325.697 Z M 181.498 246.007 Q 175.908 246.007 172.398 242.757 Q 168.888 239.507 168.888 234.697 Q 168.888 229.887 172.398 226.637 Q 175.908 223.387 181.498 223.387 Q 187.088 223.387 190.598 226.507 Q 194.108 229.627 194.108 234.307 Q 194.108 239.377 190.598 242.692 Q 187.088 246.007 181.498 246.007 Z" style="fill: rgb(0, 0, 0); white-space: pre;"/>
  <path d="M 255.594 322.317 Q 252.604 324.527 248.249 325.632 Q 243.894 326.737 239.084 326.737 Q 226.604 326.737 219.779 320.367 Q 212.954 313.997 212.954 301.647 L 212.954 272.917 L 202.164 272.917 L 202.164 257.317 L 212.954 257.317 L 212.954 240.287 L 233.234 240.287 L 233.234 257.317 L 250.654 257.317 L 250.654 272.917 L 233.234 272.917 L 233.234 301.387 Q 233.234 305.807 235.509 308.212 Q 237.784 310.617 241.944 310.617 Q 246.754 310.617 250.134 308.017 Z" style="fill: rgb(0, 0, 0); white-space: pre;"/>
  <path d="M 298.623 326.737 Q 287.443 326.737 278.538 322.122 Q 269.633 317.507 264.628 309.317 Q 259.623 301.127 259.623 290.727 Q 259.623 280.327 264.628 272.137 Q 269.633 263.947 278.538 259.332 Q 287.443 254.717 298.623 254.717 Q 309.673 254.717 317.928 259.332 Q 326.183 263.947 329.953 272.527 L 314.223 280.977 Q 308.763 271.357 298.493 271.357 Q 290.563 271.357 285.363 276.557 Q 280.163 281.757 280.163 290.727 Q 280.163 299.697 285.363 304.897 Q 290.563 310.097 298.493 310.097 Q 308.893 310.097 314.223 300.477 L 329.953 309.057 Q 326.183 317.377 317.928 322.057 Q 309.673 326.737 298.623 326.737 Z" style="fill: rgb(0, 0, 0); white-space: pre;"/>
  <path d="M 141.852 269.529 L 102.225 284.047 L 141.852 298.446 L 141.852 313.321 L 85.208 291.782 L 85.208 276.312 L 141.852 254.773 Z" style="fill: rgb(0, 0, 0); white-space: pre;"/>
  <path d="M 409.493 276.312 L 409.493 291.782 L 352.849 313.321 L 352.849 298.446 L 392.476 284.047 L 352.849 269.529 L 352.849 254.773 Z" style="fill: rgb(0, 0, 0); white-space: pre;"/>
</svg>