<?xml version="1.0" encoding="utf-8"?>
<svg viewBox="15.686 11.568 274.6 169.356" xmlns="http://www.w3.org/2000/svg">
  <path d="M 159.246 125.366 L 159.246 105.526 C 159.246 98.566 162.846 95.046 168.446 95.046 C 173.406 95.046 176.046 97.366 176.046 104.566 L 176.046 125.366 L 186.526 125.366 L 186.526 101.926 C 186.526 90.006 180.526 85.686 172.126 85.686 C 167.166 85.686 162.606 87.446 159.406 91.046 L 159.246 91.046 L 159.246 66.486 L 148.766 66.486 L 148.766 125.366 L 159.246 125.366 Z M 213.006 126.006 C 218.046 126.006 222.046 124.086 224.686 120.646 L 224.926 120.646 L 224.926 125.366 L 234.846 125.366 L 234.846 86.326 L 224.446 86.326 L 224.446 90.726 L 224.206 90.726 C 221.406 87.366 217.406 85.686 212.766 85.686 C 202.286 85.686 194.366 94.086 194.366 105.926 C 194.366 118.006 202.206 126.006 213.006 126.006 Z M 214.926 116.646 C 209.086 116.646 204.926 112.326 204.926 106.006 C 204.926 99.286 209.406 95.046 215.006 95.046 C 220.686 95.046 224.846 99.766 224.846 106.006 C 224.846 112.406 220.366 116.646 214.926 116.646 Z M 250.846 80.806 C 254.446 80.806 257.406 77.926 257.406 74.406 C 257.406 70.886 254.446 68.006 250.846 68.006 C 247.326 68.006 244.366 70.886 244.366 74.406 C 244.366 77.926 247.326 80.806 250.846 80.806 Z M 256.046 125.366 L 256.046 86.326 L 245.566 86.326 L 245.566 125.366 L 256.046 125.366 Z M 277.566 125.366 L 277.566 107.206 C 277.566 101.446 281.086 97.046 287.566 97.046 C 288.126 97.046 289.246 97.046 290.286 97.126 L 290.286 85.766 C 290.126 85.686 289.806 85.686 289.486 85.686 C 284.846 85.686 280.606 87.926 277.646 92.086 L 277.566 92.086 L 277.566 86.326 L 267.086 86.326 L 267.086 125.366 L 277.566 125.366 Z" id="hair"/>
  <path d="M 22.646 125.366 L 22.646 81.846 L 22.806 81.846 L 41.286 113.926 L 46.006 113.926 L 64.486 81.846 L 64.646 81.846 L 64.646 125.366 L 71.606 125.366 L 71.606 68.566 L 64.646 68.566 L 43.766 105.286 L 43.606 105.286 L 22.726 68.566 L 15.686 68.566 L 15.686 125.366 L 22.646 125.366 Z M 103.286 125.366 C 121.366 125.366 132.486 113.766 132.486 97.046 C 132.486 80.246 121.046 68.566 103.046 68.566 L 86.006 68.566 L 86.006 125.366 L 103.286 125.366 Z M 102.806 119.046 L 92.966 119.046 L 92.966 74.886 L 103.126 74.886 C 116.406 74.886 125.366 84.006 125.366 97.046 C 125.366 109.846 116.486 119.046 102.806 119.046 Z" id="MD"/>
  <path d="M 186.69 19.49 C 187.739 18.208 189.629 18.018 190.911 19.067 C 192.145 20.076 192.367 21.862 191.45 23.138 L 191.335 23.289 L 176.194 41.804 C 175.145 43.086 173.255 43.276 171.973 42.227 C 170.739 41.218 170.517 39.432 171.434 38.156 L 171.549 38.005 L 186.69 19.49 Z" id="Line" transform="matrix(-1, 0, 0, -1, 362.884008, 61.294003)"/>
  <path d="M 123.49 41.804 C 124.539 43.086 126.429 43.276 127.711 42.227 C 128.945 41.218 129.167 39.432 128.25 38.156 L 128.135 38.005 L 112.994 19.49 C 111.945 18.208 110.055 18.018 108.773 19.067 C 107.539 20.076 107.317 21.862 108.234 23.138 L 108.349 23.289 L 123.49 41.804 Z" id="Line"/>
  <path d="M 151.486 11.568 C 153.083 11.568 154.389 12.817 154.48 14.392 L 154.486 14.568 L 154.486 40.879 C 154.486 42.536 153.142 43.879 151.486 43.879 C 149.888 43.879 148.582 42.63 148.491 41.055 L 148.486 40.879 L 148.486 14.568 C 148.486 12.911 149.829 11.568 151.486 11.568 Z" id="Line" transform="matrix(-1, 0, 0, -1, 302.971989, 55.447003)"/>
  <rect x="31.578" y="126.006" width="243.913" height="54.918" style="fill: none;">
    <title>spacer</title>
  </rect>
</svg>