<?xml version="1.0" encoding="UTF-8"?>
<svg xmlns="http://www.w3.org/2000/svg" width="109" height="55" viewBox="0 0 109 55" fill="none">
  <g >
    <path d="M84.3234 42.2359H81.0913L86.6421 48.2746L80.6205 54.8037H83.7824L88.2441 49.9559L92.6496 54.8037H95.8958L89.8531 48.2536L95.404 42.2288H92.2421L88.2722 46.5722L84.3234 42.2288V42.2359ZM67.3196 42.2359V54.8037H79.5244V52.5829H69.8631V49.4655H78.5196V47.2588H69.8631V44.4566H79.5244V42.2359H67.3196ZM54.2857 54.8037H65.7316V52.5829H56.8644V42.2359H54.2857V54.8037ZM42.5446 47.9944V44.4216H47.709C49.1986 44.4216 50.0769 45.0661 50.0769 46.208C50.0769 47.3499 49.1986 47.9944 47.709 47.9944H42.5446ZM42.5446 50.1801H47.8495C50.7304 50.1801 52.6275 48.8 52.6275 46.208C52.6275 43.6159 50.7304 42.2359 47.8495 42.2359H39.966V54.8037H42.5446V50.1801ZM30.0658 54.8037L34.633 44.6808V54.8037H37.1624V42.2359H33.2839L29.054 51.6582L24.8241 42.2359H20.8894V54.8037H23.3978V44.6808L27.979 54.8037H30.0658ZM18.1491 42.2359H15.5704V54.8037H18.1491V42.2359ZM0 52.0785C1.22961 53.8439 4.21582 54.9998 7.21608 54.9998C10.7784 54.9998 13.5398 53.6198 13.5398 50.8666C13.5398 48.1134 11.0103 47.6791 7.42687 47.2798C4.22987 46.9155 3.38671 46.7054 3.38671 45.7946C3.38671 44.954 4.40553 44.2394 6.65397 44.2394C8.9024 44.2394 10.5887 44.954 11.5513 46.201L13.2728 44.5547C12.1345 43.0485 9.60504 42.0537 6.79449 42.0537C3.21105 42.0537 0.878296 43.679 0.878296 46.0608C0.878296 48.4427 3.24618 49.1222 6.33778 49.4725C9.8861 49.8578 10.919 49.9629 10.919 51.1538C10.919 52.1696 9.42938 52.8001 7.32147 52.8001C5.45949 52.8001 3.17592 52.2046 1.73551 50.2781L0 52.0785Z" fill="#000000"></path>
    <path d="M104.691 46.103V43.3638H105.997C107.03 43.3638 107.613 43.9033 107.613 44.7369C107.613 45.5706 107.03 46.11 106.004 46.11H104.684L104.691 46.103ZM103.327 47.2659H106.004C107.859 47.2659 108.991 46.2781 108.991 44.7299C108.991 43.1817 107.859 42.1939 106.004 42.1939H103.327V47.2659ZM99.5894 47.35C101.283 47.35 102.316 46.6564 102.316 45.8088C102.316 45.2133 101.95 44.863 101.339 44.6669C101.845 44.5127 102.196 44.1204 102.196 43.609C102.196 42.7474 101.248 42.1099 99.6807 42.1099C98.3246 42.1099 97.2356 42.6843 96.8772 43.4619L98.0647 44.0083C98.2474 43.6301 98.8024 43.2798 99.5964 43.2798C100.257 43.2798 100.686 43.4479 100.686 43.7351C100.686 44.0504 100.243 44.1765 99.5824 44.1765H98.6689V45.2343H99.6245C100.292 45.2343 100.812 45.3464 100.812 45.6967C100.812 46.0469 100.222 46.2151 99.6034 46.2151C98.7954 46.2151 98.149 45.8718 97.9382 45.3954L96.6875 45.9699C97.0669 46.7825 98.0436 47.371 99.5894 47.371" fill="#000000"></path>
    <path d="M64.7075 14.8726L45.125 3.34161L50.8093 0L64.7075 8.16839V14.8726Z" fill="#000000"></path>
    <path d="M56.5575 29.4372L36.9609 17.8921V24.6874L50.8591 32.8138L56.5926 29.4582L56.5575 29.4372ZM64.7572 21.1777L42.4907 8.16853L42.5328 4.89697L36.968 8.16853V11.5872L59.2345 24.5964L59.1924 27.8819V27.938L64.7572 24.6804V21.1707V21.1777Z" fill="#000000"></path>
  </g>

</svg>
