<?xml version="1.0" encoding="utf-8"?>
<svg viewBox="84.458 131.912 627.63 78.663" xmlns="http://www.w3.org/2000/svg">
  <path d="M399.8,11.9a1.23,1.23,0,0,0-.6-.1H351a13.51,13.51,0,0,0-6.2,1.5,16.26,16.26,0,0,0-4.9,4.1l-.1.1a14.9,14.9,0,0,0-2.8,5.8l-6.8,32.1a10.09,10.09,0,0,0,.4,6,8.45,8.45,0,0,0,3.4,4.3,9.6,9.6,0,0,0,5.7,1.6H388a.74.74,0,0,0,.6-.2h0c.1-.2.3-.3.3-.6l.7-3.6h0c.1-.2,0-.4,0-.5l-.1-.1c0-.1-.2-.3-.3-.4h0a1.42,1.42,0,0,0-.6-.2H340.4a4.71,4.71,0,0,1-3.8-1.7,5,5,0,0,1-.8-4.2l2.9-13.5h54.4c.3,0,.5,0,.6-.1s.4-.4.4-.6v-.1l.8-3.5h0c.1-.2,0-.4,0-.6a.78.78,0,0,0-.4-.4v-.1a1.23,1.23,0,0,0-.6-.1H339.8l2.8-13.1a8.23,8.23,0,0,1,2.8-4.5,7.84,7.84,0,0,1,4.9-1.9h48.2a.74.74,0,0,0,.6-.2.93.93,0,0,0,.4-.6l.7-3.5c.1-.2,0-.4,0-.6a.78.78,0,0,0-.4-.4Z" style="fill-rule: nonzero; paint-order: fill; stroke-width: 0px; fill: rgb(0, 0, 0);" transform="matrix(1, 0, 0, 1, 84.457895, 131.914965)"/>
  <path d="M277.2,12.4a1.31,1.31,0,0,0-.3-.4l-.1-.1c-.1-.1-.4-.1-.5-.1h-3.6c-.3,0-.5,0-.6.2H272c-.1.2-.3.3-.3.6l-9.1,42.8a10.94,10.94,0,0,0,.3,6,9.23,9.23,0,0,0,3.5,4.3,9.33,9.33,0,0,0,5.7,1.6H316a.85.85,0,0,0,.7-.2.83.83,0,0,0,.3-.6l.8-3.6a.74.74,0,0,0-.1-.5v-.1a.78.78,0,0,0-.4-.4.72.72,0,0,0-.5-.2h-44a5.08,5.08,0,0,1-3.9-1.7,5.31,5.31,0,0,1-.7-4.2L277.3,13A1.23,1.23,0,0,0,277.2,12.4Z" style="fill: rgb(0, 0, 0);" transform="matrix(1, 0, 0, 1, 84.457895, 131.914965)"/>
  <path d="M252.3,13.4a9.3,9.3,0,0,0-5.6-1.6h-50c-.3,0-.5,0-.6.2H196c-.1.2-.3.3-.3.6L184.4,66.1a.65.65,0,0,0,.1.6c0,.2.2.3.3.5a1.23,1.23,0,0,0,.6.1H189a.74.74,0,0,0,.6-.2.93.93,0,0,0,.4-.6l10.4-49.2H246a4.79,4.79,0,0,1,3.8,1.8l.1.1a5.17,5.17,0,0,1,.7,4.1l-1.5,7.1v.2a8.11,8.11,0,0,1-1.5,2.9l-.1.1a10.09,10.09,0,0,1-2.7,2.3,10.83,10.83,0,0,1-3.4.9H198.5a.87.87,0,0,0-.6.2h-.1c-.1.2-.3.3-.3.6l-.7,3.6h0c-.1.1,0,.3.1.5v.1c0,.1.2.2.3.4a1.23,1.23,0,0,0,.6.1h42.8a13.51,13.51,0,0,0,6.2-1.5,16.5,16.5,0,0,0,5-4.1,13.91,13.91,0,0,0,2.8-5.7v-.2l1.5-7.1a10.94,10.94,0,0,0-.3-6,9.73,9.73,0,0,0-3.3-4.2C252.4,13.5,252.4,13.4,252.3,13.4Z" style="fill: rgb(0, 0, 0);" transform="matrix(1, 0, 0, 1, 84.457895, 131.914965)"/>
  <path d="M180.3,13.2h0a3.6,3.6,0,0,0-3-1.4h-3.7a7.52,7.52,0,0,0-2.8.6l-.1.1h0a9,9,0,0,0-2.3,1.4.1.1,0,0,0-.1.1h0L138.8,41.4,121.3,14.2l-.1-.1h0a6.81,6.81,0,0,0-2-1.7H119a5.42,5.42,0,0,0-2.5-.6h-3.6a4.61,4.61,0,0,0-3.3,1.3h-.1a5.2,5.2,0,0,0-1.8,3h-.1L97,66.1h.1a.64.64,0,0,0,0,.6,1.76,1.76,0,0,0,.4.5.74.74,0,0,0,.5.1h3.6a.85.85,0,0,0,.7-.2.83.83,0,0,0,.3-.6L113,17.3h2.7c.1,0,.3.1.4.1s.1.1.2.1v.1l18.5,28.8h.1a3.26,3.26,0,0,0,2.9,1.6,4.67,4.67,0,0,0,3.1-1.3h.2l30.8-28.9c0-.1,0-.1.1-.1s.2-.2.3-.2a3.84,3.84,0,0,1,.6-.2h2.3L164.9,66.1h0a1.23,1.23,0,0,0,.1.6c0,.2.2.3.3.5a1.23,1.23,0,0,0,.6.1h3.5a.85.85,0,0,0,.7-.2.83.83,0,0,0,.3-.6l10.6-50A3.47,3.47,0,0,0,180.3,13.2Z" style="fill: rgb(0, 0, 0);" transform="matrix(1, 0, 0, 1, 84.457895, 131.914965)"/>
  <path d="M93.6,11.8H89.9a.74.74,0,0,0-.6.2h0a1.28,1.28,0,0,0-.4.6L77.6,66.1a1.23,1.23,0,0,0,.1.6,1.76,1.76,0,0,0,.4.5.74.74,0,0,0,.5.1h3.6a.85.85,0,0,0,.7-.2.83.83,0,0,0,.3-.6L94.6,13a1.23,1.23,0,0,0-.1-.6,1.31,1.31,0,0,0-.3-.4l-.1-.1A.74.74,0,0,0,93.6,11.8Z" style="fill: rgb(0, 0, 0);" transform="matrix(1, 0, 0, 1, 84.457895, 131.914965)"/>
  <path d="M70,11.9a.74.74,0,0,0-.5-.1H21.3a13.51,13.51,0,0,0-6.2,1.5,16.26,16.26,0,0,0-4.9,4.1l-.1.1a14.9,14.9,0,0,0-2.8,5.8L5.8,30.4a11,11,0,0,0,.4,6,8.06,8.06,0,0,0,3.4,4.3c0,.1.1.1.2.1a9.55,9.55,0,0,0,5.4,1.5H54.5a5,5,0,0,1,3.8,1.8V44a5.26,5.26,0,0,1,.8,4.3l-1.5,7.1a6.72,6.72,0,0,1-1.5,3.2,10.09,10.09,0,0,1-2.7,2.3,8.16,8.16,0,0,1-3.4.8H1.8a1.42,1.42,0,0,0-.6.2.87.87,0,0,0-.3.6H.8L0,66.1H.1a.64.64,0,0,0,0,.6,1.76,1.76,0,0,0,.4.5.74.74,0,0,0,.5.1H49.3a13.38,13.38,0,0,0,6.1-1.5,18,18,0,0,0,5-4.1v-.1a14.9,14.9,0,0,0,2.8-5.8l1.5-7.1a11,11,0,0,0-.4-6,8.45,8.45,0,0,0-3.4-4.3c-.1-.1-.1-.1-.2-.1a9.55,9.55,0,0,0-5.4-1.5H16a5.24,5.24,0,0,1-3.8-1.7,5.67,5.67,0,0,1-.8-4.3l1.5-7.1a8.23,8.23,0,0,1,2.8-4.5,7.84,7.84,0,0,1,4.9-1.9H68.8a.74.74,0,0,0,.6-.2,1.51,1.51,0,0,0,.4-.6l.7-3.5v-.6a.78.78,0,0,0-.4-.4Z" style="fill: rgb(0, 0, 0);" transform="matrix(1, 0, 0, 1, 84.457895, 131.914965)"/>
  <path class="b" d="M489,11.48h0C481.18,3.86,470.92,0,458.52,0a53.16,53.16,0,0,0-33.36,11.33c-9.78,7.7-15.48,17-16.94,27.77a31.59,31.59,0,0,0,9.79,28c8,7.67,18.28,11.56,30.57,11.56H449a53.39,53.39,0,0,0,32.94-11.42c9.78-7.6,15.48-16.88,16.95-27.63S496.93,19.3,489,11.48ZM412,40.9h9.07a1.5,1.5,0,0,0,0-3h-8.63c1.53-8.25,5.81-15.36,13-21.64L476.7,66.14a49.4,49.4,0,0,1-26.33,8.53l.92-7.08a1.5,1.5,0,1,0-3-.38l-1,7.47c-10.82-.25-19.52-3.66-26.59-10.45A27.64,27.64,0,0,1,412,40.9Zm69.48,21.54-51.23-49.9A49.14,49.14,0,0,1,456.63,4l-.92,7.19a1.51,1.51,0,0,0,1.3,1.68h.19a1.5,1.5,0,0,0,1.49-1.31l1-7.57c11,.22,19.65,3.59,26.55,10.31S495.88,28.76,495,37.9h-9a1.5,1.5,0,0,0,0,3h8.63C493.08,49.06,488.68,56.28,481.51,62.44Z" style="opacity: 0.5; fill: rgb(0, 0, 0);" transform="matrix(1, 0, 0, 1, 84.457895, 131.914965)"/>
  <path d="M487.6,10.6a1.91,1.91,0,0,0-1-.5h-.1a1.49,1.49,0,0,0-1.1.4h-.1l-15.5,12L428.5,10.2h-.1a.3.3,0,0,0-.2-.1h-.7c-.3.1-.5.1-.7.3h0l-.1.1v.1c-.5.3-.9.6-1.4.9a17.69,17.69,0,0,0-1.5,1.5.35.35,0,0,0-.2.1,1.35,1.35,0,0,0-.5.9,1.15,1.15,0,0,0,.2,1v.1a1.31,1.31,0,0,0,.7.5.1.1,0,0,1,.1.1h0l39.4,11.7L417.3,63.1h-.1v.1a1.25,1.25,0,0,0-.6.8v.1c-.1.2,0,.4,0,.5h0a.35.35,0,0,0,.1.2v.3a.37.37,0,0,0,.1.3v.1c.1.1.1.2.2.3l1.2,1.2a8.56,8.56,0,0,0,1,.9c0,.1.1.1.2.2a1.19,1.19,0,0,0,.9.3h.1a2.35,2.35,0,0,0,1.1-.3V68h0l47.1-36.4c3,11.9,6.1,23.7,9.1,35.5v.1c.1.2.1.4.2.6.3.6.9.8,1.8.5h0a7.48,7.48,0,0,0,1.6-.8,17.13,17.13,0,0,1,1.5-1.2c.4-.4.7-.7.7-.9v.1l.1-.1v-.1a1.4,1.4,0,0,0,.1-.9h0a.37.37,0,0,0-.1-.3h0l-9.5-36.7,15.4-11.9h.1a.22.22,0,0,1,.2-.2h0l.2-.2h0a2.29,2.29,0,0,1,.3-.5.37.37,0,0,1,.1-.3v-.6a.3.3,0,0,1-.1-.2,2,2,0,0,0-.4-.8,10.44,10.44,0,0,1-1.1-1A12.52,12.52,0,0,0,487.6,10.6Z" style="fill: rgb(0, 0, 0);" transform="matrix(1, 0, 0, 1, 84.457895, 131.914965)"/>
  <g class="c" transform="matrix(1, 0, 0, 1, 84.457895, 131.914965)">
    <path d="M504.71,65.07l17.4.09a2.21,2.21,0,0,0,2-1.5l.41-1.5a1.16,1.16,0,0,0-1.21-1.52l-15-.07.69-2.5,15,.07a2.18,2.18,0,0,0,2-1.49l.41-1.51a1.16,1.16,0,0,0-1.2-1.53l-17.4-.09.68-2.48,17.4.09a3.07,3.07,0,0,1,3.19,4l-.41,1.5a5.41,5.41,0,0,1-1.93,2.75,3.16,3.16,0,0,1,.41,2.76l-.41,1.51a5.8,5.8,0,0,1-5.4,4L504,67.57Z" transform="translate(0 0)" style="fill: rgb(0, 0, 0);"/>
    <path d="M529.66,64.25,531.1,59a5,5,0,0,1,4.66-3.43l12.93.06-.68,2.5-12.93-.06a1.36,1.36,0,0,0-1.29.94l-1.44,5.23a.73.73,0,0,0,.77.95l14.1.08,4.16-15.14,2.7,0L549.23,67.8l-16.8-.09A2.65,2.65,0,0,1,529.66,64.25Z" transform="translate(0 0)" style="fill: rgb(0, 0, 0);"/>
    <path d="M555,64.35l2.5,0a.44.44,0,0,1,.46.58l-.63,2.31a.84.84,0,0,1-.79.58H554a.45.45,0,0,1-.47-.59l.64-2.31A.84.84,0,0,1,555,64.35Z" transform="translate(0 0)" style="fill: rgb(0, 0, 0);"/>
    <path d="M561.33,64.41l1.44-5.23a5,5,0,0,1,4.67-3.43l16.8.09-.69,2.5-16.8-.09a1.35,1.35,0,0,0-1.28.94L564,64.43a.72.72,0,0,0,.76.95l16.8.09L580.9,68l-16.8-.09A2.66,2.66,0,0,1,561.33,64.41Z" transform="translate(0 0)" style="fill: rgb(0, 0, 0);"/>
    <path d="M584.84,64.53l1.44-5.23A5,5,0,0,1,591,55.87l13.08.07a2.66,2.66,0,0,1,2.77,3.47l-1.44,5.23a5,5,0,0,1-4.67,3.43L587.61,68A2.66,2.66,0,0,1,584.84,64.53ZM589,59.32l-1.44,5.23a.72.72,0,0,0,.76,1l13.08.07a1.37,1.37,0,0,0,1.29-.94l1.43-5.24a.72.72,0,0,0-.76-1l-13.08-.07A1.36,1.36,0,0,0,589,59.32Z" transform="translate(0 0)" style="fill: rgb(0, 0, 0);"/>
    <path d="M609,64.64h2.5a.45.45,0,0,1,.47.58l-.64,2.31a.83.83,0,0,1-.78.58H608a.45.45,0,0,1-.47-.59l.64-2.31A.82.82,0,0,1,609,64.64Z" transform="translate(0 0)" style="fill: rgb(0, 0, 0);"/>
    <path d="M617.73,56l2.69,0-3.33,12.12h-2.7Zm1.1-4h2.69l-.68,2.5h-2.7Z" transform="translate(0 0)" style="fill: rgb(0, 0, 0);"/>
    <path d="M620.08,68.17l4.85-17.64,2.7,0-4.85,17.63Z" transform="translate(0 0)" style="fill: rgb(0, 0, 0);"/>
  </g>
</svg>