<?xml version="1.0" encoding="utf-8"?>
<svg viewBox="339.35 188.431 122.43 125.809" xmlns="http://www.w3.org/2000/svg">
  <path class="st11" d="M 342.011 196.846 C 342.011 196.846 350.616 209.193 342.811 231.447 C 330.944 265.288 351.917 289.423 372.85 301.57 C 393.763 313.718 431.806 320.182 455.22 306.793 C 455.22 306.793 471.47 297.308 452.819 290.283 C 434.167 283.259 373.63 258.664 356.34 190.102 C 356.32 190.102 347.454 183.398 342.011 196.846 Z" style="fill: rgb(244, 247, 41);"/>
  <path class="st12" d="M 342.011 196.846 C 342.011 196.846 350.616 209.193 342.811 231.447 C 330.944 265.288 351.917 289.423 372.85 301.57 C 393.763 313.718 431.806 320.182 455.22 306.793 C 455.22 306.793 471.47 297.308 452.819 290.283 C 434.167 283.259 373.63 258.664 356.34 190.102 C 356.34 190.102 347.454 183.398 342.011 196.846 Z" style="fill: none; stroke: rgb(0, 0, 0); stroke-miterlimit: 10; stroke-width: 2.5905px;"/>
  <path d="M 457.502 292.585 C 457.502 292.585 433.047 313.698 386.078 280.597 C 386.078 280.597 417.057 310.216 452.439 302.071 C 452.439 302.071 462.365 297.808 456.381 307.214 C 456.381 307.214 467.488 297.248 457.502 292.585 Z" style=""/>
  <path class="st13" d="M 345.133 189.141 C 345.133 189.141 357.5 208.253 352.037 239.892 C 346.574 271.532 375.051 321.883 460.504 300.59 L 455.2 306.773 C 431.806 320.162 393.763 313.718 372.83 301.55 C 351.917 289.403 330.924 265.268 342.791 231.427 C 347.654 217.539 346.153 207.532 342.371 199.568 L 345.133 189.141 Z" style="opacity: 0.15;"/>
  <path class="st15" d="M 353.778 247.197 C 353.778 247.197 350.316 258.424 358.101 267.049" style="fill: none; stroke: rgb(255, 255, 255); stroke-linecap: round; stroke-miterlimit: 10; stroke-width: 1.7252px;"/>
</svg>